<?xml version="1.0" encoding="utf-8"?>
<!-- Generator: Adobe Illustrator 16.0.0, SVG Export Plug-In . SVG Version: 6.00 Build 0)  -->
<!DOCTYPE svg PUBLIC "-//W3C//DTD SVG 1.1//EN" "http://www.w3.org/Graphics/SVG/1.1/DTD/svg11.dtd">
<svg version="1.1" id="Layer_1" xmlns="http://www.w3.org/2000/svg" xmlns:xlink="http://www.w3.org/1999/xlink" x="0px" y="0px"
	 width="1280px" height="800px" viewBox="0 0 1280 800" enable-background="new 0 0 1280 800" xml:space="preserve">
<g>
	<path fill-rule="evenodd" clip-rule="evenodd" d="M473.535,243.227c-14.429-5.365-18.074-17.298-18.164-30.292
		c-0.154-22.387,8.344-41.144,26.502-54.933c6.401-4.859,13.037-9.381,20.803-11.86c6.405-2.045,13.095-2.188,19.714-2.692
		c1.658-0.126,2.677-0.677,3.607-1.968c4.545-6.3,8.03-13.2,11.452-20.132c1.819-3.686,3.492-7.442,5.956-10.768
		c0.528-0.717,0.901-1.279,0.3-2.314c-7.229-12.428-4.937-24.177,2.72-35.48c0.875-1.292,1.871-2.516,2.915-3.677
		c7.4-8.229,14.609-16.635,20.621-25.935c3.218-4.981,12.817-5.232,15.825,0.733c0.978,1.937,2.105,3.841,2.292,5.986
		c0.286,3.319,2.167,5.297,4.834,6.866c4.487,2.642,9.257,4.656,14.075,6.587c3.897,1.563,7.95,2.81,11.389,5.346
		c0.694,0.512,1.386,0.61,2.196,0.303c10.556-4,21.753-4.941,32.775-6.394c22.748-3.001,45.625-3.69,68.533-2.041
		c6.842,0.493,13.584,1.81,20.262,3.325c8.734,1.981,16.49,6.023,23.471,11.627c3.431,2.754,6.975,5.37,10.505,7.996
		c1.008,0.75,2.065,1.385,3.509,1.076c22.318-4.767,45.148-6.137,67.57-10.234c11.991-2.191,23.551-5.741,34.694-10.683
		c3.593-1.594,6.969-3.544,10.298-5.612c5.654-3.512,11.086-2.652,14.823,2.253c3.755,4.927,3.024,10.581-2.033,15.08
		c-4.971,4.423-9.887,8.943-15.588,12.424c-3.32,2.027-4.55,4.727-4.306,8.541c0.437,6.929,0.792,13.872,0.855,20.812
		c0.087,10.009-1.389,19.903-3.159,29.715c-1.523,8.449-5.709,15.76-11.082,22.39c-7.133,8.8-15.394,16.409-24.718,22.821
		c-1.941,1.335-2.027,2.346-1.2,4.458c4.745,12.116,9.393,24.287,11.079,37.309c0.206,1.598,0.976,2.046,2.331,2.452
		c21.081,6.329,41.674,13.973,61.674,23.181c2.486,1.145,5.06,2.175,7.372,3.612c6.812,4.239,14.229,4.414,21.835,3.623
		c2.064-0.215,3.976-0.951,5.845-1.844c6.979-3.336,13.555,0.228,14.244,7.898c0.219,2.435,1.264,2.075,2.544,1.255
		c7.835-5.018,16.501,2.543,14.432,10.051c-0.275,0.996,0.048,1.384,0.957,1.71c4.722,1.688,6.89,5.174,6.17,10.038
		c-0.681,4.605,0.431,9.114,0.16,13.679c-0.148,2.509-0.276,4.909-2.286,6.709c-0.933,0.836-0.55,1.708-0.33,2.68
		c0.473,2.092,1.063,4.198,1.188,6.325c0.43,7.354-5.693,12.715-12.349,10.957c-3.867-1.022-6.532-4.181-6.883-8.188
		c-0.108-1.243,0.17-2.554-0.651-3.67c-6.843,2.617-10.637,1.435-14.341-4.613c-0.527-0.862-0.926-0.966-1.825-0.806
		c-5.085,0.895-8.491-1.506-10.695-5.834c-0.724-1.427-1.246-1.993-3.031-1.529c-5.872,1.529-11.235-2.06-11.793-8.146
		c-0.651-7.135-4.007-12.993-7.764-18.765c-0.625-0.962-1.521-1.471-2.506-1.937c-20.783-9.884-42.128-18.352-64.023-25.446
		c-2.363-0.767-3.033-0.072-3.545,2.063c-0.915,3.812-2.135,7.555-4.468,10.78c-0.875,1.208-0.484,1.809,0.55,2.587
		c7.15,5.375,13.488,11.664,19.385,18.326c14.043,15.865,21.667,34.431,22.324,55.703c0.158,5.13-0.815,10.126-2.58,14.949
		c-3.996,10.925-8.013,21.844-12.021,32.766c-2.001,5.458-4.681,10.564-8.286,15.119c-1.277,1.617-1.01,2.251,0.692,3.184
		c8.159,4.47,15.948,9.521,23.435,15.053c15.339,11.33,26.847,25.864,35.745,42.571c1.11,2.086,1.956,2.666,4.396,1.703
		c6.224-2.454,11.507-0.217,15.903,4.353c1.345,1.399,2.54,1.919,4.541,1.674c8.149-0.992,13.839,2.453,17.894,10.79
		c0.896,1.844,1.802,2.74,3.988,2.978c6.947,0.753,12.246,5.83,14.016,13.185c1.949,8.096,1.801,16.331,0.947,24.52
		c-0.553,5.291-3.496,9.197-8.852,10.515c-5.585,1.371-10.522-0.067-14.144-4.719c-1.005-1.293-1.892-1.798-3.569-1.816
		c-6.669-0.076-11.528-3.606-14.859-9.038c-2.17-3.53-4.896-1-7.305-1.268c-2.069-0.229-1.461,1.964-1.713,3.113
		c-1.113,5.063-1.938,10.189-3.108,15.237c-1.162,5.016-3.28,9.646-6.823,13.47c-1.214,1.313-1.029,2.369-0.392,3.902
		c2.907,6.992,4.763,14.296,5.537,21.827c0.863,8.39-2.135,15.557-7.485,21.861c-7.947,9.371-17.711,16.5-28.131,22.84
		c-8.113,4.938-16.639,9.09-25.074,13.421c-6.007,3.085-11.875,6.396-17.278,10.496c-1.722,1.309-2.521,2.324-0.915,4.372
		c0.99,1.262,1.51,2.959,1.987,4.538c1.667,5.522,3.355,11.047,4.798,16.63c3.497,13.538-1.656,24.324-14.383,30.39
		c-4.194,1.999-8.657,3.058-13.239,3.671c-3.181,0.425-5.763,5.257-4.37,8.091c0.865,1.753,1.716,3.526,2.375,5.359
		c3.868,10.738,1.139,18.785-8.354,25.12c-5.86,3.91-12.582,5.185-19.295,6.537c-18.802,3.79-37.796,4.385-56.911,3.886
		c-14.278-0.372-28.546-0.959-42.816-1.525c-8.293-0.326-14.047-6.022-13.677-13.671c0.16-3.307,1.636-5.964,3.982-8.238
		c5.689-5.519,12.089-10.246,17.558-16.021c3.583-3.784,6.686-7.906,9.695-12.133c1.185-1.663,0.385-3.417,0.596-5.117
		c0.333-2.714-2.083-2.115-3.43-2.524c-4.021-1.221-8.11-2.219-12.168-3.316c-1.705-0.463-3.157-0.294-4.62,0.931
		c-2.418,2.028-5.284,3.353-8.279,4.331c-12.007,3.926-24.147,7.115-36.724,8.916c-21.364,3.065-42.501,1.85-63.626-1.77
		c-2.024-0.346-4.066-0.588-6.103-0.867c-4.902-0.672-7.415,0.9-8.961,5.755c-1.271,3.997-3.574,7.376-6.09,10.64
		c-2.169,2.815-3.736,5.758-4.343,9.429c-1.101,6.647-5.734,10.439-11.849,12.568c-9.019,3.146-18.339,4.509-27.855,5.23
		c-10.272,0.779-20.537,0.316-30.799,0.648c-3.268,0.105-6.429-0.588-9.461-1.75c-5.675-2.172-11.531-2.782-17.568-2.572
		c-8.713,0.302-17.415,0.058-26.014-1.595c-3.979-0.763-7.698-2.221-11.03-4.564c-8.332-5.854-8.284-17.283,0.09-23.048
		c0.081-0.057,0.159-0.12,0.246-0.161c10.556-4.831,17.637-13.609,25.435-21.734c5.341-5.564,8.944-12.298,14.024-17.947
		c1.384-1.541,0.089-1.669-0.933-2.008c-4.819-1.597-9.636-3.203-14.458-4.796c-38.298-12.675-71.87-33.294-101.602-60.391
		c-22.671-20.661-41.98-43.964-56.229-71.264c-12.833-24.592-18.042-50.74-15.539-78.322c1.409-15.513,6.873-29.828,14.221-43.479
		c6.773-12.584,14.474-24.612,22.006-36.738c1.259-2.026,1.156-3.16-0.473-4.957c-7.9-8.726-9.727-20.323-3.834-31.075
		c13.9-25.366,31.761-46.78,60.164-56.979c4.965-1.785,9.624-4.928,14.702-5.768c6.304-1.039,9.783-4.992,13.463-9.235
		c3.908-4.51,7.756-9.073,11.979-13.302c14.035-14.057,31.048-17.583,49.985-14.049
		C470.619,245.968,471.813,244.733,473.535,243.227z"/>
	<path fill-rule="evenodd" clip-rule="evenodd" d="M850.069,246.145c-1.844-0.156-2.512,0.912-2.861,2.533
		c-1.527,7.073-3.16,14.072-7.612,20.093c-2.058,2.781-1.63,5.187,0.925,7.593c4.336,4.078,9.277,7.454,13.515,11.673
		c7.147,7.119,14.136,14.293,18.828,23.425c4.96,9.656,8.287,19.713,9.597,30.53c1.018,8.418-1.587,15.989-4.387,23.597
		c-3.004,8.158-6.192,16.249-9.078,24.446c-2.917,8.288-7.636,15.348-13.782,21.532c-2.351,2.363-2.311,2.574,0.646,4.046
		c16.004,7.964,31.171,17.236,43.902,29.915c11.93,11.877,20.218,26.268,27.119,41.497c0.278,0.611,0.522,1.238,0.874,2.074
		c1.429-1.216,2.004-2.761,2.863-4.112c4.245-6.672,9.233-6.719,13.725-0.227c1.174,1.697,0.985,4.551,2.85,5.234
		c1.829,0.674,2.961-2.057,4.823-2.729c4.07-1.472,7.163-0.594,9.694,2.932c1.872,2.612,2.981,5.503,3.398,8.631
		c0.313,2.365,1.044,3.245,3.631,2.359c6.617-2.266,11.089,0.655,12.232,7.566c1.013,6.129,0.682,12.288,0.523,18.435
		c-0.05,1.914-0.37,4.052-2.966,4.399c-2.718,0.365-4.558-0.768-5.394-3.396c-0.532-1.673-1.098-3.347-1.449-5.063
		c-0.388-1.885-1.078-1.667-2.337-0.702c-4.797,3.676-9.535,2.899-13.028-2.082c-1.749-2.491-3.146-5.186-4.143-8.062
		c-0.647-1.877-1.371-2.332-3.079-0.881c-2.879,2.442-6.183,3.608-10.036,2.553c-2.123-0.58-3.422-2.183-4.893-3.601
		c-0.399-0.386-0.724-1.07-1.4-0.814c-0.696,0.267-0.471,0.998-0.467,1.547c0.06,8.959-2.239,17.583-3.7,26.326
		c-1.091,6.539-5.038,11.552-9.028,16.481c-1.157,1.426-1.531,2.438-0.571,4.079c4.276,7.307,5.981,15.453,7.174,23.677
		c0.666,4.595-0.843,8.904-3.565,12.683c-7.188,9.965-17.05,16.796-27.266,23.209c-10.288,6.458-21.47,11.252-32.032,17.201
		c-5.628,3.17-11.037,6.658-15.725,11.163c-1.146,1.098-2.058,2.356-2.837,3.715c-2.047,3.577-1.982,4.034,1.414,6.141
		c1.721,1.065,2.631,2.639,3.185,4.416c2.148,6.896,4.297,13.804,5.751,20.883c0.997,4.854-1.151,8.81-4.475,12.12
		c-4.814,4.794-11.031,6.401-17.509,7.303c-1.046,0.146-2.08-0.212-2.715-0.877c-1.883-1.974-2.512-0.6-3.233,0.985
		c-2.104,4.621-3.94,9.399-7.575,13.131c-1.243,1.278-0.129,2.168,0.536,3.025c2.668,3.454,4.569,7.252,5.573,11.515
		c0.975,4.146-0.303,7.374-3.476,10.161c-4.952,4.348-11.103,5.438-17.194,6.854c-10.218,2.371-20.603,3.121-31.037,3.608
		c-3.692,0.171-7.395,1.194-11.051,1.003c-16.293-0.855-32.606-1.014-48.896-1.804c-2.723-0.132-5.448-0.392-8.182-0.43
		c-2.138-0.029-3.903-0.832-4.756-2.814c-0.882-2.055,0.357-3.511,1.841-4.806c3.603-3.15,7.134-6.383,10.773-9.488
		c5.756-4.914,10.393-10.781,15.148-16.63c3.213-3.954,4.527-7.801,3.85-12.704c-0.288-2.09-0.131-4.286,0.411-6.405
		c0.32-1.261,0.114-2.388-1.487-2.602c-8.344-1.126-16.101-4.711-24.472-5.759c-2.897-0.363-5.433,0.164-7.641,2.029
		c-2.594,2.192-5.624,3.488-8.796,4.546c-11.6,3.861-23.413,6.673-35.568,8.27c-14.633,1.922-29.197,1.373-43.806,0.072
		c-9.051-0.807-17.93-2.646-26.863-4.156c-2.352-0.398-4.156,0.23-5.666,2.146c-1.809,2.3-3.803,4.452-5.73,6.656
		c-0.514,0.587-1.207,1.085-1.243,1.931c-0.188,4.204-2.896,7.154-5.126,10.33c-2.7,3.844-5.367,7.584-5.722,12.604
		c-0.236,3.369-2.986,5.141-5.994,6.164c-7.703,2.624-15.637,4.057-23.753,4.716c-10.45,0.844-20.91,0.474-31.364,0.665
		c-2.582,0.046-5.083-0.262-7.471-1.192c-6.489-2.527-13.203-3.263-20.13-3.047c-8.593,0.27-17.189,0.15-25.657-1.694
		c-2.221-0.482-4.305-1.362-6.189-2.6c-4.031-2.644-3.895-6.87,0.229-9.372c3.507-2.126,7.106-4.119,10.502-6.411
		c5.254-3.545,8.785-8.849,13.116-13.339c0.27-0.278,0.434-0.669,0.724-0.917c9.674-8.246,14.651-20.466,24.35-28.72
		c2.105-1.792,1.663-2.578-1.297-3.643c-15.991-5.743-32.395-10.341-47.991-17.179c-20.319-8.91-39.317-20.053-56.809-33.738
		c-10.705-8.374-21.212-17.016-30.648-26.776c-18.004-18.623-33.999-38.797-45.184-62.392
		c-6.913-14.585-11.418-29.822-12.946-45.972c-2.147-22.705,2.591-43.801,13.536-63.726c7.017-12.775,14.797-25.076,22.411-37.483
		c4.496-7.326,4.607-7.258-1.309-13.278c-6.076-6.186-7.559-13.814-3.618-21.516c5.63-11.006,12.754-21.066,20.999-30.254
		c10.558-11.762,23.904-19.34,38.599-24.755c3.114-1.147,6.13-2.557,9.202-3.815c0.813-0.333,1.718-0.89,2.497-0.776
		c5.589,0.819,8.55-3.054,11.791-6.432c5.478-5.71,10.235-12.064,15.863-17.649c8.306-8.242,18.136-12.602,29.93-12.598
		c5.407,0.001,10.755,0.076,15.882,1.996c1.277,0.479,2.175,0.294,3.148-0.649c8.254-7.996,18.894-10.059,29.643-11.833
		c0.54-0.09,1.33,0.209,1.497-0.534c0.188-0.837-0.427-1.494-1.021-1.981c-2.773-2.273-6.205-2.81-9.57-3.286
		c-5.207-0.735-10.461-1.138-15.677-1.811c-4.87-0.629-8.586-3.008-10.773-7.558c-4.207-8.76-4.286-17.851-2.333-27.147
		c2.384-11.359,7.053-21.691,15.438-29.736c7.912-7.587,16.674-14.351,27.739-16.804c5.212-1.155,10.597-1.864,15.986-1.488
		c2.601,0.183,4.519-0.655,6.203-2.548c4.929-5.536,8.226-12.093,11.764-18.506c3.155-5.724,5.289-11.998,9.448-17.188
		c1.389-1.734,3.797-2.993,3.956-5.313c0.171-2.503-2.934-2.781-4.154-4.52c-4.519-6.432-4.036-13.202-1.526-20.104
		c1.637-4.498,4.689-8.133,7.867-11.568c6.518-7.042,12.444-14.532,17.915-22.398c0.489-0.705,0.852-1.728,1.88-1.622
		c1.037,0.106,1.396,1.195,1.464,1.982c0.875,10.225,8.751,13.918,16.504,17.583c4.496,2.126,9.218,3.771,13.835,5.641
		c1.827,0.74,3.525,1.724,4.988,3.039c2.156,1.935,4.692,2.168,7.129,1.141c7.944-3.351,16.41-4.164,24.785-5.502
		c14.582-2.328,29.252-3.282,44.01-3.731c17.443-0.53,34.726-0.033,51.738,4.239c7.582,1.905,13.92,6.053,19.832,10.961
		c3.541,2.936,7.275,5.592,11.117,8.113c2.171,1.426,4.479,1.883,6.991,1.426c7.959-1.444,15.883-3.101,23.876-4.301
		c8.479-1.275,17.029-2.053,25.531-3.176c11.503-1.52,22.985-3.202,34.156-6.461c9.013-2.63,17.895-5.652,26.256-9.993
		c2.424-1.26,4.737-2.735,7.084-4.14c1.164-0.698,2.178-0.781,3.06,0.44c0.869,1.202,0.172,2.014-0.668,2.765
		c-4.512,4.039-9.022,8.084-14.085,11.439c-1.885,1.25-3.616,2.654-5.225,4.241c-2.431,2.398-3.525,5.277-3.661,8.667
		c-0.354,8.81,1.16,17.586,0.62,26.371c-0.688,11.17-1.065,22.441-5.23,33.069c-2.021,5.156-5.317,9.537-8.882,13.708
		c-7.677,8.984-16.663,16.469-26.687,22.669c-2.633,1.628-2.723,2.973-1.365,5.58c6.488,12.483,10.444,25.861,13.197,39.599
		c0.491,2.453,0.17,5.068,0.224,7.61c-1.554,1.854-2.688,0.603-3.84-0.514c-0.902-2.363-0.068-4.881-0.604-7.261
		c-3.014-13.39-6.654-26.584-13.293-38.716c-3.078-5.63-7.624-10.176-12.055-14.709c-5.322-5.448-10.364-11.196-16.129-16.2
		c-6.646-5.768-7.766-13.283-6.895-21.385c1.1-10.189,6.244-18.042,14.06-24.513c16.063-13.299,34.093-23.173,53.247-31.124
		c5.979-2.483,11.715-5.409,17.357-8.546c0.396-0.24,0.825-0.417,1.41-0.761c-1.057,0.271-1.732,0.861-2.523,1.208
		c-12.932,4.644-26.192,7.96-39.771,10.034c-12.373,1.891-24.873,2.795-37.231,4.76c-6.857,1.09-13.68,2.407-20.512,3.641
		c-5.683,1.025-9.721,4.794-13.183,9.192c-0.846,1.074-1.483,2.306-2.353,3.364c-0.832,1.01-1.768,2.02-3.217,1.137
		c-1.412-0.859-1.559-2.217-0.916-3.602c1.578-3.412,3.712-6.43,6.647-8.833c0.53-0.433,1.094-0.823,1.603-1.284
		c0.844-0.767,0.844-1.569-0.083-2.188c-7.556-5.037-13.91-11.786-22.284-15.654c-8.757-4.045-18.146-5.417-27.613-6.303
		c-8.769-0.82-17.58-0.836-26.375-0.61c-20.844,0.536-41.553,2.439-62.016,6.604c-3.953,0.805-7.529,2.729-11.42,3.734
		c-1.481,0.382-2.399,1.67-3.205,2.9c-3.438,5.246-8.365,8.298-14.249,10.2c-10.887,3.519-21.354,8.257-32.393,11.354
		c-0.472,0.133-0.927,0.406-1.4,0.427c-10.022,0.472-14.384,8.059-18.14,15.463c-4.746,9.354-9.764,18.5-15.415,27.316
		c-0.158,0.248-0.257,0.526-0.308,0.8c0.986,1.191,1.833,0.75,2.637-0.213c0.954-1.607,1.925-3.237,2.519-4.975
		c2.544-7.449,8-12.307,14.189-16.651c3.852-2.705,7.838-5.169,11.909-7.506c1.353-0.776,2.979-1.623,4.113,0.261
		c1.166,1.939-0.13,3.084-1.691,3.988c-6.198,3.59-11.892,7.891-17.49,12.33c-4.197,3.328-5.697,8.205-7.777,12.67
		c0.444,0.382,0.662,0.474,0.814,0.355c6.361-4.96,13.979-5.03,21.483-5.504c1.365-0.086,2.739,0.006,4.108-0.044
		c2.613-0.095,4.599-1.278,5.415-3.764c2.878-8.752,4.579-17.612,1.75-26.751c-0.26-0.841-0.6-1.656-0.806-2.515
		c-0.306-1.262-0.148-2.418,1.19-2.94c1.328-0.518,2.512-0.145,3.329,1.078c0.61,0.911,0.857,1.973,1.082,3.024
		c3.059,14.34,1.925,27.814-8.169,39.437c-0.364,0.42-0.902,0.787-0.86,1.268c8.409,2.816,16.834,5.249,25.337,7.48
		c13.285,3.489,24.214,10.84,32.157,22.196c4.281,6.123,5.812,13.408,7.887,20.433c0.38,1.283-0.046,2.344-1.34,2.879
		c-1.382,0.571-2.266-0.239-2.921-1.284c-1.103-1.761-1.659-3.767-2.169-5.746c-4.26-16.55-15.409-26.492-30.876-32.307
		c-1.613-0.606-3.247-1.227-5.016-1.49c6.417,10.712,11.273,21.842,13.171,34.117c1.323,8.562,1.021,16.959-2.824,24.924
		c-0.842,1.744-0.393,2.153,1.422,2.231c3.734,0.158,7.408-0.472,11.114-0.629c9.427-0.4,18.734,0.8,28.037,2.049
		c10.571,1.419,21.159,2.657,31.848,2.028c6.935-0.408,13.815-1.364,20.551-3.161c1.233-0.329,2.423-0.786,3.494-1.494
		c2.402-1.59,2.966-3.434,1.701-6.031c-1.113-2.281-2.558-4.399-3.318-6.853c-0.583-1.884-0.7-3.677,0.948-5.128
		c1.714-1.511,3.428-0.946,5.136,0.049c1.532,0.892,2.878,2.006,4.171,3.216c3.077,2.881,5.518,6.349,8.577,9.243
		c0.635,0.602,1.196,1.313,1.102,2.299c-1.101,2.172-3.714,0.47-5.265,2.068c1.672,0.883,3.347,0.412,4.938,0.515
		c1.761,0.114,3.548,0.075,4.694,1.785c1.589,4.648-0.168,7.237-4.967,7.48c-3.122,0.158-6.013-0.61-8.812-1.867
		c-1.424-0.642-2.768-0.907-4.084,0.271c-5.631,5.039-12.648,5.895-19.728,6.254c-10.806,0.551-21.418-1.705-32.132-2.512
		c-9.303-0.702-18.295-3.269-27.548-4.148c-6.926-0.659-13.87-0.455-20.807-0.097c-0.486,0.025-0.982,0.266-1.449,0.195
		c-7.08-1.073-13.945,1.148-20.945,1.345c-3.229,0.091-6.467,0.397-9.35,2.088c-0.816,0.478-1.883,0.96-1.716,2.132
		c0.14,0.987,1.154,1.257,1.964,1.573c2.013,0.787,4.132,1.201,6.221,1.716c5.216,1.282,9.992,3.473,14.045,7.021
		c5.031,4.405,10.653,5.86,17.168,4.094c2.832-0.767,5.738-1.296,8.441-2.458c4.151-1.785,8.531-1.874,12.932-2.169
		c6.574-0.443,12.802-2.735,19.217-4.063c6.138-1.271,12.277-2.442,18.503-3.161c3.23-0.375,6.44-0.466,9.541,0.81
		c1.554,0.639,2.796,1.544,2.659,3.422c-0.136,1.88-1.491,2.62-3.131,2.994c-1.24,0.284-2.49,0.648-3.763,0.597
		c-9.478-0.388-18.679,1.579-27.927,3.188c-4.238,0.736-8.475,1.474-12.794,1.651c-2.652,0.112-5.177,0.974-7.7,1.78
		c-7.354,2.35-14.545,5.235-22.215,6.556c-5.211,0.895-9.434,0.138-13.58-3.899c-6.947-6.764-15.735-10.048-25.532-10.3
		c-0.987-0.026-1.945,0.183-2.897,0.414c-7.168,1.743-14.459,2.213-21.811,2.474c-12.504,0.441-24.667,2.38-35.965,8.366
		c-4.866,2.578-7.439,6.746-9.827,11.269c-0.693,1.311-0.024,2.441,0.54,3.599c1.283,2.629,2.948,5.117,3.321,8.105
		c0.436,3.489-0.08,6.851-1.797,9.946c-2.105,3.796-3.201,7.854-4.189,12.09c-2.105,9.015-7.787,16.625-17.963,17.645
		c-1.554,0.157-2.74,0.894-3.731,2.081c-1.878,2.255-3.829,4.456-5.625,6.772c-2.283,2.945-5.035,5.178-8.738,6.393
		c12.627-0.815,24.988-2.741,37.469-3.665c12.689-0.94,25.377-1.069,38.065-1.449c12.608-0.38,25.188,0.928,37.792,1.241
		c12.526,0.311,25.079,0.795,37.677,3.137c-0.298-1.805-1.311-2.363-1.993-3.14c-3.713-4.216-4.269-7.929-1.888-12.967
		c0.502-1.063,1.071-2.09,1.752-3.051c2.061-2.919,3.561-6.092,4.045-9.655c0.492-3.611,2.167-6.366,5.226-8.427
		c2.919-1.969,5.509-4.387,8.214-6.641c1.473-1.222,2.53-2.609,2.391-4.753c-0.266-4.046,1.625-7.178,4.681-9.624
		c2.92-2.337,6.106-4.265,9.734-5.314c11.086-3.211,22.142-6.532,33.643-8.021c2.642-0.341,5.269-0.346,7.906-0.352
		c1.629-0.005,2.82-0.448,3.378-2.16c0.506-1.549,1.663-2.67,3.038-3.464c6.035-3.481,11.673-7.55,17.167-11.796
		c5.937-4.592,12.732-6.412,19.999-6.566c6.931-0.147,13.88-0.486,20.806,0.45c3.787,0.512,7.297,1.654,10.228,4.059
		c2.458,2.019,5.201,3.009,8.264,3.444c13.602,1.926,26.784,5.652,39.911,9.544c8.538,2.533,16.946,5.495,24.889,9.595
		c1.903,0.982,2.749,0.469,3.949-1.269c3.824-5.542,5.813-11.694,6.93-18.224c0.215-1.25,0.425-2.518,1.249-3.564
		C846.386,243.973,848.202,244.188,850.069,246.145z"/>
	<path fill-rule="evenodd" clip-rule="evenodd" fill="#F2F338" d="M844.773,240.828c1.095,0.656,2.157,1.484,3.539,0.699
		c1.382,1.168,3.056,1.695,4.752,2.186c25.102,7.259,49.489,16.37,72.882,28.062c3.162,1.581,6.487,2.694,9.83,3.788
		c4.508,0.728,9.047,0.083,13.566,0.346c0.796,0.047,2.041-0.701,2.305,0.878c-3.947,1.194-8.073,0.458-12.634,0.947
		c9.828,7.482,20.424,7.774,31.402,6.062c1.324-0.505,2.798-0.201,4.124-0.808c0.496-0.226,1.157-0.077,1.136,0.77
		c-5.51,2.35-11.321,2.627-17.199,2.553c-0.915-0.011-2.306-0.508-2.646,0.529c-0.371,1.13,1.145,1.318,1.863,1.873
		c5.669,4.362,12.092,6.035,19.189,5.493c2.422-0.185,4.866-0.055,7.301-0.044c0.986,0.005,2.244-0.102,0.934,1.43
		c-4.317-0.056-8.636-0.137-12.953,0.015c-1.295,0.104-1.98,0.532-0.539,1.503c3.88,2.615,7.633,5.483,12.332,6.585
		c1.344,0.314,2.827,5.201,1.88,6.128c-0.735,0.723-1.258-0.007-1.76-0.35c-2.49-1.703-4.948-3.449-8.016-5.598
		c1.251,3.676,2.723,6.563,4.321,9.396c0.665,1.17,0.974,2.483,1.369,3.747c0.189,0.61,0.464,1.662-0.913,1.496
		c-1.62-3.781-3.283-7.525-5.345-11.113c-3.045-5.3-7.214-9.228-12.75-11.75c-1.109-0.635-1.109-0.635-1.142,0.474
		c0.192,0.426,0.386,0.852,0.577,1.277c0.244,0.292,0.402,0.627,0.066,0.919c-0.608,0.527-0.925-0.157-1.35-0.38
		c-2.447-4.409-6.211-7.418-10.496-9.875c-0.383-0.662-1.314-0.628-1.461-0.315c-1.399,3.003-1.873-0.039-2.736-0.376
		c-2.909-3.656-7.266-5.232-11.021-7.671c-0.822-0.434-1.66-0.689-2.038,0.487c-0.463,1.438-1.102,0.396-1.692,0.185
		c-1.514-2.746-3.854-4.398-6.684-5.73c-23.565-11.107-47.742-20.602-72.696-28.103c-0.648-0.195-1.334-0.266-2.003-0.396
		c-1.956-0.219-3.782-1.943-5.878-0.496c-5.959-1.121-11.674-3.167-17.552-4.62c-10.079-2.49-20.288-4.431-30.508-5.933
		c-13.117-1.93-26.222-4.384-39.574-4.545c-3.498-0.042-7.021-0.562-10.484-1.133c-6.124-1.009-12.296,0.762-18.396-0.508
		c-0.843-0.175-1.766,0.085-2.562-0.432c-2.451-1.789-5.27-0.682-7.907-1.001c-1.051-0.128-2.659,0.535-2.782-1.201
		c-0.124-1.782,1.469-1.676,2.712-1.827c1.303-0.156,2.74,0.505,3.881-0.63c2.173-1.363,4.594-0.917,6.848-0.612
		c4.567,0.618,9.177,0.706,13.74,0.875c21.231,0.784,42.265,2.994,63.151,6.954c8.262,1.567,16.472,3.19,24.582,5.454
		c4.4,1.229,9.032,1.643,13.356,3.284C843.431,240.053,844.16,240.32,844.773,240.828z"/>
	<path fill-rule="evenodd" clip-rule="evenodd" fill="#DBDC34" d="M946.204,287.374c0.852,0.111,1.604,1.955,2.634,0.061
		c0.216-0.397,1.258-0.172,1.563,0.631c-1.998-0.295-1.555,0.612-0.9,1.742c2.654,4.589,4.734,9.42,5.951,14.595
		c0.439,1.872,0.901,3.795-1.001,5.702C953.822,301.693,950.144,294.482,946.204,287.374z"/>
	<path fill-rule="evenodd" clip-rule="evenodd" fill="#CFD031" d="M931.452,280.374c0.606,0.032,1.106,0.253,1.518-0.653
		c0.495-1.095,1.459-0.942,2.213-0.019c-1.457-0.233-2.161-0.053-1.035,1.544c3.193,4.53,4.889,9.751,6.722,14.899
		c0.801,2.249,0.83,4.528-0.399,6.959C939.773,294.546,935.773,287.394,931.452,280.374z"/>
	<path fill-rule="evenodd" clip-rule="evenodd" fill="#DADA34" d="M960.897,297.94c0.512,0.02,1.258,0.601,1.283-0.539
		c3.203,5.34,6.119,10.797,6.4,17.212c0.035,0.767,0.387,2.085-0.891,2.094c-1.263,0.012-0.896-1.29-0.944-2.079
		C966.368,308.509,963.888,303.138,960.897,297.94z"/>
	<path fill-rule="evenodd" clip-rule="evenodd" fill="#CECE31" d="M951.647,276.787c-3.561-1.282-7.248-0.183-10.852-0.578
		c-1.678-0.183-3.487,0.641-5.02-0.646c5.936-0.001,11.899,0.625,17.788-0.644c2.108-0.453,4.129-1.172,6.057-2.142
		c0.515-0.257,1.141-0.672,1.544-0.017c0.384,0.627-0.209,1.076-0.674,1.42C957.864,276.128,954.741,276.413,951.647,276.787z"/>
	<path fill-rule="evenodd" clip-rule="evenodd" fill="#DEDE34" d="M980.84,318.514c1.692-1.908-0.894-3.444-0.456-5.243
		c2.196,4.53,4.102,9.117,2.928,14.302C982.482,324.538,981.869,321.473,980.84,318.514z"/>
	<path fill-rule="evenodd" clip-rule="evenodd" fill="#F4F538" d="M972.165,295.605c4.317-1.089,8.633-1.06,12.953-0.015
		C980.801,296.151,976.482,296.196,972.165,295.605z"/>
	<path fill-rule="evenodd" clip-rule="evenodd" fill="#B4B42D" d="M975.676,283.757c-1.761-1.037-3.499,0.724-5.26,0.038
		c2.215-1.122,4.937-0.747,6.99-2.364c0.34-0.266,0.827-0.188,0.987,0.174c0.119,0.264,0.026,0.8-0.179,0.998
		C977.519,283.267,976.702,283.77,975.676,283.757z"/>
	<path fill-rule="evenodd" clip-rule="evenodd" fill="#DADA34" d="M961.604,296.125c-0.474-0.36-0.884-0.929-0.27-1.284
		c0.583-0.336,1.187,0.095,1.411,0.81C962.232,295.491,961.841,295.623,961.604,296.125z"/>
	<path fill-rule="evenodd" clip-rule="evenodd" fill="#E22A2B" d="M785.333,677.076c-10.242,4.189-20.813,7.354-31.767,8.841
		c-12.817,1.738-25.635,1.892-38.498-0.481c-13.431-2.475-25.959-7.407-37.923-13.578c-13.954-7.197-27.069-15.902-39.867-25.034
		c-1.499-1.069-3.349-1.614-4.576-3.079c-1.918-0.6-3.499-1.834-5.224-2.796c-0.73-1.111-1.782-1.935-2.647-2.924
		c0.683,0.923,1.683,1.563,2.286,2.555c1.313,1.468,3.689,1.701,4.435,3.827c6.919,6.657,14.721,12.188,22.627,17.561
		c12.505,8.496,25.7,15.654,40.122,20.411c1.466,0.483,3.883,0.525,3.938,2.387c0.058,1.883-2.188,2.601-3.771,3.252
		c-11.073,4.564-22.523,7.657-34.398,9.423c-12.64,1.878-25.363,2.628-38.021,1.693c-13.121-0.97-26.201-2.862-39.1-5.767
		c-6.023-1.359-11.795-3.528-17.747-4.997c-8.608-2.126-17.485-3.182-26.063-5.404c-11.696-3.033-23.378-6.168-34.842-10.07
		c-9.766-3.323-19.668-6.254-29.527-9.307c-36.19-11.2-69.159-28.343-98.308-52.731c-17.103-14.312-32.775-29.977-45.938-47.972
		c-14.556-19.901-25.96-41.446-30.816-65.89c-4.697-23.646-1.728-46.336,8.919-68.12c7.239-14.813,16.697-28.278,24.734-42.596
		c0.719-1.279,1.522-2.515,2.163-3.832c1.445-2.972,3.001-5.52,7.066-4.059c1.248,0.45,2.457-0.486,3.543-1.125
		c5.33-3.131,10.31-6.746,14.762-11.041c3.265-3.151,6.965-5.308,11.561-5.795c3.146-0.332,5.912-1.97,8.93-2.761
		c1.592,0.836,0.417,1.678-0.133,2.253c-2.554,2.672-4.124,5.927-5.702,9.189c-0.642,1.327-1.119,2.708-1.484,4.136
		c-1.575,6.154,1.249,11.638,7.185,13.937c0.821,0.318,1.69,0.493,2.505,0.832c1.765,0.729,14.107-5.231,12.878-3.786
		c-9.167,10.805-28.94,29.564-34.647,42.519c-3.592,8.155-4.729,16.96-5.4,25.739c-0.356,4.663,0.622,9.347,2.361,13.785
		c0.696,1.773,1.828,3.211,3.15,4.546c11.813,11.917,26.249,19.224,42.11,24.058c14.863,4.533,30.14,5.996,45.536,5.24
		c12.863-0.631,25.774-1.622,38.309-4.986c10.543-2.832,20.479-7.015,29.735-12.962c5.693-3.659,9.624-8.444,12.39-14.442
		c5.613-12.171,11.253-24.364,14.771-37.324c3.326-12.254,8.823-23.033,17.755-32.219c5.86-6.028,3.421-12.447-4.981-13.823
		c-3.928-0.643-7.52-1.645-10.927-3.752c-3.497-2.161-7.577-2.519-11.609-2.643c-4.59-0.142-9.181,0.129-13.767-0.532
		c-4.097-0.591-8.179,0.517-12.286,0.515c-9.199-0.005-18.399,0.124-27.593-0.035c-10.617-0.183-21.049,1.06-31.466,3.024
		c-12.485,2.354-25.257,3.152-37.51,6.774c-4.15,1.228-8.347,2.042-12.652,2.359c-0.389,0.029-0.778,0.129-1.169,0.095
		c-1.635-0.141-7.798,4.329-8.347,2.566c-0.521-1.678,5.596-6.451,6.766-7.16c9.975-6.047,17.277-14.855,24.835-23.479
		c6.31-7.202,12.178-14.815,19.179-21.404c0.734-0.692,1.296-1.871,2.659-1.161c1.097,2.124,2.85,2.937,5.226,3.096
		c9.314,0.629,18.491-0.759,27.708-1.625c9.14-0.858,18.272-1.883,27.431-2.458c9.816-0.615,19.657-1.049,29.491-1.071
		c7.395-0.016,14.81-0.182,22.215,0.583c6.41,0.663,12.886,0.419,19.335,0.747c10.932,0.558,21.857,0.902,32.658,2.889
		c1.434,0.262,2.921,0.224,4.382,0.326c2.842,0.469,3.319,1.148,1.552,3.392c-6.305,8.008-8.547,17.436-9.907,27.201
		c-0.515,3.69-0.475,7.386,0.135,11.086c0.421,2.555,1.499,4.828,3.603,6.157c5.431,3.437,11.038,7.272,17.778,6.385
		c12.574-1.656,23.954-5.934,32.416-16.247c5.473-6.67,10.212-13.824,15.167-20.844c1.575-2.234,3.603-4.125,4.855-6.597
		c0.255-0.502,0.702-0.966,1.42-0.72c2.431,0.402,4.284,2.238,6.799,2.587c2.156,0.299,4.227,0.5,6.383,0.049
		c4.2-0.877,7.74,0.782,9.923,4.509c0.049,0.083,0.113,0.165,0.143,0.256c3.23,10.199,11.524,16.223,19.041,22.803
		c10.311,9.027,21.171,17.338,33.373,23.73c16.065,8.416,31.984,17.131,48.64,24.35c7.896,3.422,16.313,3.643,24.713,2.724
		c4.003-0.438,7.169-2.951,10.118-5.6c3.202-2.873,6.478-5.668,9.618-8.605c1.353-1.267,2.624-1.458,4.22-0.629
		c9.526,4.947,19.002,9.942,27.773,16.218c6.682,4.78,13.313,9.571,18.928,15.615c10.084,10.855,17.594,23.366,23.888,36.708
		c2.909,6.167,4.98,12.493,5.907,19.239c0.977,7.111-0.651,14.011-1.526,20.962c-0.427,3.382-1.339,6.701-2.047,10.046
		c-1.272,6.007-4.045,11.204-8.576,15.378c-2.131,1.964-2.405,3.979-1.051,6.537c3.501,6.619,5.766,13.703,7.134,21.036
		c1.308,7.007-1.739,12.619-6.471,17.423c-9.979,10.13-21.595,17.981-34.223,24.432c-10.271,5.248-20.778,10.122-30.224,16.803
		c-4.664,3.3-9.248,6.887-11.288,12.696c-1.476,4.196-1.109,5.56,2.861,7.427c1.58,0.743,2.424,1.951,2.878,3.489
		c1.886,6.367,3.911,12.699,5.517,19.136c1.317,5.29-3.408,11.647-9.896,13.841c-1.757,0.595-3.561,1.085-5.377,1.441
		c-2.236,0.435-4.036,0.427-5.709-2.012c-2.443-3.564-6.618-4.156-10.743-4.258c-6.155-0.149-12.294,0.611-18.463,0.102
		c-11.681-0.97-23.374-1.757-35.06-2.648c-0.763-0.057-1.506-0.343-3.115-0.729c8.427-2.308,16.063-4.49,22.662-9.12
		c0.969-1.178,2.452-1.39,3.636-1.982C788.3,676.218,786.935,677.05,785.333,677.076z"/>
	<path fill-rule="evenodd" clip-rule="evenodd" fill="#CEB395" d="M844.773,240.828c-0.882,0.111-1.719,0.034-2.591-0.235
		c-9.959-3.046-20.103-5.446-30.297-7.442c-12.7-2.487-25.489-4.877-38.356-6.036c-10.559-0.949-21.134-2.264-31.803-2.21
		c-6.902,0.034-13.808-0.696-20.708-1.085c-2.497-2.214-4.707-4.683-6.743-7.325c-2.168-2.813-4.767-5.18-7.876-6.946
		c-1.297-0.739-2.574-0.884-3.807,0.149c-1.211,1.016-1.495,2.359-0.933,3.716c0.933,2.254,2.021,4.449,3.121,6.629
		c2.286,4.533,1.253,7.303-3.646,8.988c-3.699,1.272-7.58,1.866-11.436,2.5c-13.77,2.267-27.521,1.441-41.181-0.708
		c-13.898-2.189-27.82-2.481-41.812-1.737c-0.68,0.036-1.361,0.004-2.027,0.004c-0.062-0.258-0.198-0.485-0.134-0.606
		c6.573-12.43,5.259-25.185,1.328-37.929c-2.655-8.605-6.285-16.824-12.02-24.833c6.574,1.559,12.186,3.635,17.345,6.789
		c10.979,6.713,18.671,15.938,21.606,28.74c0.369,1.611,1.024,3.16,1.593,4.722c0.38,1.046,0.874,2.105,2.291,1.655
		c1.436-0.456,1.096-1.539,0.868-2.655c-4.829-23.715-20.068-37.161-42.85-42.594c-7.904-1.885-15.31-5.269-23.254-6.59
		c-0.089-0.754,0.284-1.087,0.629-1.428c8.589-8.47,11.045-19.058,10.526-30.646c-0.17-3.819-0.732-7.587-1.936-11.242
		c-0.438-1.335-0.988-2.43-2.677-1.856c-1.885,0.641-1.146,1.886-0.682,3.092c3.773,9.813,1.979,19.438-1.088,28.986
		c-0.992,3.089-3.336,4.414-6.548,4.367c-4.7-0.066-9.38,0.154-14.037,0.882c-3.939,0.614-7.623,1.726-10.604,4.549
		c-0.647,0.615-1.474,1.268-2.314,0.58c-0.782-0.638-0.021-1.455,0.237-2.13c2.56-6.7,6.12-12.521,12.482-16.486
		c4.635-2.887,8.827-6.482,13.642-9.136c1.011-0.558,1.865-1.185,1.189-2.529c-0.662-1.321-1.598-1.174-2.675-0.53
		c-7.395,4.42-14.705,8.922-20.973,14.96c-3.623,3.491-4.439,8.434-7.049,12.421c-0.532,0.813-0.896,1.736-1.335,2.608
		c-1.359,0.506-2.723,0.438-4.092,0.039c-0.82-0.369-0.545-0.814-0.142-1.345c6.112-8.061,10.962-16.871,15.167-26.033
		c1.777-3.873,4.61-7.011,6.743-10.562c3.028-5.036,7.599-5.901,12.553-7.232c13.318-3.58,26.07-8.891,38.983-13.682
		c4.295-1.593,7.086-5.136,9.552-8.824c0.997-1.491,2.204-2.208,3.893-2.765c25.047-8.284,51.079-9.206,77.062-10.04
		c13.484-0.433,26.993,0.301,40.217,3.579c7.332,1.818,14.017,4.94,19.876,9.705c4.255,3.458,8.574,6.819,13.115,9.887
		c1.501,1.013,1.546,1.675-0.012,2.7c-3.677,2.419-6.369,5.75-8.356,9.654c-0.563,1.102-1.48,2.371,0.092,3.335
		c1.658,1.017,2.202-0.466,2.845-1.533c4.674-7.76,11.242-12.026,20.474-13.411c12.557-1.882,25.052-4.218,37.689-5.512
		c12.668-1.299,25.202-3.274,37.502-6.565c6.039-1.617,11.989-3.572,17.979-5.375c0.723-0.372,1.246-0.365,1.239,0.652
		c-6.654,4.591-14.184,7.383-21.527,10.576c-17.827,7.744-34.593,17.237-49.6,29.748c-10.529,8.779-14.844,19.746-12.972,33.254
		c0.656,4.725,3.288,8.251,6.675,11.376c8.197,7.563,15.836,15.669,23.202,24.035c5.687,6.456,8.827,14.271,11.579,22.217
		c2.236,6.456,4.015,13.074,5.891,19.65C844.901,233.381,845.071,237.097,844.773,240.828z"/>
	<path fill-rule="evenodd" clip-rule="evenodd" fill="#CEB395" d="M686.019,269.756c8.136,0.125,16.15,1.644,24.292,1.783
		c3.928,0.067,7.874,1.434,11.734,2.382c4.763,1.17,6.308,5.432,7.036,9.888c0.855,5.253,0.021,10.554,0.458,15.822
		c0.313,3.814,1.563,7.238,3.698,10.377c1.421,2.096,3.055,2.276,5.547,1.54c8.707-2.571,17.245-4.317,25.771,1.57
		c10.854,7.495,23.076,12.87,33.565,20.99c5.724,4.431,11.388,8.944,17.086,13.405c3.068,2.401,5.234,5.198,4.971,9.418
		c-0.104,1.643,0.613,3.307,2.673,3.083c2.13-0.233,2.908-1.739,2.558-3.833c-0.231-1.371-0.707-2.636-1.47-3.801
		c-0.378-0.579-0.753-1.251-0.245-1.887c0.437-0.545,1.072-0.209,1.639-0.097c4.005,0.804,8.16,1.031,11.8,3.217
		c0.838,0.503,1.95,0.909,2.69-0.046c0.844-1.091,0.043-2.076-0.746-2.804c-0.627-0.578-1.422-1.136-2.232-1.333
		c-4.966-1.204-9.772-3.555-15.128-2.18c-1.11,0.287-2.108-0.243-2.934-1.019c-15.973-15.025-35.014-25.577-53.663-36.683
		c-2.168-1.29-3.033-2.734-2.633-5.225c0.593-3.673,1.109-7.344,2.528-10.826c0.488-1.195,1.513-2.825-0.351-3.515
		c-1.731-0.641-2.253,1.159-2.761,2.373c-1.479,3.538-2.428,7.231-2.775,11.053c-0.169,1.883-0.56,2.489-2.88,2.256
		c-4.554-0.454-9.138,0.449-13.668,1.194c-0.673,0.113-1.328,0.326-2.001,0.441c-4.757,0.816-5.297,0.482-6.826-4.325
		c-0.869-2.742-1.044-5.573-0.847-8.418c0.259-3.728,0.059-7.437-0.38-11.13c-0.484-4.093-1.841-7.843-5.182-10.518
		c-1.582-1.265-1.476-2.557-0.611-4.107c0.974-1.749,2.378-3.095,3.892-4.348c6.629-5.495,14.409-8.612,22.633-10.664
		c6.683-1.666,13.232,0.293,19.75,1.38c20.473,3.415,40.036,9.811,58.912,18.393c2.106,0.958,3.93,2.096,5.168,4.122
		c1.255,2.053,3.375,3.227,5.14,4.763c8.114,7.065,16.412,13.956,22.656,22.867c8.14,11.611,13.155,24.38,14.36,38.584
		c0.407,4.784-0.501,9.349-1.975,13.839c-3.663,11.156-8.108,22.023-12.274,32.994c-2.934,7.728-7.694,14.253-13.814,19.8
		c-5.352,4.852-10.674,9.732-16.021,14.59c-3.169,2.876-6.843,4.145-11.186,4.381c-9.063,0.489-17.395-1.654-25.452-5.628
		c-17.897-8.833-35.8-17.647-52.825-28.118c-11.566-7.115-21.631-16.138-31.646-25.183c-3.299-2.978-5.879-6.589-7.558-10.949
		c-2.761-7.164-7.709-9.622-15.307-8.419c-3.521,0.558-6.533-0.682-9.367-2.601c-8.098-5.491-16.393-10.716-25.144-15.048
		c-6.236-3.089-13.086-4.451-20.195-3.476c-1.618,0.22-2.946,1.004-4.336,1.7c-4.366,2.189-8.666,4.524-13.514,5.569
		c-1.028,0.222-1.921,0.506-2.52-0.64c-1.246-2.381-3.307-4.102-4.977-6.14c-1.962-2.398-2.221-4.804-0.618-7.563
		c3.041-5.236,7.538-8.695,13.029-10.905c5.713-2.299,11.513-4.378,17.263-6.588c1.088-0.417,2.238-0.841,3.135-1.548
		c1.317-1.038,2.635-2.369,1.52-4.236c-1.114-1.863-2.824-2.278-4.816-1.289c-4.555,2.261-9.112,4.524-13.678,6.765
		c-1.232,0.606-2.501,1.221-3.928,0.722c-0.932-0.326-1.953-0.749-2.174-1.79c-0.226-1.062,0.811-1.47,1.542-1.895
		c5.243-3.043,10.392-6.266,16.085-8.461c4.206-1.623,8.305-3.474,12.088-5.961c1.673-1.1,3.072-2.493,2.005-4.584
		c-1.04-2.033-2.979-1.369-4.692-0.9c-3.854,1.057-6.68,4.08-10.361,5.43c-1.417,0.52-3.13,2.347-4.457,0.446
		c-1.295-1.854,0.33-3.488,1.522-4.899c1.289-1.52,2.951-2.612,4.779-3.335C654.373,274.055,669.638,269.33,686.019,269.756z"/>
	<path fill-rule="evenodd" clip-rule="evenodd" fill="#6E0D0C" stroke="#000000" stroke-width="2" stroke-miterlimit="10" d="
		M405.852,388.533c8.898-2.078,17.685-4.751,26.781-5.743c9.859-1.075,19.526-3.235,29.344-4.546
		c15.393-2.056,30.843-0.312,46.223-1.21c8.794-0.515,17.52,0.234,26.276,0.123c5.896-0.076,11.451,1.171,16.23,4.786
		c2.425,1.833,5.321,0.663,7.881,1.61c1.356,0.504,2.766,0.77,4.021,1.605c4.88,3.243,5.55,8.295,1.68,12.677
		c-3.029,3.43-6.025,6.888-8.951,10.403c-4.422,5.314-6.411,11.824-8.243,18.257c-2.787,9.784-6.691,19.111-10.396,28.546
		c-2.463,6.272-5.554,12.197-8.556,18.191c-1.685,3.357-4.398,5.645-7.342,7.783c-12.242,8.9-26.122,14.17-40.798,16.795
		c-8.25,1.474-16.713,2.371-25.187,2.782c-5.558,0.27-11.12,0.608-16.659,0.396c-24.97-0.957-48.285-7.196-68.581-22.429
		c-3.416-2.565-6.699-5.402-9.486-8.685c-2.423-2.856-3.361-6.48-3.729-10.021c-1.672-16.059,2.34-30.935,10.453-44.676
		c4.351-7.372,8.818-14.709,14.049-21.531L405.852,388.533z"/>
	<path fill-rule="evenodd" clip-rule="evenodd" fill="#E22A2B" stroke="#000000" stroke-width="2" stroke-miterlimit="10" d="
		M405.076,380.191c2.553-2.807,13.674-13.107,16.113-16.017c4.44-5.293,9.169-10.333,13.558-15.68
		c2.685-3.268,5.648-6.399,9.089-8.969c-0.057-3.258,0.519-6.548-2.894-8.918c-4.095-2.842-8.373-5.309-13.347-5.486
		c-7.116-0.253-14.122,0.338-18.658,7.205c-1.25,1.889-3.131,3.182-5.425,3.754c-4.203,1.052-7.089,4.388-7.178,8.706
		c-0.082,3.955-2.751,6.126-5.396,8.17c-2.82,2.179-6.112,3.656-9.551,4.71c0.602,0.431,0.311,0.842-0.075,1.17
		c-3.404,2.891-8.369,13.711-8.286,18.015c-0.669,1.43,3.312,10.985,12.233,11.413C396.089,388.783,405.076,380.191,405.076,380.191
		z"/>
	<path fill-rule="evenodd" clip-rule="evenodd" fill="#CEB395" d="M725.115,228.478c1.813-0.625,3.657-0.445,5.509-0.25
		c1.354,0.143,2.758,0.511,4.066,0.303c6.082-0.966,12.057,0.188,18.055,0.75c6.5,0.608,13.029,0.702,19.517,1.597
		c18.218,2.51,36.403,5.078,54.344,9.27c4.921,1.15,9.627,3.021,14.613,3.869c1.108,0.19,2.358,0.413,2.973,1.634
		c-0.799,3.53-1.697,7.039-2.375,10.59c-0.985,5.155-4.55,9.035-6.585,13.669c-0.568,1.291-1.721,0.426-2.534-0.005
		c-11.32-5.98-23.419-9.938-35.745-13.065c-10.59-2.686-21.076-5.994-32.037-7.039c-1.902-0.18-3.681-0.772-5.102-2.033
		c-3.985-3.542-8.66-5.2-13.923-5.403c-8.024-0.312-16.054-0.444-24.047,0.372c-4.237,0.431-8.142,2.036-11.653,4.494
		c-6.492,4.542-12.73,9.447-19.65,13.363c-1.405,0.795-2.483,1.987-2.615,3.693c-0.143,1.871-1.219,2.146-2.814,2.037
		c-7.308-0.496-14.424,0.65-21.459,2.543c-5.573,1.5-11.189,2.839-16.767,4.318c-5.053,1.341-9.872,3.222-13.891,6.706
		c-2.881,2.5-4.813,5.44-3.878,9.502c0.316,1.378-0.472,2.207-1.31,3.058c-3.31,3.354-7.023,6.237-10.782,9.049
		c-2.081,1.559-3.426,3.379-3.716,6.015c-0.483,4.381-2.292,8.195-4.843,11.797c-4.075,5.755-3.604,10.08,1.217,15.26
		c0.913,0.982,2.096,1.763,2.727,3.704c-25.989-3.733-51.919-4.088-77.807-4.442c-25.894-0.353-51.691,2.009-77.832,5.563
		c0.465-0.776,0.554-1.132,0.731-1.185c7.292-2.202,11.002-8.446,15.5-13.776c0.989-1.171,1.912-2.234,3.535-2.302
		c11.813-0.488,17.876-11.755,18.632-20.144c0.183-2.037,0.758-3.763,1.762-5.482c1.775-3.046,3.403-6.159,3.813-9.764
		c0.526-4.612-1.648-8.358-3.843-12.067c-0.892-1.506-0.801-2.525-0.002-4.203c5.926-12.461,17.83-15.093,29.435-17.741
		c8.958-2.041,18.268-1.803,27.435-2.408c2.238-0.147,4.523-0.312,6.678-0.882c14.188-3.754,25.602,1.6,35.742,10.895
		c1.813,1.662,3.547,2.491,5.965,2.41c4.049-0.14,8.074-0.689,11.794-2.132c13.238-5.136,27.106-7.243,41.035-9.274
		c7.74-1.127,15.402-2.603,23.294-2.453c2.101,0.042,5.769,0.74,5.726-2.831c-0.038-3.165-3.521-3.135-5.747-3.239
		c-6.875-0.32-13.595,1.148-20.324,2.406c-7.3,1.367-14.358,4.494-21.749,4.556c-8.771,0.071-16.472,3.961-24.818,5.368
		c-5.397,0.909-10.247-0.085-14.265-3.624c-5.326-4.692-11.536-7.266-18.325-8.698c-1.854-0.391-3.484-1.244-5.211-1.909
		c-1.654-0.636-1.594-1.485-0.52-2.587c1.698-1.739,3.792-2.829,6.154-3.188c6.071-0.92,12.299-2.042,18.265-2.134
		c15.044-0.235,30.101-0.884,45.177,2.163c14.797,2.989,29.939,4.648,45.148,4.574c4.426-0.022,8.735-0.892,12.943-2.272
		c2.459-0.806,4.721-1.98,6.418-3.953c1.353-1.572,2.672-1.603,4.373-0.618c2.306,1.334,4.803,2.145,7.505,2.271
		C724.553,235.429,725.867,234.004,725.115,228.478z"/>
	<path fill-rule="evenodd" clip-rule="evenodd" fill="#F1B28F" d="M522.631,155.94c11.568-0.452,22.989,1.709,34.526,1.956
		c8.057,0.173,15.893,1.872,23.602,4.218c6.125,1.863,10.789,5.479,13.796,11.089c5.644,10.521,9.54,21.655,10.972,33.542
		c0.652,5.411-0.365,10.723-2.027,15.885c-1.478,4.583-5.048,6.527-9.507,7.133c-4.739,0.643-9.493,1.217-14.253,1.693
		c-1.789,0.179-3.409,0.624-5.012,1.447c-3.275,1.681-6.756,1.441-10.316,1.064c-7.285-0.769-14.583-1.246-21.509-4.024
		c-4.021-1.613-7.854-3.472-11.328-6.074c-3.322-2.49-5.629-2.405-8.631,0.351c-4.977,4.569-10.992,7.423-16.932,10.411
		c-1.291,0.649-2.741,0.712-4.014,0.259c-6.291-2.238-12.906-2.078-19.4-2.676c-8.58-0.792-11.839-3.204-14.079-11.5
		c-2.612-9.671-0.881-19.064,2.471-28.177c6.124-16.662,18.576-27.184,34.297-34.28C510.777,155.779,516.791,156.311,522.631,155.94
		z"/>
	<path fill-rule="evenodd" clip-rule="evenodd" fill="#CEB395" d="M422.79,321.344c-5.163,0.454-11.28,1.801-15.519,7.671
		c-2.236,3.099-5.985,3.879-9.414,5.02c-0.927,0.308-1.415-0.403-2.042-0.84c-4.533-3.155-5.34-7.619-4.661-12.717
		c0.78-5.859,3.505-10.838,6.263-15.966c6.677-12.419,16.826-21.982,25.807-32.51c2.544-2.984,5.638-5.417,8.539-8.043
		c10.097-9.147,33.722-10.539,46.068-1.491c7.127,5.225,13.201,11.309,17.399,19.156c1.237,2.312,0.582,9.863-1.146,11.534
		c-1.335,1.289-2.798,0.443-3.688-0.414c-5.496-5.291-12.526-8.776-17.347-14.851c-1.092-1.376-2.266-2.711-3.548-3.909
		c-1.547-1.445-3.413-2.302-5.147-0.412c-1.682,1.832-0.897,3.816,0.684,5.171c1.992,1.708,4.238,3.145,6.482,4.525
		c4.34,2.67,8.559,5.525,12.46,8.788c7.358,6.158,8.343,14.677,2.638,21.389c-4.652,5.472-11.468,5.788-16.479,0.766
		c-5.456-5.465-11.114-10.746-15.056-17.535c-1.017-1.749-2.583-3.121-4.862-1.653c-1.912,1.229-2.388,3.91-1.063,5.994
		c1.081,1.703,2.75,2.769,4.427,3.776c4.845,2.908,9.071,6.461,12.171,11.257c0.469,0.728,1.099,1.378,1.748,1.958
		c3.357,3.005,3.363,2.987,0.047,6.272c-2.429,2.404-4.675,5.014-7.735,6.692c-3.184,1.75-6.6,2.287-10.191,2.188
		c-1.363-0.038-2.102-0.786-2.903-1.684C440.524,324.521,433.414,321.331,422.79,321.344z"/>
	<path fill-rule="evenodd" clip-rule="evenodd" fill="#F1B28F" d="M799.584,146.173c0-8.663,3.549-16.298,10.447-22.662
		c12.309-11.354,26.686-19.421,41.554-26.724c6.49-3.187,13.191-5.943,19.771-8.952c1.652-0.756,2.313-0.609,2.035,1.413
		c-0.842,6.139-0.604,12.28-0.014,18.434c1.268,13.196-0.753,26.155-3.429,38.984c-1.535,7.359-6.101,13.275-11.055,18.767
		c-7.586,8.41-16.475,15.279-25.853,21.564c-1.458,0.978-2.254,0.799-3.389-0.535c-7.109-8.343-14.639-16.306-22.695-23.737
		C802.26,158.393,799.215,153.435,799.584,146.173z"/>
	<path fill-rule="evenodd" clip-rule="evenodd" fill="#F1B28F" d="M510.316,738.958c-3.615,0-7.234-0.039-10.851,0.01
		c-7.382,0.103-12.791-4.335-14.168-11.618c-0.198-1.044-0.55-2.094-1.034-3.038c-1.222-2.379-3.462-2.552-5.102-0.411
		c-0.589,0.771-1.094,1.637-1.477,2.529c-2.411,5.645-6.992,7.869-12.792,8.207c-7.116,0.418-14.023-0.737-20.808-2.782
		c-1.359-0.412-2.682-1.107-2.946-2.563c-0.228-1.248,1.083-1.862,1.985-2.258c11.946-5.219,19.616-15.289,27.857-24.65
		c3.24-3.681,6.784-5.165,11.636-4.411c3.061,0.476,6.24,0.193,9.366,0.245c15.048,0.252,30.132-0.828,45.141,0.63
		c9.66,0.939,18.934,3.902,28.088,7.055c3.249,1.118,3.479,2.214,1.838,5.313c-1.56,2.951-3.545,5.619-5.612,8.225
		c-1.879,2.367-3.012,4.994-3.168,8.041c-0.164,3.177-1.769,5.35-4.803,6.318c-6.528,2.083-13.149,3.633-20.045,4.005
		C525.722,738.219,518.061,739.391,510.316,738.958z"/>
	<path fill-rule="evenodd" clip-rule="evenodd" fill="#F1B28F" d="M761.754,745.901c-0.587,0-1.188-0.081-1.76,0.015
		c-6.493,1.099-10.37-1.826-12.588-7.793c-1.225-3.299-3.471-3.618-6.105-1.154c-1.713,1.604-3.435,3.223-4.955,5.004
		c-2.004,2.353-4.432,3.356-7.49,3.203c-7.325-0.365-14.654-0.648-21.981-0.977c-0.65-0.03-1.51,0.157-1.731-0.707
		c-0.212-0.82,0.614-1.126,1.104-1.563c5.968-5.356,12.253-10.359,17.726-16.256c3.208-3.455,6.088-7.15,8.492-11.206
		c1.593-2.682,3.861-4.601,6.952-4.89c13.524-1.259,27.049-3.124,40.644-0.668c7.242,1.307,14.229,3.564,21.26,5.649
		c2.385,0.708,4.778,1.159,7.229,0.782c2.653-0.405,4.126,0.272,4.82,3.177c0.762,3.196,3.271,5.721,3.934,9.1
		c1.005,5.145-0.783,9.334-5.524,11.683c-6.25,3.099-13.124,3.949-19.881,4.682c-10.001,1.085-20.083,1.435-30.13,2.099
		C761.763,746.022,761.759,745.964,761.754,745.901z"/>
	<path fill-rule="evenodd" clip-rule="evenodd" fill="#CEB395" d="M396.38,294.268c-1.125,1.665-2.063,3.089-3.036,4.489
		c-5.696,8.204-9.797,16.929-8.933,27.275c0.373,4.464,1.964,8.3,5.612,11.167c4.342,3.415,4.217,8.845-0.242,12.318
		c-0.915,0.712-1.955,1.33-3.03,1.759c-5.438,2.17-10.812,4.605-16.582,5.742c-4.308,0.849-7.801,2.92-10.953,5.833
		c-4.027,3.723-8.426,6.973-12.932,10.1c-2.318,1.607-4.61,1.808-7.206,0.969c-9.723-3.142-15.04-14.208-10.248-23.164
		c12.127-22.664,27.833-41.827,53-51.099c3.754-1.383,7.361-3.163,11.043-4.739C393.823,294.511,394.746,293.904,396.38,294.268z"/>
	<path fill-rule="evenodd" clip-rule="evenodd" fill="#E22A2B" stroke="#000000" stroke-width="2" stroke-miterlimit="10" d="
		M679.301,351.826c-5.144,7.306-10.09,14.763-15.484,21.878c-5.593,7.377-11.353,14.731-20.367,18.374
		c-4.14,1.674-8.274,3.306-12.771,3.945c-2.373,0.337-4.622,1.314-7.132,1.12c-6.125-0.473-11.264-3.385-16.259-6.538
		c-3.145-1.985-4.29-5.414-4.339-8.87c-0.184-12.975,1.782-25.422,9.976-36.12c1.06-1.384,2.206-2.873-0.642-3.605
		c7.362-0.299,14.211-2.249,20.414-6.301c4.783-3.122,9.927-2.266,15.029-1.236c5.12,1.032,9.88,3.009,14.24,5.925
		C667.721,344.244,674.053,347.212,679.301,351.826z"/>
	<path fill-rule="evenodd" clip-rule="evenodd" fill="#CEB395" d="M576.956,56.042c0.697,4.014,3.197,6.791,6.373,9.012
		c6.769,4.734,14.175,8.225,21.933,11.012c2.296,0.825,4.614,1.646,6.656,3.016c2.862,1.92,2.948,2.556,0.977,5.315
		c-1.985,2.781-4.558,4.961-7.727,6.082c-14.241,5.035-28.052,11.329-42.88,14.646c-3.925,0.878-8.5-2.414-9.813-7.268
		c-1.385-5.123-0.915-10.034,1.91-14.667c2.459-4.033,5.545-7.558,8.66-11.057c4.291-4.816,8.512-9.679,12.178-14.998
		C575.792,56.755,575.899,55.645,576.956,56.042z"/>
	<path fill-rule="evenodd" clip-rule="evenodd" fill="#CEB395" d="M750.761,689.608c15.664,2.043,32.02,2.259,48.28,3.782
		c5.653,0.53,11.341,0.375,17.009-0.063c2.563-0.196,5.061,0.135,7.561,0.67c1.769,0.376,2.35,1.168,1.505,2.87
		c-2.002,4.031-3.824,8.158-5.992,12.097c-1.39,2.525-3.4,3.378-6.751,3.179c-8.452-0.5-16.225-3.484-24.281-5.412
		c-11.252-2.693-22.641-3.311-34.078-1.896c-5.348,0.662-10.779,0.039-16.055,1.363c-1.539,0.386-1.879-0.659-1.931-1.844
		c-0.148-3.229-0.074-6.459,0.43-9.657c0.368-2.328,2.003-3.473,4.109-4.1C743.717,689.658,746.979,690.098,750.761,689.608z"/>
	<path fill-rule="evenodd" clip-rule="evenodd" fill="#CEB395" d="M505.98,694.513c-8.208,0-16.417,0.008-24.627-0.012
		c-0.862-0.001-1.875,0.046-2.33-0.882c-0.488-0.994,0.415-1.585,0.908-2.279c3.588-5.028,7.911-9.421,12.025-13.994
		c2.031-2.256,4.35-1.719,6.751-1.049c5.926,1.648,11.847,3.319,17.771,4.969c13.568,3.774,27.42,6.194,41.259,8.666
		c6.006,1.073,11.694,3.104,17.33,5.353c1.49,0.598,2.074,0.974,0.668,2.529c-5.529,6.13-5.537,6.352-13.161,3.395
		c-13.609-5.281-27.715-7.321-42.227-7.129c-4.789,0.064-9.579,0.01-14.368,0.01C505.98,694.229,505.98,694.372,505.98,694.513z"/>
	<path fill-rule="evenodd" clip-rule="evenodd" fill="#F8D2D0" d="M978.138,515.624c0,3.616,0.015,7.232-0.013,10.847
		c-0.007,0.621,0.179,1.539-0.843,1.537c-0.699,0-0.823-0.715-0.978-1.282c-0.817-3.019-1.597-6.047-2.47-9.048
		c-0.734-2.532-1.766-2.749-3.608-0.839c-0.813,0.844-1.597,1.719-2.42,2.557c-2.894,2.945-5.511,2.842-8.092-0.482
		c-2.608-3.365-3.999-7.37-5.56-11.274c-1.399-3.489-2.346-3.696-4.736-0.896c-1.096,1.281-2.28,2.432-3.718,3.287
		c-2.827,1.686-5.453,1.366-8.025-1.066c-4.081-3.856-5.666-9.084-7.359-14.17c-0.711-2.141,4.218-9.916,6.367-10.747
		c1.705-0.659,2.825,0.209,3.733,1.491c1.764,2.5,2.872,5.321,4.009,8.138c1.268,3.133,2.105,3.261,4.48,0.81
		c6.188-6.383,9.494-5.663,12.23,2.763c0.784,2.408,1.284,4.91,1.867,7.38c0.505,2.149,1.34,3.02,3.684,1.774
		c7.899-4.193,10.501-2.723,11.543,6.299c0.11,0.971,0.169,1.945,0.253,2.919C978.369,515.62,978.254,515.622,978.138,515.624z"/>
	<path fill-rule="evenodd" clip-rule="evenodd" fill="#F1B28F" d="M517.054,251.4c-2.769,0.27-3.943-0.834-4.745-2.408
		c-1.418-2.784-2.716-5.629-4.165-8.395c-0.782-1.494-0.083-2.144,1.153-2.686c6.026-2.642,11.697-5.857,16.586-10.328
		c1.17-1.07,2.363-0.779,3.446,0.083c6.754,5.367,14.915,7.684,22.939,9.963c4.11,1.167,8.725,0.54,13.106,0.791
		c1.175,0.067,2.788-0.474,3.212,1.24c0.372,1.524-0.327,2.875-1.445,3.947c-0.952,0.915-2.175,1.186-3.433,1.49
		c-8.026,1.936-16.242,2.049-24.408,2.701c-7.195,0.573-14.396,1.198-21.33,3.445C517.423,251.423,516.821,251.437,517.054,251.4z"
		/>
	<path fill-rule="evenodd" clip-rule="evenodd" fill="#E22A2B" d="M734.722,246.107c4.104,0,8.208,0.033,12.31-0.015
		c1.901-0.022,3.666,0.429,5.407,1.114c0.907,0.357,1.995,0.534,1.86,1.854c-0.116,1.159-1.107,1.153-1.967,1.354
		c-8.287,1.919-15.792,5.538-22.809,10.308c-2.599,1.764-4.496,3.912-5.798,6.775c-1.523,3.348-2.57,3.634-5.983,2.133
		c-4.784-2.104-9.985-1.477-14.964-2.308c-3.169-0.53-6.375-0.838-9.567-1.226c-0.826-0.101-1.585-0.286-1.692-1.27
		c-0.088-0.798,0.471-1.209,1.102-1.557c7.724-4.241,14.49-9.907,21.827-14.725c2.282-1.5,4.646-2.425,7.38-2.415
		c4.297,0.015,8.597,0.005,12.895,0.005C734.722,246.125,734.722,246.115,734.722,246.107z"/>
	<path fill-rule="evenodd" clip-rule="evenodd" fill="#E22A2B" d="M476.842,257.675c5.511-6.381,12.882-8.052,20.24-9.646
		c2.746-0.596,5.456-1.542,8.356-1.303c1.638,0.134,4.526,3.131,4.966,5.39c0.418,2.15-1.38,2.609-2.72,3.237
		c-5.74,2.695-10.497,6.32-13.065,12.407c-0.929,2.202-2.544,2.328-4.45,0.542C486.031,264.423,481.74,260.745,476.842,257.675z"/>
	<path fill-rule="evenodd" clip-rule="evenodd" fill="#BCA098" d="M880.624,78.923c-0.232-0.561-0.775-0.531-1.239-0.652
		c1.114-0.932,2.351-1.551,4.126-1.713C882.867,78.091,881.813,78.587,880.624,78.923z"/>
	<path fill-rule="evenodd" clip-rule="evenodd" fill="#C2A69E" d="M534.153,152.291c1.364-0.013,2.728-0.026,4.092-0.039
		C536.894,153.618,535.522,152.724,534.153,152.291z"/>
	<path fill-rule="evenodd" clip-rule="evenodd" fill="#C8AAA4" d="M576.956,56.042c-0.578,0.365-1.154,0.729-1.732,1.093
		C575.422,56.171,575.604,55.178,576.956,56.042z"/>
	<path fill-rule="evenodd" clip-rule="evenodd" fill="#6093A7" d="M652.207,435.446c-0.196,0.299-0.302,0.659-0.493,0.713
		c-0.494,0.134-0.681-0.266-0.631-0.662c0.027-0.205,0.304-0.505,0.494-0.526C651.752,434.952,651.962,435.249,652.207,435.446z"/>
	<path fill-rule="evenodd" clip-rule="evenodd" d="M658.118,173.472c-0.651-1.491-2.006-1.833-2.919-2.679
		c-2.285-2.125-2.132-3.821,0.611-5.233c2.119-1.092,4.432-1.619,6.798-1.607c13.439,0.066,26.546,1.782,38.597,8.277
		c2.182,1.176,2.024-0.258,2.089-1.556c0.365-7.267-1.461-14.197-3.666-20.98c-2.551-7.847-6.345-15.141-11.161-21.873
		c-0.831-1.159-2.21-2.27-1.16-3.875c1.174-1.799,2.845-1.246,4.457-0.597c0.236,0.096,0.546,0.013,0.834,0.013
		c0.089-1.055-0.551-1.738-1.101-2.365c-6.274-7.118-10.171-15.747-15.132-23.7c-0.669-1.074-1.526-2.411-0.089-3.368
		c1.586-1.055,2.225,0.535,2.876,1.555c5.258,8.242,10.053,16.763,15.745,24.749c7.315,10.265,16.211,19.053,24.944,28.024
		c1.156,1.188,3.695,2.49,1.688,4.464c-1.925,1.893-3.059-0.701-4.137-1.781c-6.688-6.709-13.306-13.489-19.46-20.854
		c-1.982,1.988-1.933,3.713-0.573,5.992c8.229,13.783,10.217,28.925,9.366,44.641c-0.133,2.437-1.689,3.634-3.791,4.298
		c-4.68,1.481-9.402,1.473-14.204,0.54c-7.498-1.457-14.836-3.505-22.134-5.712c-4.031-1.218-8.074-2.35-12.258-2.931
		c-1.154-0.16-2.294-0.51-3.399-0.893c-7.858-2.712-10.125-6.937-7.996-14.917c0.938-3.511,2.449-6.8,3.941-10.103
		c2.978-6.595,6.036-13.163,8.754-19.867c2.192-5.415,6.311-8.8,10.983-11.797c1.11-0.712,1.827-0.26,2.486,0.595
		c0.723,0.932,0.271,1.646-0.504,2.238c-0.931,0.712-1.857,1.442-2.844,2.071c-2.897,1.845-5.038,4.361-6.42,7.462
		c-3.98,8.935-8.049,17.834-11.771,26.876c-3.736,9.074-2.195,11.934,7.262,14.686C655.813,173.547,656.82,174.12,658.118,173.472z"
		/>
	<path fill-rule="evenodd" clip-rule="evenodd" fill="#6E0D0C" d="M383.863,369.478c0.018-5.19,3.653-8.779,8.885-8.766
		c5.093,0.01,8.79,3.804,8.728,8.952c-0.056,4.513-4.403,8.718-8.955,8.662C387.813,378.265,383.846,374.214,383.863,369.478z"/>
	<path fill-rule="evenodd" clip-rule="evenodd" d="M518.304,200.879c-0.061,3.356-3.668,5.825-7.185,5.342
		c-6.851-0.941-16.119-9.694-17.317-16.43c-0.395-2.22,0.261-4.134,2.357-5.22c2.108-1.091,4.16-1.082,5.823,0.915
		c3.612,4.336,8.089,7.642,12.721,10.777C516.5,197.479,518.159,198.875,518.304,200.879z"/>
	<path fill-rule="evenodd" clip-rule="evenodd" d="M562.352,193.894c-0.182,6.102-8.95,12.805-14.925,11.409
		c-6.229-1.457-6.932-3.572-2.723-8.528c2.951-3.474,6.972-5.63,10.777-7.899C558.886,186.845,562.477,189.702,562.352,193.894z"/>
	<path fill-rule="evenodd" clip-rule="evenodd" fill="#6E0D0C" d="M616.369,369.298c0.003-8.236,5.291-13.292,13.9-13.286
		c8.138,0.005,12.719,5.377,13.247,14.067c0.376,6.211-6.72,13.495-13.867,13.053C621.8,382.646,616.367,377.426,616.369,369.298z"
		/>
</g>
</svg>
