<?xml version="1.0" encoding="utf-8"?>
<!-- Generator: Adobe Illustrator 16.0.0, SVG Export Plug-In . SVG Version: 6.00 Build 0)  -->
<!DOCTYPE svg PUBLIC "-//W3C//DTD SVG 1.1//EN" "http://www.w3.org/Graphics/SVG/1.1/DTD/svg11.dtd">
<svg version="1.1" id="Layer_1" xmlns="http://www.w3.org/2000/svg" xmlns:xlink="http://www.w3.org/1999/xlink" x="0px" y="0px"
	 width="1280px" height="800px" viewBox="0 0 1280 800" enable-background="new 0 0 1280 800" xml:space="preserve">
<path fill="#FF1D25" d="M1031.718,539.539c0.647,10.347-7.212,19.257-17.557,19.905l-708.014,44.388
	c-10.344,0.647-19.257-7.21-19.904-17.557l-22.781-363.371c-0.649-10.345,7.211-19.257,17.556-19.905l708.014-44.388
	c10.344-0.648,19.257,7.211,19.904,17.557L1031.718,539.539z"/>
<g>
	<path fill="#FFFFFF" d="M270.195,573.312c-0.908-6.539-1.499-14.76-1.777-24.675c-0.281-9.907-0.194-20.187,0.253-30.831
		c0.445-10.648,1.104-20.893,1.975-30.75c0.867-9.851,1.999-17.991,3.389-24.416c5.003-1.914,9.016-6.283,12.037-13.093
		c3.018-6.808,5.387-15.193,7.108-25.158c1.716-9.961,3.223-20.323,4.522-31.089c1.481-11.364,2.633-22.366,3.466-32.994
		c0.829-10.629,0.7-19.677-0.388-27.154c-1.093-7.476-3.972-12.096-8.638-13.878c-1.104-5.621-1.731-13.222-1.869-22.82
		c-0.143-9.586,0.092-19.859,0.712-30.81c0.613-10.943,1.557-21.566,2.834-31.866c1.272-10.295,2.857-19.109,4.755-26.437
		c6.213,1.543,13.887,3.081,23.017,4.613c9.132,1.536,21.349,2.674,36.656,3.429c10.407,0.512,21.739,0.221,33.99-0.88
		c12.253-1.092,24.845-2.095,37.779-3.009c12.932-0.907,25.521-1.064,37.767-0.46c10.407,0.513,18.417,5.316,24.031,14.404
		c5.612,9.089,9.599,20.81,11.964,35.146c2.36,14.343,3.6,29.71,3.712,46.103c0.114,16.402-0.253,32.386-1.095,47.956
		c-0.847,15.576-1.548,29.073-2.109,40.481c-0.896,18.207-0.767,32.664,0.396,43.389c1.159,10.725,3.023,18.783,5.599,24.165
		c2.572,5.387,5.407,9.391,8.5,12.015c0.75,6.532,1.075,14.742,0.974,24.632c-0.106,9.896-0.457,20.153-1.056,30.794
		c-0.603,10.64-1.528,20.878-2.778,30.709c-1.254,9.837-2.65,17.96-4.193,24.38c-6.217-1.548-13.68-3.458-22.388-5.744
		c-8.712-2.283-19.264-3.73-31.661-4.343c-12.708-0.626-24.728-0.288-36.069,1.008c-11.341,1.3-20.182,2.405-26.517,3.333
		c-0.294-6.508-0.426-14.705-0.399-24.604c0.027-9.893,0.223-20.165,0.597-30.815c0.37-10.651,0.875-20.902,1.516-30.771
		c0.635-9.862,1.347-18.024,2.125-24.479l6.428,0.315l1.14-23.136l-19.975-0.982l-1.14,23.135l6.43,0.316
		c0.29,6.509,0.311,14.706,0.055,24.586c-0.258,9.889-0.726,20.143-1.401,30.778c-0.678,10.635-1.488,20.878-2.433,30.724
		c-0.946,9.855-2.037,17.992-3.275,24.426c-4.086-1.13-8.439-2.354-13.054-3.661c-4.617-1.313-10-2.577-16.152-3.81
		c-6.153-1.229-13.748-2.068-22.777-2.512c-14.234-0.703-26.523-0.458-36.86,0.736C285.58,570.894,277.005,572.096,270.195,573.312z
		 M391.485,377.046l16.531,0.814l1.071-21.75l-16.531-0.813L391.485,377.046z"/>
	<path fill="#FFFFFF" d="M582.262,493.222c-2.666,0.159-5.12-0.15-7.365-0.926c-2.244-0.772-4.213-2.932-5.908-6.473
		c-1.696-3.54-3.071-9.328-4.129-17.373c-1.059-8.039-1.73-19.159-2.013-33.349l-3.826-63.429l-2.714,0.164l3.991,66.15
		c0.391,4.896,0.849,10.702,1.374,17.403c0.523,6.712,0.982,13.153,1.379,19.318c0.396,6.171,0.598,10.891,0.605,14.169
		c-3.385,0.931-6.334,1.75-8.846,2.45c-2.514,0.697-4.961,1.117-7.341,1.262c-2.285,0.134-4.646,0.006-7.082-0.393
		c-2.437-0.401-5.283-1.049-8.538-1.944c-0.895-13.239-1.513-25.866-1.854-37.87c-0.343-11.999-0.677-24.456-1.001-37.37
		c-0.325-12.911-0.869-27.268-1.63-43.068l-4.735,1.104c-0.763-8.696-1.475-17.713-2.133-27.058
		c-0.66-9.337-1.188-18.096-1.585-26.267c-0.398-8.175-0.631-14.808-0.698-19.904c2.054-1.58,4.717-2.744,7.994-3.488
		c3.274-0.744,6.933-1.283,10.973-1.619c4.04-0.332,8.279-0.542,12.718-0.631c4.436-0.084,8.884-0.215,13.34-0.393
		c4.456-0.175,8.701-0.479,12.736-0.906c4.035-0.42,7.667-1.186,10.896-2.296c0.376,3.076,0.807,7.832,1.291,14.266
		c0.483,6.441,0.953,13.424,1.407,20.954c0.454,7.532,0.848,14.66,1.182,21.376c0.334,6.719,0.497,11.99,0.488,15.816l-3.284,0.2
		c0.218,8.367,0.656,17.991,1.313,28.883c0.417,6.896,0.96,11.964,1.633,15.203c0.673,3.238,1.382,5.472,2.125,6.699
		c0.743,1.231,1.451,2.282,2.125,3.148c0.746,5.243,1.395,11.853,1.948,19.832c0.554,7.981,0.975,15.97,1.268,23.965
		c0.292,8.003,0.374,14.914,0.248,20.75c-1.465,2.644-3.582,5.178-6.347,7.626C589.5,491.643,586.164,492.986,582.262,493.222z"/>
	<path fill="#FFFFFF" d="M634.063,493.099c-21.752,1.314-34.664-31.786-38.738-99.299c-2.222-36.842-1.104-64.05,3.354-81.623
		c4.457-17.573,12.184-26.693,23.178-27.357c11.661-0.704,20.659,7.274,26.99,23.921c6.329,16.653,10.491,41.491,12.486,74.519
		c2.241,37.208,1.079,64.647-3.491,82.315C653.27,483.242,645.344,492.421,634.063,493.099z M627.321,403.892l3.854-0.234
		l-1.79-29.674l-3.854,0.231L627.321,403.892z"/>
	<path fill="#FFFFFF" d="M716.601,488.122c-3.998,0.24-7.204-1.616-9.615-5.566c-2.413-3.953-4.267-9.718-5.56-17.289
		c-1.292-7.572-2.254-16.62-2.891-27.146c-0.361-5.992-0.547-11.854-0.56-17.591c-0.012-5.74,0.044-11.16,0.164-16.268l-2.218-2.326
		c-0.217,7.485-0.257,15.138-0.119,22.959c0.137,7.825,0.621,16.218,1.448,25.188c0.827,8.966,2.135,18.77,3.924,29.406
		c-2.103,1.583-4.7,2.881-7.791,3.885c-3.095,1.007-6.328,1.612-9.708,1.816c-3.095,0.186-6.115,0.003-9.062-0.548
		c-2.949-0.551-5.483-1.401-7.605-2.543c-0.666-11.8-1.237-23.874-1.722-36.237c-0.484-12.357-0.741-24.18-0.778-35.473
		c-0.037-11.29,0.271-21.467,0.918-30.52c0.647-9.056,1.756-16.225,3.325-21.513c1.566-5.285,3.684-8.007,6.349-8.167
		c0.952-0.061,1.913,0.205,2.879,0.782c0.968,0.583,1.932,1.754,2.899,3.514l0.447-6.857c-2.442-4.042-5.265-6.059-8.464-6.051
		c-3.202,0.017-7.106,0.978-11.72,2.896c-0.758-5.417-1.486-11.748-2.186-18.994c-0.698-7.241-1.279-14.676-1.738-22.301
		c-0.462-7.618-0.743-14.663-0.847-21.122c-0.103-6.456,0.046-11.52,0.446-15.19c3.034-2.731,5.938-4.91,8.707-6.537
		c2.769-1.622,5.716-2.846,8.843-3.675c3.128-0.823,6.69-1.359,10.688-1.599c5.235-0.319,9.971,2.176,14.209,7.472
		c4.237,5.304,7.971,14.506,11.194,27.605c3.229,13.105,5.871,31.159,7.927,54.167c2.035,22.648,3.865,38.931,5.491,48.848
		c1.625,9.923,3.411,15.19,5.359,15.796c0.973,7.415,1.787,16.561,2.442,27.448c0.406,6.718,0.704,13.396,0.889,20.031
		c0.185,6.641,0.229,12.327,0.132,17.066c-1.245,3.902-3.217,7.25-5.912,10.06C724.089,486.349,720.693,487.876,716.601,488.122z"/>
	<path fill="#FFFFFF" d="M756.641,485.434c-7.191,0.436-13.123-8.456-17.806-26.655c-4.68-18.206-8.012-43.732-9.992-76.584
		c-1.282-21.233-1.436-39.625-0.462-55.166c0.972-15.538,3.027-27.596,6.165-36.161c3.14-8.568,7.349-13.016,12.632-13.331
		c4.143-0.251,7.695,1.854,10.666,6.323c2.968,4.466,5.437,10.147,7.404,17.036c1.968,6.897,3.476,13.865,4.521,20.904
		c-0.019-3.455-0.322-7.717-0.913-12.784c-0.593-5.062-1.301-9.849-2.122-14.354c-0.82-4.499-1.601-7.733-2.34-9.695
		c1.325-0.989,3.094-1.777,5.304-2.368c2.211-0.584,4.576-0.958,7.101-1.112c2.52-0.15,4.89-0.064,7.108,0.254
		c2.216,0.324,3.947,0.904,5.19,1.736c1.266,8.304,2.308,19.258,3.13,32.873c0.634,10.526,1.022,21.112,1.163,31.762
		c0.143,10.644,0.063,20.26-0.229,28.837c0.524,8.712,1.147,15.095,1.87,19.147c0.722,4.054,1.462,6.79,2.216,8.201
		c0.754,1.416,1.469,2.553,2.141,3.423c0.747,5.241,1.396,11.85,1.949,19.824c0.553,7.987,0.976,15.976,1.265,23.972
		c0.292,7.999,0.375,14.916,0.251,20.753c-1.466,2.633-3.418,5.12-5.856,7.451c-2.438,2.333-5.254,3.599-8.443,3.788
		c-3.616,0.222-6.549-1.243-8.791-4.388c-2.245-3.143-3.629-9.07-4.152-17.777c-0.188-3.089-0.231-6.364-0.13-9.833
		c0.103-3.461,0.246-7.207,0.435-11.226l-2.069-3.428c-0.375,8.041-1.095,15.732-2.154,23.08
		c-1.064,7.352-2.776,13.373-5.146,18.069C764.178,482.701,760.874,485.177,756.641,485.434z M760.92,393.644l3.854-0.229
		l-1.526-25.32l-3.855,0.233L760.92,393.644z"/>
	<path fill="#FFFFFF" d="M834.518,480.465c-4.189,0.248-8.338-1.595-12.445-5.535c-4.107-3.941-7.587-10.563-10.44-19.86
		c-1.909-6.261-3.396-12.911-4.465-19.952c-1.069-7.04-1.941-15.136-2.611-24.297c-0.673-9.155-1.376-19.813-2.108-31.975
		c-0.536-8.891-1.267-15.813-2.185-20.769c-0.919-4.955-2.075-7.479-3.467-7.58c-0.8-6.139-1.503-13.202-2.102-21.181
		c-0.603-7.98-1.068-15.923-1.401-23.827c-0.334-7.902-0.481-14.677-0.438-20.327c1.45-2.088,3.354-4.165,5.714-6.216
		c2.361-2.056,5.065-3.177,8.112-3.361c4.188-0.251,7.932,3.031,11.235,9.843c3.3,6.814,5.995,15.852,8.083,27.108
		c2.088,11.258,3.358,23.43,3.815,36.517l1.987,32.941l2.57-0.156l-1.988-32.94c-1.022-13.779-2.183-24.731-3.486-32.852
		c-1.302-8.117-2.757-15.221-4.366-21.32c0.947-4.061,2.42-7.386,4.414-9.967c1.995-2.577,4.275-4.534,6.849-5.877
		c2.566-1.338,5.188-2.086,7.854-2.249c4.427-0.266,8.335,0.772,11.725,3.119c2.584,17.511,4.617,38.519,6.095,63.019
		c1.555,25.774,2.108,47.414,1.659,64.927c-0.45,17.517-1.836,31.532-4.163,42.055c-2.328,10.522-5.543,18.189-9.65,22.987
		C845.208,477.538,840.275,480.116,834.518,480.465z"/>
	<path fill="#FFFFFF" d="M905.876,476.703c-11.947,0.721-21.245-7.282-27.891-24c-6.646-16.716-10.975-41.777-12.989-75.171
		c-1.107-18.331-1.305-34.119-0.6-47.371c0.706-13.246,2.129-24.076,4.272-32.496c2.145-8.418,4.813-14.678,8.004-18.789
		c3.191-4.107,6.714-6.28,10.57-6.513c3.95-0.238,7.466,0.054,10.55,0.865c3.082,0.817,5.973,1.602,8.67,2.346
		c2.696,0.752,5.412,0.861,8.152,0.33c2.739-0.529,5.762-2.261,9.073-5.193c0.936,5.23,1.775,11.779,2.511,19.658
		c0.738,7.878,1.343,15.9,1.812,24.071c0.468,8.168,0.816,15.521,1.044,22.068c0.228,6.543,0.305,11.184,0.23,13.917
		c-1.271,4.27-3.155,5.888-5.656,4.848c-2.496-1.028-5.255-3.186-8.271-6.464l-0.183,7.661c0.402,0.341,0.757,0.684,1.063,1.027
		c0.31,0.35,0.563,0.607,0.765,0.775c3.493,3.253,6.342,6.95,8.552,11.094c2.21,4.151,3.933,9.193,5.176,15.126
		c1.241,5.938,2.126,13.261,2.651,21.973c0.912,14.335,0.425,26.659-1.46,36.975c-1.885,10.313-5.033,18.332-9.44,24.064
		C918.075,473.237,912.539,476.303,905.876,476.703z M896.956,387.079l3.857-0.232l-1.726-28.588l-3.854,0.234L896.956,387.079z"/>
	<path fill="#FFFFFF" d="M975.213,501.213c-0.596-9.078-1.073-17.791-1.434-26.146c-0.36-8.36-0.721-17.486-1.077-27.395
		c-0.36-9.901-0.837-21.761-1.43-35.57l-2.48-41.106l-2.714,0.163l2.545,42.198c0.391,4.894,0.825,10.701,1.3,17.408
		c0.479,6.712,0.892,13.157,1.238,19.322c0.349,6.175,0.526,10.897,0.532,14.177c-3.336,0.927-6.247,1.743-8.737,2.439
		c-2.489,0.696-4.866,1.114-7.126,1.251c-2.261,0.134-4.636,0.004-7.119-0.389c-2.483-0.4-5.378-1.046-8.678-1.937
		c-0.94-13.969-1.535-26.639-1.792-38.01c-0.256-11.364-0.425-21.921-0.512-31.662c-0.086-9.735-0.404-19.145-0.952-28.22
		c-0.392-6.535-0.91-11.556-1.553-15.071c-0.645-3.514-1.288-5.933-1.943-7.259c-0.652-1.328-1.189-1.882-1.605-1.678
		c-0.709-5.423-1.349-12.076-1.92-19.967c-0.573-7.89-1.007-15.874-1.304-23.965c-0.297-8.085-0.378-14.958-0.241-20.612
		c1.133-2.619,2.894-5.094,5.286-7.425c2.391-2.33,5.251-3.594,8.585-3.796c3.521-0.212,6.393,1.254,8.611,4.397
		c2.221,3.144,3.594,9.072,4.119,17.785c0.188,3.087,0.229,6.362,0.128,9.828c-0.102,3.469-0.245,7.213-0.433,11.23l2.069,3.427
		c0.459-8.227,1.365-15.973,2.717-23.253c1.354-7.273,3.406-13.227,6.161-17.858c2.754-4.625,6.439-7.083,11.056-7.36
		c3.761-0.228,6.974,1.947,9.64,6.522c2.664,4.578,4.851,12.732,6.562,24.467c0.735,5.056,1.529,12.249,2.378,21.577
		c0.85,9.334,1.723,20.074,2.625,32.219c0.898,12.151,1.781,24.987,2.645,38.5c0.861,13.52,1.674,26.998,2.438,40.428
		c0.762,13.437,1.422,26.143,1.979,38.133c0.556,11.986,0.959,22.437,1.21,31.35c-0.671,0.762-1.748,1.511-3.232,2.242
		c-1.486,0.725-3.229,1.286-5.238,1.681c-2.006,0.394-4.104,0.658-6.294,0.79c-3.047,0.184-6.027,0.043-8.944-0.42
		C979.356,503.188,977.002,502.374,975.213,501.213z"/>
</g>
<g>
	<path fill="#FFFFFF" d="M770.458,218.6c-0.203-0.429-0.383-0.975-0.54-1.641c-0.159-0.665-0.271-1.36-0.338-2.085
		c-0.067-0.725-0.102-1.426-0.101-2.104c-0.001-0.677,0.056-1.242,0.169-1.695c0.326-0.152,0.636-0.394,0.928-0.724
		c0.291-0.33,0.516-0.845,0.673-1.545c0.156-0.699,0.187-1.671,0.09-2.912c-0.105-1.346-0.306-2.352-0.601-3.017
		c-0.296-0.664-0.615-1.105-0.96-1.322c-0.346-0.217-0.645-0.313-0.896-0.294c-0.219-0.364-0.396-0.868-0.531-1.514
		c-0.135-0.646-0.227-1.344-0.273-2.092c-0.049-0.747-0.048-1.477,0.003-2.189c0.05-0.714,0.16-1.33,0.332-1.852
		c0.338-0.005,0.892-0.022,1.662-0.052c0.771-0.027,1.667-0.066,2.69-0.114c1.022-0.048,2.092-0.104,3.209-0.171
		c1.116-0.066,2.216-0.136,3.301-0.21c1.084-0.074,2.057-0.146,2.92-0.213c2.209-0.172,4.662-0.396,7.361-0.67
		c2.697-0.274,5.379-0.568,8.043-0.882c0.136,0.391,0.275,0.962,0.42,1.713c0.143,0.751,0.271,1.588,0.386,2.509
		c0.114,0.924,0.208,1.858,0.282,2.805s0.11,1.817,0.109,2.611c-0.002,0.793-0.048,1.416-0.141,1.868
		c-0.979,0.203-2.065,0.372-3.262,0.508c-1.195,0.137-2.41,0.231-3.645,0.285c-1.233,0.054-2.403,0.061-3.507,0.02
		c-0.33-0.969-0.406-1.946-0.229-2.935l-3.661,0.286l0.104,1.325l2.935-0.229l0.343,4.386l-2.967,0.231l0.106,1.357l3.692-0.289
		c-0.33-0.969-0.407-1.957-0.231-2.967c1.759-0.243,3.563-0.436,5.415-0.581c1.851-0.145,3.579-0.228,5.187-0.246
		c0.094,0.374,0.192,0.974,0.3,1.802c0.106,0.829,0.201,1.763,0.282,2.804c0.082,1.041,0.147,2.089,0.198,3.144
		s0.077,1.994,0.077,2.819c0.001,0.826-0.037,1.421-0.114,1.787c-2.212,0.13-4.617,0.229-7.215,0.294
		c-2.599,0.065-5.14,0.194-7.622,0.389c-1.346,0.105-2.76,0.231-4.24,0.378c-1.48,0.148-2.908,0.302-4.282,0.462
		c-1.373,0.16-2.579,0.307-3.616,0.441C771.666,218.415,770.917,218.521,770.458,218.6z"/>
	<path fill="#FFFFFF" d="M819.69,215.23c-2.987,0.233-5.24,0.044-6.759-0.566c-1.52-0.612-2.372-1.842-2.559-3.689
		c-0.213,0.799-0.245,1.532-0.098,2.197c0.146,0.667,0.361,1.316,0.645,1.95c-2.247,0.238-4.114,0.453-5.602,0.645
		c-1.488,0.189-2.843,0.322-4.064,0.396c-0.447-1.659-0.751-3.313-0.912-4.962c-0.16-1.648-0.176-3.409-0.047-5.281
		c1.157-0.091,2.323-0.065,3.498,0.075c1.176,0.142,2.294,0.377,3.357,0.707c1.063,0.328,1.985,0.761,2.768,1.291l0.579-0.712
		c-0.76-0.513-1.569-0.931-2.431-1.254c-0.862-0.324-1.725-0.591-2.586-0.799c-1.104-0.295-2.114-0.703-3.032-1.224
		c-0.92-0.52-1.666-1.203-2.24-2.048c-0.573-0.844-0.908-1.875-1.004-3.096c-0.118-1.514,0.122-2.914,0.72-4.199
		c0.599-1.284,1.663-2.352,3.194-3.202c1.532-0.851,3.644-1.381,6.337-1.591c2.672-0.209,4.741,0.006,6.21,0.643
		c1.467,0.637,2.3,1.953,2.498,3.947c0.232-0.822,0.269-1.576,0.109-2.263c-0.159-0.686-0.385-1.409-0.678-2.169
		c1.514-0.139,2.773-0.264,3.78-0.375c1.008-0.11,1.899-0.217,2.674-0.319c0.775-0.103,1.563-0.186,2.362-0.248
		c0.434,1.49,0.735,3.112,0.904,4.866c0.168,1.754,0.187,3.557,0.057,5.409c-1.201,0.073-2.277,0.046-3.229-0.081
		c-0.952-0.127-1.843-0.359-2.674-0.697c-0.831-0.336-1.69-0.767-2.577-1.29l-0.511,0.77c0.845,0.526,1.704,0.963,2.578,1.307
		c0.873,0.345,1.691,0.657,2.454,0.936c1.131,0.399,2.099,0.863,2.902,1.393c0.804,0.53,1.442,1.199,1.919,2.009
		c0.476,0.81,0.764,1.846,0.862,3.108c0.136,1.746-0.056,3.157-0.574,4.235c-0.52,1.078-1.254,1.901-2.204,2.474
		c-0.95,0.57-2.004,0.977-3.159,1.215C822.004,214.975,820.847,215.14,819.69,215.23z"/>
	<path fill="#FFFFFF" d="M836.819,213.417c-0.202-0.43-0.383-0.976-0.54-1.641c-0.158-0.665-0.271-1.36-0.338-2.085
		c-0.067-0.726-0.101-1.426-0.101-2.104s0.057-1.243,0.169-1.695c0.66-0.221,1.139-0.729,1.437-1.525s0.375-2.119,0.23-3.971
		l-0.178-2.272l-1.01,0.079c0.314,1.585,0.405,3.164,0.275,4.74c-0.808,0.233-1.578,0.404-2.31,0.515
		c-0.732,0.11-1.511,0.171-2.335,0.183c-0.824,0.011-1.791-0.024-2.897-0.108c-0.185-0.726-0.35-1.628-0.498-2.706
		c-0.147-1.079-0.269-2.222-0.363-3.433c-0.094-1.21-0.165-2.384-0.211-3.523c-0.047-1.14-0.063-2.149-0.047-3.027
		c0.017-0.881,0.061-1.525,0.136-1.932c1.241-0.097,3.119-0.165,5.636-0.202c2.515-0.039,5.708-0.208,9.579-0.511
		c2.63-0.205,4.877-0.423,6.743-0.653c1.865-0.23,3.442-0.433,4.73-0.608c1.288-0.173,2.353-0.294,3.194-0.359
		c0.142,0.454,0.29,1.136,0.445,2.044c0.155,0.909,0.3,1.935,0.431,3.078c0.132,1.144,0.244,2.309,0.337,3.498
		c0.094,1.188,0.148,2.307,0.166,3.352c0.019,1.047-0.008,1.921-0.08,2.625c-1.081,0.255-2.019,0.439-2.813,0.554
		c-0.796,0.115-1.569,0.176-2.32,0.182c-0.75,0.006-1.605-0.039-2.565-0.134c-0.373-1.516-0.526-3.08-0.462-4.693l-1.01,0.078
		l0.175,2.24c0.097,1.241,0.284,2.223,0.563,2.941c0.277,0.718,0.609,1.243,0.995,1.572c0.386,0.33,0.805,0.541,1.256,0.633
		c0.182,0.43,0.325,0.979,0.431,1.648c0.104,0.669,0.181,1.367,0.227,2.094c0.046,0.726,0.043,1.431-0.009,2.111
		c-0.053,0.683-0.146,1.25-0.279,1.705c-0.935-0.033-2.105-0.054-3.514-0.059c-1.408-0.007-3.048,0.063-4.92,0.209
		c-1.957,0.152-3.609,0.341-4.957,0.563C838.87,213.039,837.737,213.239,836.819,213.417z"/>
	<path fill="#FFFFFF" d="M868.817,210.918c-0.202-0.408-0.381-0.939-0.537-1.593c-0.157-0.655-0.271-1.35-0.338-2.086
		c-0.068-0.734-0.103-1.436-0.101-2.103c0-0.668,0.059-1.217,0.173-1.648c0.47-0.207,0.886-0.578,1.246-1.113
		c0.36-0.536,0.5-1.319,0.42-2.351c-0.087-1.114-0.234-1.919-0.442-2.41c-0.208-0.493-0.46-0.807-0.756-0.941
		c-0.296-0.136-0.635-0.199-1.015-0.189c-0.218-0.344-0.395-0.838-0.528-1.484c-0.136-0.646-0.229-1.352-0.277-2.121
		c-0.05-0.769-0.05-1.509,0.001-2.223c0.05-0.712,0.162-1.309,0.336-1.788c2.807-0.388,5.482-0.813,8.028-1.278
		c2.546-0.463,5.174-0.959,7.884-1.487c0.236,0.573,0.426,1.178,0.57,1.812c0.146,0.635,0.239,1.226,0.282,1.772
		c0.077,0.989,0.047,1.896-0.09,2.721c-0.137,0.826-0.279,1.651-0.426,2.479c-0.147,0.826-0.182,1.734-0.104,2.722
		c0.121,1.558,0.414,2.667,0.879,3.329c0.465,0.663,0.935,1.06,1.41,1.192c0.241,0.637,0.419,1.432,0.536,2.386
		s0.163,1.893,0.141,2.815c-0.023,0.923-0.129,1.677-0.315,2.263c-0.595-0.018-1.362-0.026-2.304-0.027
		c-0.942,0-1.973,0.018-3.092,0.052s-2.246,0.096-3.383,0.185c-1.009,0.079-2.033,0.186-3.069,0.319
		c-1.038,0.135-2.007,0.272-2.904,0.417C870.142,210.682,869.4,210.809,868.817,210.918z"/>
	<path fill="#FFFFFF" d="M895.689,212.312c-1.01,0.078-2.17,0.138-3.479,0.176c-1.31,0.038-2.642,0.059-3.996,0.059
		c-0.277-0.296-0.498-0.756-0.663-1.378c-0.166-0.621-0.281-1.3-0.35-2.036c-0.068-0.735-0.09-1.421-0.065-2.058
		c0.024-0.638,0.087-1.128,0.187-1.475c3.842-0.131,6.913-0.509,9.214-1.134l-0.259-0.867c-0.395,0.095-0.807,0.179-1.233,0.254
		c-0.429,0.077-0.863,0.132-1.306,0.166c-1.072,0.084-2.109,0.021-3.109-0.187c-1-0.207-1.909-0.601-2.728-1.183
		s-1.495-1.392-2.031-2.429c-0.536-1.038-0.865-2.336-0.986-3.893c-0.155-1.978,0.09-3.658,0.733-5.041
		c0.643-1.384,1.602-2.522,2.876-3.416c1.274-0.893,2.781-1.581,4.521-2.066c1.74-0.486,3.62-0.808,5.64-0.966
		c5.321-0.415,9.289,0.313,11.901,2.184c2.611,1.869,4.064,4.688,4.358,8.453c0.18,2.293-0.018,4.318-0.589,6.078
		c-0.572,1.759-1.442,3.276-2.613,4.553c-1.17,1.277-2.578,2.346-4.226,3.203c-1.647,0.859-3.474,1.531-5.479,2.016
		C900.005,211.81,897.898,212.139,895.689,212.312z M899.175,197.594l1.704-0.133l-0.192-2.462l-1.704,0.133L899.175,197.594z"/>
	<path fill="#FFFFFF" d="M926.203,209.928c-1.01,0.079-2.169,0.139-3.479,0.177s-2.642,0.059-3.996,0.059
		c-0.276-0.296-0.498-0.756-0.663-1.378s-0.281-1.301-0.349-2.036c-0.069-0.735-0.091-1.422-0.066-2.058
		c0.024-0.638,0.087-1.128,0.187-1.475c3.842-0.132,6.913-0.509,9.214-1.134l-0.258-0.868c-0.396,0.095-0.807,0.179-1.234,0.255
		c-0.429,0.076-0.863,0.131-1.305,0.166c-1.073,0.084-2.109,0.021-3.11-0.187c-1-0.207-1.909-0.601-2.728-1.184
		c-0.818-0.581-1.495-1.392-2.031-2.428c-0.536-1.038-0.864-2.336-0.986-3.893c-0.154-1.978,0.09-3.658,0.733-5.042
		c0.643-1.383,1.602-2.522,2.876-3.416c1.274-0.892,2.781-1.58,4.521-2.066c1.74-0.485,3.62-0.808,5.64-0.965
		c5.322-0.416,9.289,0.312,11.901,2.183c2.612,1.869,4.065,4.688,4.359,8.453c0.179,2.293-0.019,4.319-0.589,6.079
		c-0.572,1.758-1.443,3.276-2.613,4.553c-1.17,1.277-2.579,2.346-4.227,3.203c-1.646,0.859-3.474,1.53-5.478,2.016
		C930.519,209.427,928.412,209.756,926.203,209.928z M929.688,195.211l1.704-0.134l-0.192-2.462l-1.703,0.134L929.688,195.211z"/>
	<path fill="#FFFFFF" d="M956.718,207.545c-1.01,0.079-2.169,0.138-3.479,0.176c-1.31,0.039-2.642,0.06-3.996,0.059
		c-0.277-0.295-0.498-0.756-0.663-1.377c-0.165-0.622-0.281-1.301-0.35-2.036s-0.09-1.422-0.065-2.059
		c0.024-0.638,0.087-1.128,0.187-1.475c3.842-0.131,6.913-0.508,9.214-1.133l-0.259-0.868c-0.395,0.095-0.807,0.179-1.233,0.255
		c-0.429,0.076-0.863,0.131-1.306,0.165c-1.072,0.084-2.109,0.021-3.109-0.187c-1-0.206-1.909-0.601-2.728-1.183
		s-1.495-1.392-2.031-2.429c-0.536-1.038-0.865-2.336-0.986-3.893c-0.155-1.978,0.09-3.657,0.733-5.041
		c0.643-1.384,1.602-2.522,2.876-3.416c1.274-0.893,2.781-1.581,4.521-2.066c1.74-0.486,3.62-0.808,5.64-0.965
		c5.321-0.416,9.289,0.312,11.901,2.183c2.611,1.869,4.065,4.688,4.359,8.453c0.179,2.293-0.019,4.318-0.59,6.079
		c-0.571,1.758-1.442,3.276-2.612,4.553c-1.17,1.277-2.579,2.345-4.227,3.202c-1.647,0.86-3.474,1.531-5.478,2.016
		C961.033,207.044,958.927,207.372,956.718,207.545z M960.203,192.827l1.704-0.133l-0.191-2.462l-1.705,0.133L960.203,192.827z"/>
</g>
<g>
</g>
<g>
</g>
<g>
</g>
<g>
</g>
<g>
</g>
<g>
</g>
<g>
</g>
<g>
</g>
<g>
</g>
<g>
</g>
<g>
</g>
<g>
</g>
<g>
</g>
<g>
</g>
<g>
</g>
</svg>
