<?xml version="1.0" encoding="utf-8"?>
<!-- Generator: Adobe Illustrator 16.0.0, SVG Export Plug-In . SVG Version: 6.00 Build 0)  -->
<!DOCTYPE svg PUBLIC "-//W3C//DTD SVG 1.1//EN" "http://www.w3.org/Graphics/SVG/1.1/DTD/svg11.dtd">
<svg version="1.1" id="Layer_1" xmlns="http://www.w3.org/2000/svg" xmlns:xlink="http://www.w3.org/1999/xlink" x="0px" y="0px"
	 width="1280px" height="800px" viewBox="0 0 1280 800" enable-background="new 0 0 1280 800" xml:space="preserve">
<g>
	<path fill="#232323" d="M272.709,570.852c-5.554-16.512-12.892-37.184-22.035-62.044l-110.336,7.663l-12.903,64.469l-86.814,6.031
		l74.542-327.936l127.283-8.838L362.291,564.63L272.709,570.852z M226.163,441.152c-10.914-30.361-22.057-60.708-33.428-91.037
		l-10.3-28.182c-6.21,27.404-15.267,68.788-27.177,124.146L226.163,441.152z"/>
	<path fill="#232323" d="M528.252,318.96c-2.806,36.068-2.706,43.576-4.04,75.081l-55.957-4.354l7.74-106.153l-71.256-5.106
		l-14.211,184.769l-65.183-5.509c4.073-35.967,11.639-122,14.085-153.419c2.442-31.417,4.43-65.209,5.97-101.379l192.397,14.97
		C534.241,249.195,531.06,282.896,528.252,318.96z"/>
	<path fill="#232323" d="M411.59,543.898c-19.641-19.833-26.215-42.18-19.707-67.06c6.433-24.595,23.016-40.775,49.77-48.546
		c26.742-7.766,64.862-5.182,114.359,7.764c49.707,13,84.319,29.439,103.837,49.305c19.516,19.872,26.063,42.106,19.631,66.698
		c-6.543,25.015-23.117,41.35-49.719,49.009c-26.607,7.655-64.868,4.957-114.791-8.099
		C465.694,580.082,431.231,563.727,411.59,543.898z M579.983,555.381c12.071-3.116,19.744-10.893,22.996-23.33
		c3.179-12.155,0.27-22.588-8.712-31.287c-8.991-8.701-25.43-16.174-49.314-22.42c-23.672-6.192-41.559-7.695-53.654-4.513
		c-12.104,3.187-19.737,10.861-22.915,23.019c-3.22,12.302-0.335,22.801,8.656,31.497c8.988,8.7,25.318,16.147,48.991,22.339
		C549.917,556.932,567.899,558.5,579.983,555.381z"/>
	<path fill="#232323" d="M774.649,570.977h-59.952c-4.011-13.1-51.852-153.408-63.27-186.861
		c-10.65-30.857-13.313-39.861-19.637-60.381c-3.861,12.413-12.038,37.242-24.539,74.482c-10.646,30.35-6.262,19.511-11.662,37.438
		l-63.927-16.688l52.404-152.776h85.183L774.649,570.977z"/>
	<path fill="#232323" d="M732.648,377.461c7.803-5.433,17.509-12.431,29.14-21.005l-20.67-54.715l-35.687,3.683l-16.267-43.051
		l182.88-14.214l23.85,63.121L749.433,421.887L732.648,377.461z M793.496,333.304c14.243-10.348,28.438-20.809,42.597-31.381
		l13.194-9.688c-15.284,1.198-38.306,3.169-69.08,5.911L793.496,333.304z"/>
	<path fill="#232323" d="M981.423,240.699l-2.677,6.628c-9.955,25.244-73.379,199.37-80.254,218.599
		c-6.874,19.23-12.294,36.725-16.263,52.489l7.047,33.928l-53.314,11.073l-7.757-37.34c-7.12-8.994-15.197-18.104-24.213-27.329
		c-9.022-9.227-21.726-21.841-38.118-37.843c-12.751-12.149-22.563-21.771-29.432-28.861l57.194-11.879
		c5.781,7.316,14.971,18.043,27.566,32.18c12.651,14.41,21.373,24.602,26.167,30.584c2.736-10.756,6.648-24.063,11.739-39.922
		c5.949-18.546,64.878-183.397,66.751-190.768L981.423,240.699z"/>
	<path fill="#232323" d="M1098.317,449.102l-162.825-58.999l14.46-39.902c8.795-2.55,24.886-8.045,48.272-16.479l9.05-3.238
		c-8.944-14.252-19.677-30.785-32.209-49.597l14.459-39.902l158.914,57.582c-4.552,9.83-10.325,24.416-17.329,43.75
		c-8.981-3.721-28.204-11.073-57.668-22.064l-37.598-14.321c2.623,4.056,10.12,16.389,22.492,37.004
		c2.382,4.277,4.146,7.321,5.298,9.134l-14.149,5.11c-19.934,7.054-32.208,11.288-36.824,12.721l39.787,13.714
		c31.116,10.965,51.311,17.896,60.588,20.796C1106.028,423.742,1101.126,438.641,1098.317,449.102z"/>
	<path fill="#232323" d="M973.278,629.478c-2.687-33.445-6.412-69.261-11.171-107.44c-4.762-38.187-6.027-47.234-11.631-80.314
		l73.499-9.159l6.097,53.72l115.097-14.351l-14.548-122.987l73.504-9.161c3.088,38.387,11.246,116.9,15.394,150.165
		c4.141,33.262,9.427,68.882,15.862,106.859l-73.506,9.16l-10.006-80.298l-115.101,14.342l10.011,80.299L973.278,629.478z"/>
</g>
<g>
	<path fill="#A31F1F" d="M604.14,654.115c0.351,0.505,0.992,0.828,1.923,0.974l0.257,5.367c-1.196,0.3-2.237,0.527-3.12,0.684
		c-0.885,0.156-2.066,0.302-3.545,0.436c-2.769,0.251-4.81-0.338-6.124-1.767c-1.315-1.43-2.186-3.233-2.612-5.413
		c-0.766,2.938-2.162,5.156-4.185,6.659c-2.024,1.502-4.535,2.39-7.529,2.661c-2.465,0.223-4.747-0.277-6.846-1.503
		c-2.099-1.224-3.807-2.99-5.125-5.299c-1.319-2.307-2.107-4.902-2.368-7.785c-0.258-2.844,0.048-5.574,0.92-8.198
		c0.872-2.62,2.233-4.788,4.084-6.505c1.852-1.716,4.047-2.688,6.588-2.919c3.033-0.274,5.669,0.127,7.908,1.204
		c2.238,1.078,3.971,2.9,5.198,5.465l-0.246-7.146l12.741-1.154c0.022,3.209,0.15,6.409,0.382,9.6
		c0.231,3.189,0.563,7.175,0.996,11.952C603.555,652.717,603.788,653.613,604.14,654.115z M588.72,651.643
		c1.08-1.148,1.519-2.861,1.313-5.137c-0.183-2.01-0.905-3.435-2.166-4.276c-1.261-0.841-2.784-1.182-4.565-1.021
		c-1.706,0.154-3.089,0.823-4.148,2.011c-1.059,1.185-1.508,2.649-1.35,4.394c0.175,1.934,0.848,3.459,2.019,4.576
		c1.172,1.118,2.668,1.595,4.488,1.43C586.168,653.451,587.638,652.792,588.72,651.643z"/>
	<path fill="#A31F1F" d="M643.809,652.701l0.479,4.66c-0.855,0.269-1.697,0.469-2.526,0.601c-0.829,0.134-2.002,0.269-3.519,0.405
		c-3.678,0.333-6.392-0.501-8.14-2.503c-1.75-2.001-2.796-4.916-3.143-8.746l-0.835-9.847l-4.664,0.423l1.942,21.443l-11.774,1.066
		c-0.047-3.473-0.275-7.468-0.684-11.98c-0.316-3.488-0.667-6.515-1.052-9.08l-3.511,0.49l-0.912-10.067l35.72-3.235l0.911,10.067
		c-1.03,0.018-2.536,0.077-4.515,0.18l0.521,5.744c0.141,1.556,0.308,2.764,0.501,3.625c0.192,0.863,0.571,1.554,1.134,2.076
		c0.564,0.522,1.376,0.736,2.438,0.64c0.606-0.055,1.078-0.135,1.412-0.243C643.623,650.023,643.695,651.45,643.809,652.701z"/>
	<path fill="#A31F1F" d="M651.46,652.668c-3.321-2.699-5.202-6.477-5.643-11.33c-0.429-4.74,0.749-8.727,3.533-11.961
		c2.783-3.234,7.419-5.146,13.903-5.732c4.359-0.396,8.074-0.015,11.142,1.141c3.067,1.156,5.411,2.875,7.033,5.155
		c1.62,2.281,2.567,4.919,2.839,7.915c0.442,4.891-0.822,8.962-3.797,12.213c-2.974,3.252-7.741,5.175-14.301,5.77
		C659.686,656.425,654.781,655.369,651.46,652.668z M670.879,643.885c1.106-1.285,1.571-2.914,1.393-4.887
		c-0.168-1.857-0.914-3.329-2.235-4.413c-1.322-1.085-3.216-1.516-5.679-1.292c-2.466,0.223-4.213,0.975-5.244,2.253
		s-1.461,2.865-1.289,4.761c0.179,1.973,0.89,3.495,2.134,4.567s3.098,1.496,5.563,1.273
		C667.985,645.924,669.771,645.17,670.879,643.885z"/>
	<path fill="#A31F1F" d="M724.916,628.896c-3.51,0.089-6.711,0.206-9.603,0.354l0.49,6.034c0.185,2.048,0.775,3.609,1.771,4.686
		c0.995,1.075,2.632,1.51,4.906,1.304c0.872-0.079,1.699-0.229,2.482-0.454c-0.025,1.417,0.028,2.846,0.159,4.287
		c0.062,0.682,0.239,2.234,0.536,4.654c-1.642,0.453-3.027,0.769-4.158,0.949c-1.131,0.18-2.605,0.352-4.426,0.517
		c-4.437,0.401-7.671-0.386-9.704-2.361c-2.033-1.977-3.224-4.878-3.57-8.708l-0.813-9.619c-1.776,0.239-3.624,0.521-5.544,0.847
		l-0.912-10.067l27.473-2.488L724.916,628.896z"/>
	<path fill="#A31F1F" d="M733.875,645.202c-3.322-2.699-5.203-6.477-5.643-11.33c-0.43-4.74,0.748-8.727,3.533-11.961
		c2.783-3.235,7.419-5.146,13.903-5.732c4.359-0.396,8.073-0.015,11.142,1.141c3.066,1.155,5.412,2.875,7.032,5.155
		c1.621,2.281,2.568,4.919,2.84,7.915c0.442,4.891-0.823,8.962-3.797,12.213s-7.741,5.175-14.301,5.77
		C742.101,648.959,737.196,647.902,733.875,645.202z M753.294,636.419c1.106-1.285,1.57-2.914,1.392-4.887
		c-0.168-1.857-0.913-3.329-2.234-4.413c-1.322-1.085-3.215-1.516-5.68-1.292c-2.465,0.223-4.212,0.975-5.243,2.253
		s-1.461,2.865-1.289,4.761c0.179,1.973,0.89,3.495,2.134,4.567s3.098,1.496,5.563,1.273
		C750.4,638.458,752.187,637.704,753.294,636.419z"/>
	<path fill="#A31F1F" d="M793.07,611.511c-0.464-5.118,0.238-9.554,2.106-13.308c1.867-3.752,4.486-6.642,7.859-8.669
		c2.915,2.433,5.37,4.216,7.366,5.354c-5.491,2.046-8.734,5.179-9.729,9.396l11.774-1.066l1.546,17.064l-19.964,1.808
		L793.07,611.511z"/>
	<path fill="#A31F1F" d="M867.023,577.587c5.207,2.082,9.392,5.244,12.559,9.486c3.165,4.243,5.009,9.238,5.528,14.982
		c1.036,11.433-1.363,20.237-7.197,26.415c-5.836,6.176-14.127,9.751-24.877,10.725c-13.083,1.186-23.705-1.178-31.866-7.091
		c3.083-3.948,5.847-8.241,8.295-12.88c2.384,1.62,5.667,2.742,9.854,3.366c4.185,0.625,7.954,0.783,11.312,0.479
		c4.948-0.448,8.987-2.061,12.12-4.84c3.131-2.778,4.857-6.504,5.18-11.177c0.031-0.29,0.023-0.691-0.022-1.203
		c-2.369,4.229-5.718,7.472-10.043,9.727c-4.326,2.256-8.822,3.594-13.485,4.017c-4.551,0.412-8.749-0.037-12.595-1.353
		c-3.848-1.313-6.953-3.313-9.317-5.995c-2.364-2.681-3.709-5.813-4.033-9.396c-0.469-5.176,0.593-9.745,3.188-13.709
		c2.595-3.962,6.338-7.11,11.229-9.446c4.893-2.336,10.495-3.79,16.809-4.362C856.029,574.755,861.817,575.508,867.023,577.587z
		 M857.453,603.916c1.788-0.821,3.189-1.822,4.201-3.005c1.011-1.18,1.46-2.396,1.347-3.647c-0.176-1.934-1.506-3.478-3.989-4.628
		c-2.484-1.151-5.404-1.576-8.76-1.272c-3.357,0.305-6.153,1.247-8.389,2.826c-2.237,1.578-3.268,3.335-3.093,5.269
		c0.181,1.991,1.513,3.563,3.997,4.713c2.482,1.151,5.402,1.575,8.76,1.271C853.688,605.246,855.663,604.738,857.453,603.916z"/>
	<path fill="#A31F1F" d="M940.055,570.972c5.206,2.081,9.392,5.244,12.558,9.486c3.166,4.243,5.009,9.238,5.529,14.982
		c1.035,11.433-1.364,20.237-7.198,26.414c-5.835,6.177-14.126,9.751-24.876,10.725c-13.083,1.186-23.705-1.177-31.867-7.091
		c3.083-3.947,5.848-8.24,8.295-12.879c2.384,1.62,5.668,2.741,9.854,3.365c4.185,0.625,7.955,0.784,11.312,0.479
		c4.948-0.448,8.987-2.061,12.12-4.839c3.131-2.778,4.857-6.504,5.181-11.178c0.03-0.289,0.023-0.691-0.023-1.203
		c-2.369,4.23-5.718,7.473-10.043,9.727c-4.326,2.256-8.821,3.595-13.484,4.018c-4.552,0.412-8.749-0.038-12.595-1.354
		c-3.848-1.313-6.954-3.313-9.317-5.995c-2.365-2.68-3.709-5.813-4.034-9.396c-0.469-5.176,0.593-9.745,3.188-13.708
		c2.594-3.962,6.336-7.111,11.229-9.446c4.892-2.337,10.495-3.791,16.809-4.362C929.06,568.14,934.848,568.893,940.055,570.972z
		 M930.483,597.301c1.788-0.821,3.189-1.823,4.201-3.006c1.011-1.18,1.46-2.396,1.347-3.647c-0.176-1.934-1.506-3.477-3.989-4.627
		c-2.484-1.151-5.404-1.576-8.76-1.272c-3.356,0.304-6.153,1.246-8.389,2.825c-2.237,1.578-3.268,3.336-3.092,5.27
		c0.18,1.991,1.512,3.562,3.996,4.712c2.483,1.151,5.403,1.575,8.76,1.271C926.719,598.631,928.693,598.123,930.483,597.301z"/>
</g>
<g>
	<path fill="#A31F1F" d="M441.03,171.691c-4.091,2.414-9.49,3.21-16.196,2.396c-1.894,6.999-3.22,12.085-3.977,15.257l-14.594-3.948
		l4.239-15.115c-6.262-2.646-10.491-6.035-12.685-10.171c-2.194-4.136-2.631-8.641-1.313-13.516c1.282-4.74,3.898-8.336,7.85-10.785
		c3.95-2.45,9.291-3.217,16.021-2.3l1.692-6.531l14.594,3.948l-1.85,6.56c6.097,2.696,10.316,6.121,12.657,10.272
		c2.34,4.151,2.894,8.51,1.659,13.072C447.82,165.66,445.121,169.28,441.03,171.691z M413.575,159.2l1.007-3.722
		c1.306-4.828,2.259-8.446,2.86-10.851c-3.693,0.474-6,2.418-6.923,5.83C409.56,154.003,410.579,156.917,413.575,159.2z
		 M432.591,161.136c1.213-1.051,2.041-2.396,2.485-4.034c0.419-1.551,0.379-3.073-0.121-4.563c-0.5-1.492-1.521-2.824-3.059-4.001
		c-1.318,4.873-2.32,8.478-3,10.813c-0.444,1.641-0.804,2.874-1.077,3.703C429.787,162.826,431.377,162.188,432.591,161.136z"/>
	<path fill="#A31F1F" d="M498.014,185.254c0.207,0.722,0.835,1.367,1.886,1.937l-1.971,6.171c-1.558-0.183-2.897-0.381-4.02-0.588
		c-1.124-0.209-2.597-0.56-4.421-1.053c-3.415-0.924-5.604-2.479-6.569-4.667c-0.965-2.187-1.239-4.603-0.825-7.248
		c-2.162,2.981-4.771,4.878-7.827,5.692c-3.057,0.813-6.433,0.721-10.127-0.279c-3.042-0.822-5.556-2.382-7.544-4.681
		c-1.989-2.296-3.282-5.035-3.876-8.216c-0.597-3.18-0.438-6.454,0.473-9.822c0.899-3.322,2.424-6.272,4.579-8.853
		c2.153-2.58,4.701-4.435,7.642-5.564c2.942-1.131,5.979-1.272,9.113-0.425c3.742,1.013,6.721,2.616,8.94,4.809
		c2.217,2.193,3.514,5.006,3.893,8.436l2.739-8.175l15.716,4.252c-1.334,3.633-2.54,7.302-3.617,11.005
		c-1.077,3.702-2.371,8.345-3.881,13.927C497.908,183.418,497.807,184.532,498.014,185.254z M480.635,175.737
		c1.778-0.825,3.029-2.569,3.748-5.228c0.635-2.346,0.377-4.271-0.772-5.771c-1.151-1.499-2.826-2.547-5.023-3.142
		c-2.105-0.569-4.042-0.416-5.81,0.46c-1.769,0.877-2.929,2.336-3.479,4.373c-0.611,2.26-0.455,4.275,0.473,6.048
		c0.925,1.772,2.511,2.962,4.756,3.569C476.818,176.667,478.854,176.563,480.635,175.737z"/>
	<path fill="#A31F1F" d="M550.972,179.039c1.406,1.664,2.337,3.51,2.794,5.535c0.455,2.025,0.433,3.968-0.07,5.829
		c-0.899,3.323-2.578,6.091-5.032,8.302c-2.457,2.214-5.698,3.619-9.725,4.218c-4.028,0.599-8.755,0.163-14.18-1.305
		c-7.999-2.163-13.411-5.493-16.235-9.99c-2.825-4.497-3.469-9.581-1.935-15.253c1.498-5.538,4.597-9.525,9.298-11.963
		c4.699-2.438,11.05-2.574,19.048-0.411l0.421,0.114l23.575,6.378l-2.697,9.97L550.972,179.039z M535.46,190.178
		c1.868-0.969,3.114-2.605,3.737-4.909c0.587-2.172,0.321-4.157-0.798-5.958c-1.12-1.8-3.2-3.111-6.24-3.934
		c-3.041-0.822-5.448-0.737-7.222,0.257c-1.775,0.994-2.962,2.599-3.561,4.813c-0.624,2.305-0.419,4.333,0.612,6.086
		c1.031,1.753,3.067,3.041,6.108,3.863C531.136,191.219,533.59,191.146,535.46,190.178z"/>
	<path fill="#A31F1F" d="M592.368,193.02c-4.232-1.43-8.107-2.692-11.626-3.787l-1.976,7.026c-0.647,2.393-0.604,4.413,0.13,6.062
		c0.732,1.648,2.503,2.852,5.31,3.611c1.075,0.291,2.128,0.482,3.159,0.569c-0.631,1.59-1.173,3.226-1.629,4.909
		c-0.216,0.797-0.661,2.627-1.334,5.487c-2.155-0.202-3.944-0.45-5.372-0.739c-1.427-0.292-3.264-0.74-5.509-1.348
		c-5.473-1.48-9.005-3.779-10.596-6.896c-1.592-3.117-1.782-6.912-0.571-11.389l3.109-11.212c-2.223-0.507-4.55-0.992-6.984-1.462
		l3.183-11.764l33.889,9.168L592.368,193.02z"/>
</g>
<g>
	<path fill="#A31F1F" d="M714.084,231.017c-2.781,3.388-7.191,5.773-13.235,7.159c0.543,6.708,0.979,11.565,1.313,14.573
		l-13.823,1.118l-1.042-14.531c-6.228-0.351-10.931-1.99-14.11-4.917c-3.18-2.926-4.959-6.724-5.336-11.395
		c-0.367-4.542,0.773-8.502,3.421-11.879c2.647-3.376,7.019-5.717,13.112-7.021l-0.57-6.236l13.823-1.118l0.443,6.31
		c6.1,0.448,10.808,2.119,14.117,5.013c3.312,2.896,5.144,6.529,5.497,10.901C718.068,223.623,716.864,227.63,714.084,231.017z
		 M686.503,228.695l-0.288-3.566c-0.374-4.627-0.677-8.086-0.905-10.375c-3.039,1.571-4.426,3.991-4.162,7.259
		C681.422,225.41,683.207,227.638,686.503,228.695z M703.519,224.436c0.72-1.298,1.017-2.731,0.89-4.303
		c-0.12-1.485-0.628-2.802-1.523-3.947s-2.191-1.991-3.884-2.539c0.377,4.671,0.635,8.133,0.772,10.386
		c0.127,1.571,0.2,2.762,0.221,3.572C701.624,226.79,702.797,225.733,703.519,224.436z"/>
	<path fill="#A31F1F" d="M728.096,231.391c-3.836-3.044-5.974-7.284-6.413-12.719c-0.43-5.307,1.006-9.76,4.306-13.361
		c3.297-3.6,8.734-5.706,16.312-6.318c5.095-0.412,9.424,0.04,12.986,1.354c3.563,1.315,6.271,3.254,8.131,5.817
		c1.855,2.564,2.921,5.523,3.192,8.876c0.442,5.477-1.097,10.025-4.617,13.643c-3.521,3.617-9.113,5.736-16.778,6.356
		C737.637,235.651,731.931,234.436,728.096,231.391z M750.893,221.695c1.311-1.43,1.878-3.25,1.699-5.458
		c-0.168-2.08-1.017-3.732-2.541-4.954c-1.527-1.223-3.729-1.718-6.609-1.485c-2.88,0.233-4.932,1.062-6.154,2.484
		c-1.223,1.424-1.748,3.197-1.576,5.319c0.179,2.209,0.985,3.917,2.421,5.125c1.436,1.209,3.593,1.697,6.473,1.464
		C747.484,223.958,749.58,223.126,750.893,221.695z"/>
	<path fill="#A31F1F" d="M809.009,194.241c0.052,3.415,0.239,7.096,0.559,11.044l0.587,7.261c0.233,2.888-0.265,5.694-1.493,8.422
		c-1.229,2.727-3.216,5.035-5.963,6.924c-2.746,1.889-6.157,2.998-10.233,3.327c-6.823,0.552-11.876-0.45-15.16-3.005
		c-3.283-2.555-5.16-6.74-5.631-12.558l-0.587-7.26c-0.319-3.948-0.728-7.611-1.223-10.991l14.953-1.208
		c0.239,6.262,0.606,12.451,1.101,18.564c0.145,1.783,0.707,3.106,1.691,3.966c0.983,0.861,2.251,1.229,3.803,1.103
		c1.55-0.125,2.728-0.711,3.536-1.761c0.807-1.048,1.142-2.42,1.004-4.12c-0.494-6.113-1.125-12.28-1.896-18.5L809.009,194.241z"/>
	<path fill="#A31F1F" d="M858.056,190.276c-3.786,12.742-7.104,24.677-9.949,35.804l-20.802,1.682
		c-4.925-11.269-10.138-22.514-15.638-33.735l15.617-1.263l9.831,25.615l5.521-26.856L858.056,190.276z"/>
	<path fill="#A31F1F" d="M891.741,199.027c-4.097,0.075-7.835,0.185-11.212,0.329l0.479,6.757c0.186,2.292,0.851,4.044,1.997,5.255
		c1.146,1.211,3.048,1.708,5.706,1.494c1.02-0.083,1.986-0.246,2.903-0.492c-0.05,1.586-0.01,3.185,0.121,4.798
		c0.062,0.765,0.246,2.503,0.556,5.212c-1.924,0.497-3.544,0.841-4.867,1.034c-1.322,0.192-3.048,0.375-5.174,0.546
		c-5.184,0.419-8.947-0.483-11.29-2.709c-2.343-2.224-3.687-5.48-4.033-9.77l-0.804-10.768c-2.076,0.254-4.236,0.557-6.482,0.909
		l-0.911-11.272l32.1-2.595L891.741,199.027z"/>
</g>
<g>
	<path fill="#A31F1F" d="M622.502,222.459c-1.771-1.799-2.656-3.954-2.656-6.468c0-2.513,0.885-4.654,2.656-6.425
		c1.77-1.77,3.911-2.655,6.425-2.655c2.455,0,4.583,0.899,6.382,2.698c1.799,1.799,2.699,3.927,2.699,6.382
		c0,2.514-0.9,4.669-2.699,6.468s-3.927,2.698-6.382,2.698C626.413,225.157,624.271,224.258,622.502,222.459z"/>
</g>
<g>
</g>
<g>
</g>
<g>
</g>
<g>
</g>
<g>
</g>
<g>
</g>
<g>
</g>
<g>
</g>
<g>
</g>
<g>
</g>
<g>
</g>
<g>
</g>
<g>
</g>
<g>
</g>
<g>
</g>
</svg>
