<?xml version="1.0" encoding="utf-8"?>
<!-- Generator: Adobe Illustrator 16.0.0, SVG Export Plug-In . SVG Version: 6.00 Build 0)  -->
<!DOCTYPE svg PUBLIC "-//W3C//DTD SVG 1.1//EN" "http://www.w3.org/Graphics/SVG/1.1/DTD/svg11.dtd">
<svg version="1.1" xmlns="http://www.w3.org/2000/svg" xmlns:xlink="http://www.w3.org/1999/xlink" x="0px" y="0px" width="1280px"
	 height="800px" viewBox="0 0 1280 800" enable-background="new 0 0 1280 800" xml:space="preserve">
<g id="Layer_2">
	<g>
		<path fill-rule="evenodd" clip-rule="evenodd" fill="#7A1B1B" d="M977.17,392c0,8.28-0.3,16.5-0.89,24.63
			c-0.12,1.67-0.25,3.33-0.391,4.99c-1.729,19.81-5.17,39.13-10.18,57.81c-2.01,7.511-4.28,14.92-6.79,22.21
			c-19.96,58.051-55.35,108.92-101.25,147.74c-1.31,1.101-2.62,2.19-3.939,3.26c-58.11,47.66-132.44,76.25-213.45,76.25
			c-55.33,0-107.55-13.34-153.61-36.989c-0.86-0.431-1.72-0.881-2.58-1.33c-52.29-27.4-96.48-68.141-128.08-117.7
			c-0.55-0.86-1.09-1.72-1.63-2.58c-4.96-7.94-9.6-16.1-13.89-24.47c-0.45-0.84-0.88-1.69-1.3-2.54
			c-6.27-12.44-11.78-25.32-16.48-38.59c-0.78-2.171-1.53-4.36-2.26-6.561c-4.04-12.17-7.4-24.66-10.04-37.399
			c-0.81-3.87-1.54-7.771-2.2-11.69c-0.05-0.23-0.09-0.45-0.12-0.68c-0.96-5.681-1.78-11.41-2.44-17.181
			c-1.49-12.85-2.26-25.93-2.26-39.18c0-186.06,150.83-336.89,336.89-336.89c102.68,0,194.63,45.94,256.42,118.38
			c4.66,5.46,9.149,11.08,13.45,16.83c3.939,5.26,7.729,10.64,11.359,16.13c0.851,1.28,1.681,2.56,2.521,3.86
			c14.819,23.11,26.899,48.14,35.77,74.65c2.23,6.63,4.25,13.34,6.05,20.15C973.24,332.83,977.17,361.95,977.17,392z"/>
		<path fill="#FCFCFC" d="M640.28,738.89c-55.712,0-108.919-12.811-158.136-38.072c-0.843-0.423-1.687-0.862-2.53-1.303l-0.152-0.08
			c-53.659-28.117-99.258-70.021-131.883-121.188c-0.559-0.874-1.113-1.757-1.668-2.64c-5.13-8.214-9.929-16.665-14.276-25.143
			c-0.487-0.911-0.954-1.832-1.409-2.753c-6.43-12.758-12.142-26.132-16.941-39.682c-0.746-2.075-1.511-4.297-2.325-6.75
			c-4.166-12.548-7.645-25.508-10.341-38.52c-0.795-3.801-1.549-7.799-2.237-11.867c-0.069-0.338-0.126-0.669-0.175-1.007
			c-0.994-5.896-1.832-11.806-2.491-17.569c-1.542-13.299-2.325-26.868-2.325-40.316c0-46.826,9.173-92.256,27.264-135.029
			c17.472-41.309,42.483-78.405,74.337-110.26s68.951-56.865,110.26-74.337C548.024,54.283,593.455,45.11,640.28,45.11
			c101.719,0,197.954,44.427,264.028,121.891c4.764,5.581,9.424,11.413,13.85,17.33c4.047,5.404,7.982,10.992,11.693,16.605
			c0.861,1.296,1.715,2.612,2.579,3.949c15.438,24.074,27.83,49.938,36.853,76.903c2.307,6.857,4.406,13.849,6.234,20.768
			c7.73,28.993,11.652,59.094,11.652,89.445c0,8.447-0.308,16.978-0.916,25.354c-0.122,1.706-0.256,3.408-0.4,5.111
			c-1.758,20.137-5.284,40.165-10.485,59.556c-2.041,7.628-4.395,15.326-6.993,22.874
			c-20.283,58.992-56.332,111.597-104.247,152.121c-1.379,1.158-2.735,2.286-4.101,3.393
			c-30.299,24.851-64.299,44.25-101.012,57.625C721.027,731.872,681.079,738.89,640.28,738.89z M317.992,446.966l0.079,0.413
			c0.652,3.876,1.368,7.679,2.127,11.303c2.543,12.275,5.82,24.481,9.743,36.298c0.763,2.298,1.476,4.368,2.18,6.33
			c4.534,12.8,9.912,25.393,15.999,37.47c0.407,0.821,0.786,1.574,1.184,2.316l0.086,0.164c4.102,8.004,8.634,15.988,13.472,23.732
			c0.514,0.819,1.04,1.655,1.575,2.493c30.757,48.237,73.736,87.733,124.295,114.228l0.141,0.073
			c0.759,0.396,1.517,0.793,2.276,1.173l0.089,0.046c46.376,23.812,96.521,35.885,149.043,35.885
			c75.388,0,148.939-26.274,207.108-73.982c1.318-1.068,2.583-2.12,3.848-3.183c45.14-38.177,79.114-87.749,98.227-143.337
			c2.449-7.111,4.664-14.358,6.587-21.543c4.9-18.271,8.223-37.143,9.878-56.095c0.135-1.592,0.261-3.21,0.378-4.838
			c0.573-7.902,0.864-15.945,0.864-23.912c0-28.613-3.695-56.98-10.982-84.314c-1.722-6.515-3.693-13.081-5.865-19.538
			c-8.505-25.416-20.181-49.783-34.71-72.44c-0.798-1.235-1.604-2.479-2.431-3.722c-3.51-5.309-7.218-10.574-11.035-15.672
			c-4.174-5.58-8.564-11.073-13.053-16.332C826.823,106.979,736.135,65.11,640.28,65.11c-180.248,0-326.89,146.643-326.89,326.89
			c0,12.681,0.738,25.476,2.193,38.028c0.626,5.472,1.421,11.074,2.367,16.666L317.992,446.966z"/>
	</g>
</g>
<g id="Layer_1">
	<g>
		<path fill-rule="evenodd" clip-rule="evenodd" d="M308.54,448.58c-0.11,0.15-0.22,0.31-0.33,0.46c-0.05-0.23-0.09-0.45-0.12-0.68
			C308.24,448.42,308.39,448.5,308.54,448.58z"/>
		<path fill-rule="evenodd" clip-rule="evenodd" fill="#FFFFFF" d="M1019.3,174.91c-7.26,6.04-14.5,12.13-22.74,16.84
			c-3.659,2.09-5.439,5.16-5.449,9.46c-0.03,13.06,0.18,26.14-0.86,39.17c-0.98,12.29-3.15,24.43-6.67,36.23
			c-2.12,7.12-5.64,13.38-9.94,19.16c-2.39,3.24-5.029,6.33-7.79,9.34c-0.819,0.91-1.67,1.82-2.529,2.72
			c-1.84,1.93-3.73,3.8-5.66,5.61c-7.28,6.83-15.19,12.87-23.5,18.45c-2.96,1.99-3.29,3.1-2.11,6.73
			c3.17,9.71,6.65,19.32,9.05,29.27c1.471,6.1,2.78,12.23,3.391,18.47l-2.91,17.38l-0.771,4.569l-2.739,16.381
			c-1.53,4.939-3.23,9.81-6.45,13.939c-1.62,2.07-0.311,3.05,1.12,4.271c9.29,7.92,17.84,16.51,25.33,25.989
			c2.689,3.391,5.239,6.91,7.64,10.54c-2.01,7.511-4.28,14.92-6.79,22.21c0.271,0.57,0.54,1.15,0.8,1.73
			c0.181,0.38,0.351,0.76,0.511,1.149c0.35,0.78,0.68,1.561,1,2.341c0.279,0.689,0.56,1.37,0.819,2.069
			c0.22,0.561,0.44,1.13,0.641,1.71c0.029,0.061,0.05,0.13,0.069,0.2c0.17,0.45,0.33,0.9,0.48,1.36
			c0.43,1.189,0.819,2.399,1.18,3.609c0.021,0.021,0.021,0.051,0.021,0.07c0.159,0.521,0.31,1.03,0.46,1.55
			c0.159,0.54,0.31,1.09,0.46,1.63c0.43,1.561,0.81,3.12,1.149,4.69c0.07,0.32,0.141,0.65,0.21,0.97
			c0.011,0.011,0.021,0.03,0.011,0.04c0.14,0.66,0.279,1.32,0.399,1.98c0.17,0.87,0.33,1.75,0.47,2.64
			c0.12,0.74,0.24,1.49,0.341,2.24c0.04,0.26,0.079,0.52,0.109,0.78c0.11,0.77,0.2,1.54,0.29,2.319c0.09,0.761,0.16,1.53,0.23,2.29
			c0.04,0.391,0.069,0.79,0.1,1.181c0.04,0.47,0.08,0.939,0.1,1.409c0.021,0.25,0.04,0.5,0.051,0.74c0.06,0.86,0.1,1.72,0.13,2.58
			c0.29,7.96-2.311,15.36-5.3,22.58c-5.73,13.87-11.54,27.72-17.521,41.49c-3.99,9.2-10.13,16.92-17.689,23.47
			c-6.811,5.9-14.08,11.28-20.551,17.521c-8.359,8.079-18.1,9.5-28.949,7.909c-0.78-0.109-1.551-0.239-2.32-0.38
			c-0.59-0.109-1.18-0.22-1.771-0.34c-0.25-0.05-0.5-0.1-0.75-0.16c-0.229-0.04-0.46-0.09-0.699-0.149
			c-0.45-0.101-0.9-0.2-1.36-0.32c-0.56-0.14-1.12-0.28-1.67-0.43c-0.72-0.19-1.43-0.391-2.14-0.61
			c-0.99-0.29-1.971-0.61-2.931-0.95c-0.49-0.17-0.97-0.35-1.45-0.53c-0.479-0.18-0.96-0.369-1.439-0.56
			c-0.311-0.11-0.62-0.24-0.93-0.37c-1.28-0.53-2.551-1.1-3.811-1.71c-1.31,1.101-2.62,2.19-3.939,3.26c-3.261-1.64-6.5-3.31-9.73-5
			c-57.62,45.98-129.79,71.25-203.72,71.25c-52.521,0-102.67-12.069-149.04-35.89c-1.48,2.99-3,5.95-4.57,8.9
			c-0.86-0.431-1.72-0.881-2.58-1.33c1.57-2.95,3.1-5.91,4.57-8.9c-49.04-25.71-90.95-63.66-121.48-109.95
			c-3.72,0.38-7.45,0.74-11.17,1.15c-0.55-0.86-1.09-1.72-1.63-2.58c3.64-0.48,7.29-0.98,10.93-1.47c-0.3-0.44-0.59-0.88-0.87-1.33
			c-0.54-0.84-1.06-1.681-1.58-2.5c-4.84-7.74-9.37-15.73-13.47-23.73l-0.09-0.16c-0.39-0.75-0.77-1.5-1.18-2.319
			c-0.09-0.17-0.17-0.34-0.25-0.511c-2.44,2.54-4.9,5.061-7.38,7.551c-0.45-0.84-0.88-1.69-1.3-2.54c2.51-2.511,4.93-5.11,7.33-7.73
			c-5.44-11.09-10.26-22.58-14.4-34.24c-0.5-1.409-1.02-2.88-1.55-4.46c-0.21-0.6-0.42-1.229-0.63-1.869
			c-0.47-1.431-0.94-2.87-1.39-4.311c-3.31-10.47-6.12-21.2-8.35-31.99c-0.63-2.989-1.23-6.109-1.78-9.29
			c-0.12-0.67-0.24-1.34-0.35-2.01l-0.08-0.41l-0.04-0.279c-0.95-5.591-1.74-11.19-2.37-16.66c-0.12-1.03-0.23-2.07-0.34-3.11
			c1.56-1.12,3.03-2.42,4.43-3.84c7.75-7.92,14.92-16.41,23.36-23.65c17.24-14.8,37.26-19.1,59.32-15.74
			c2.16,0.32,4.33,0.73,6.46,1.23c3.05,0.71,5.61,0.04,7.84-2.62c-5.25-2.44-9.98-5.46-13.75-9.8c-6.69-7.71-8.95-17.04-9.14-26.85
			c-0.5-26.06,6.67-49.46,25.5-68.26c11.99-11.98,25.79-21.41,42.14-26.61c7.93-2.52,16.19-2.84,24.41-2.73
			c4.87,0.07,8.12-1.59,10.95-5.66c6.97-10.02,12.46-20.87,18.5-31.41c1.68-2.94,4.62-5.52,5.22-8.61c0.6-3.12-2.36-6.13-3.36-9.35
			c-3.78-12.11-1.52-23.34,4.48-34.17c4.33-7.81,10.81-13.77,16.78-20.17c7.49-8.04,14.74-16.27,20.99-25.33
			c2.06-2.99,5.04-4.25,8.18-5.45c2.19,0.09,4.39,0.17,6.59,0.25c5.11,0.57,7.76,3.98,9.59,8.33c0.68,1.63,1.45,3.3,1.54,5.03
			c0.27,5.48,3.49,8.66,7.87,11.33c6.98,4.25,14.46,7.4,21.87,10.74c3.31,1.49,6.68,2.83,9.57,5.1c1.41,1.11,2.97,1.31,4.66,0.77
			c16.1-5.09,32.85-5.66,49.46-7.16c22.78-2.06,45.609-2.14,68.42-0.68c18.649,1.2,37.189,3.33,54.93,9.77
			c9.311,3.38,17.601,8.44,25.08,14.88c4.42,3.8,9.01,7.38,13.521,11.07c1.869,1.52,3.85,2.32,6.38,1.91
			c12.41-2.02,24.88-3.41,37.38-4.61c4.1-0.39,8.189-0.77,12.29-1.14c4.04-0.37,8.069-0.73,12.1-1.11c2.33-0.21,4.66-0.43,6.99-0.66
			c15.32-1.49,30.58-3.35,45.54-7.17c13.79-3.53,27.12-8.25,39.52-15.31c10.801-6.16,19.07-1.12,22.801,5.87
			C1027.36,162.03,1025.69,169.58,1019.3,174.91z"/>
		<path fill-rule="evenodd" clip-rule="evenodd" fill="#E02A2B" d="M844,647.64c-57.62,45.98-129.79,71.25-203.72,71.25
			c-52.521,0-102.67-12.069-149.04-35.89c-1.48,2.99-3,5.95-4.57,8.9c-0.86-0.431-1.72-0.881-2.58-1.33c1.57-2.95,3.1-5.91,4.57-8.9
			c-49.04-25.71-90.95-63.66-121.48-109.95c-3.72,0.38-7.45,0.74-11.17,1.15c-0.55-0.86-1.09-1.72-1.63-2.58
			c3.64-0.48,7.29-0.98,10.93-1.47c-0.3-0.44-0.59-0.88-0.87-1.33c-0.54-0.84-1.06-1.681-1.58-2.5
			c-4.84-7.74-9.37-15.73-13.47-23.73l-0.09-0.16c-0.39-0.75-0.77-1.5-1.18-2.319c-0.09-0.17-0.17-0.34-0.25-0.511v-0.01
			c4.91-5.109,9.72-10.3,14.47-15.55c1.55-1.71,3.27-3.26,5.01-4.77c2.35-2.061,4.01-4.08,8.12-1.591
			c4.41,2.65,10.27,1.761,15.52,1.561c28.07-1.061,56.07-3.87,84.19-3.55c19.77,0.229,39.48,1.17,59.19,3.13
			c14.95,1.479,29.99,2.229,44.94,3.92c7.55,0.85,14.9,2.52,22.12,4.859c1.82,0.591,1.96,1.4,0.8,2.78
			c-12.38,14.82-15.74,32.46-15.96,51.09c-0.07,5.841,2.28,10.341,7.25,13.54c6.97,4.49,14.05,9.561,22.57,9.011
			c18.15-1.171,34.99-6.08,47.82-20.261c10.49-11.59,19.75-24.14,28.99-36.689c2.08-2.83,3.63-3.29,6.54-1.351
			c3.189,2.12,7,2.521,10.77,2.11c9.36-1.01,13.16,1.23,16.33,9.91c2.78,7.609,7.65,13.77,13.39,19.31
			c15.271,14.74,30.61,29.46,48.88,40.471C806.96,627.11,825.23,637.81,844,647.64z"/>
		<path fill-rule="evenodd" clip-rule="evenodd" fill="#CDB294" d="M757.573,368.571c-3.24-3.29-6.181-6.831-8.854-10.597
			c-2.7-3.805-6.04-6.945-9.967-9.47c-1.821-1.171-3.586-1.592-5.412-0.019c-1.742,1.501-2.034,3.263-1.143,5.325
			c1.304,3.018,2.569,6.05,3.854,9.075c2.659,6.256,1.147,9.954-5.403,11.8c-11.279,3.179-22.884,4.022-34.556,4.014
			c-14.004-0.014-27.758-2.178-41.479-4.791c-17.321-3.299-34.867-4.046-52.456-4.01c-0.331,0-0.661,0.019-0.99,0.015
			c-3.891-0.044-3.898-0.078-2.164-3.434c7.009-13.565,7.202-27.837,4.18-42.369c-2.993-14.396-8.021-28.016-15.997-40.457
			c-0.223-0.35-0.352-0.762-0.554-1.21c20.005,4.349,45.756,20.926,51.426,49.936c0.502,2.567,1.379,5.066,2.164,7.571
			c0.382,1.215,1.077,2.246,2.623,1.88c1.744-0.411,1.73-1.724,1.496-3.122c-4.059-24.134-16.066-42.615-38.265-53.87
			c-5.4-2.737-10.985-4.985-16.821-6.58c-10.797-2.949-20.941-7.845-31.837-10.541c-2.687-0.665-0.579-2.118,0.265-2.92
			c5.592-5.323,9.746-11.577,12.151-18.912c3.817-11.637,4.207-23.471,1.684-35.42c-0.247-1.17-0.631-2.333-1.112-3.427
			c-0.577-1.309-1.624-1.677-2.986-1.107c-1.333,0.559-1.836,1.38-1.295,2.847c4.938,13.362,2.504,26.356-1.989,39.252
			c-2.058,5.903-4.268,7.416-10.46,7.269c-6.913-0.164-13.822-0.143-20.691,0.9c-4.756,0.723-9.146,2.248-12.871,5.395
			c-0.953,0.805-1.982,1.619-3.199,0.631c-1.231-0.998-0.128-1.978,0.258-2.923c4.208-10.295,10.8-18.421,20.76-23.793
			c5.782-3.12,10.919-7.357,16.832-10.313c1.256-0.627,2.249-1.503,1.335-3.127c-0.829-1.474-1.98-1.542-3.345-0.802
			c-10.532,5.709-20.929,11.63-29.895,19.706c-2.483,2.237-4.03,5.163-5.56,8.095c-1.924,3.687-3.929,7.333-5.974,10.954
			c-1.174,2.083-5.007,2.316-6.538,0.535c-0.743-0.865-0.149-1.426,0.313-1.992c9.313-11.347,16.348-24.105,23.337-36.934
			c2.656-4.875,6.349-9.207,9.752-13.646c2.719-3.548,6.609-5.428,10.89-6.333c20.216-4.272,39.569-11.396,59.137-17.816
			c5.229-1.717,9.25-5.072,12.273-9.507c2.513-3.684,5.82-5.584,10.071-6.732c20.466-5.525,41.368-7.865,62.459-8.558
			c19.197-0.632,38.423-1.061,57.608,0.211c16.682,1.106,33.173,3.483,48.732,10.143c6.099,2.612,11.595,6.192,16.589,10.551
			c5.462,4.768,11.013,9.423,16.812,13.779c3.032,2.277,3.011,2.842-0.107,4.918c-5.057,3.365-8.812,7.864-11.698,13.154
			c-0.77,1.409-1.064,2.636,0.557,3.673c1.653,1.059,2.499-0.111,3.172-1.227c7.812-12.906,20.023-17.085,34.286-18.882
			c26.028-3.277,52.25-4.547,78.241-8.064c15.256-2.065,30.081-6.075,44.908-10.071c1.822-0.492,3.086-2.632,5.649-1.662
			c-1.61,2.496-4.364,3.279-6.591,4.58c-8.66,5.055-18.215,8.092-27.493,11.747c-25.244,9.942-49.181,22.262-70.439,39.301
			c-14.177,11.364-19.908,26.334-17.769,44.299c0.689,5.801,3.804,10.5,7.877,14.496c10.752,10.561,20.558,21.96,30.185,33.53
			c5.768,6.93,9.82,14.774,12.702,23.26c4.767,14.027,8.824,28.248,10.959,42.935c0.421,2.895,0.002,5.911-0.029,8.873
			c-1.724,1.591-3.567,0.642-5.247,0.058c-11.832-4.101-23.865-7.518-36.042-10.407c-19.643-4.657-39.32-9.104-59.4-11.634
			c-14.365-1.813-28.689-3.687-43.183-4.299c-7.306-0.308-14.619-1.321-21.918-2.085
			C759.96,370.066,758.531,369.838,757.573,368.571z"/>
		<g>
			<path fill-rule="evenodd" clip-rule="evenodd" fill="#CDB294" d="M886.298,659.465c-2.457,0-5.007-0.198-7.793-0.607
				c-7.782-1.146-15.232-3.426-22.145-6.778c-1.031-0.494-2.042-1.01-3.077-1.57c-22.096-11.938-47.141-25.468-70.224-40.674
				c-17.569-11.573-32.874-26.222-46.794-40.327c-3.387-3.436-5.982-7.798-8.17-13.729c-2.993-8.088-6.591-10.956-13.748-10.956
				c-1.082,0-2.278,0.071-3.553,0.21c-0.676,0.073-1.355,0.11-2.023,0.11c-5.884,0-10.512-2.909-13.481-5.098
				c-11.814-8.693-21.856-15.272-31.601-20.705c-7.746-4.318-15.028-6.418-22.262-6.418c-1.627,0-3.278,0.108-4.907,0.322
				c-2.576,0.341-5.002,1.571-7.571,2.875c-1.529,0.776-3.111,1.578-4.8,2.229c-3.401,1.318-7.452,2.797-11.67,3.748
				c-0.702,0.158-1.343,0.235-1.958,0.235c-2.441,0-4.409-1.242-5.848-3.692c-0.888-1.519-2.075-2.938-3.333-4.442
				c-0.626-0.749-1.251-1.498-1.848-2.266c-4.028-5.172-4.226-9.726-0.659-15.225c4.375-6.737,10.528-11.568,18.292-14.36
				c5.272-1.895,10.65-3.726,15.852-5.496c3.225-1.098,6.45-2.196,9.668-3.314c1.144-0.396,2.452-0.895,3.494-1.581
				c1.128-0.746,1.42-1.097,1.495-1.231c-0.02-0.013-0.063-0.167-0.214-0.433c-0.52-0.905-0.891-0.905-1.113-0.905
				c-0.236,0-0.654,0.058-1.3,0.333c-2.215,0.941-4.456,1.944-6.624,2.914l-5.286,2.361c-2.691,1.206-5.475,2.452-8.244,3.643
				c-1.119,0.479-2.418,1.036-3.981,1.036c-0.675,0-1.337-0.107-1.968-0.319l-0.437-0.14c-1.538-0.485-4.736-1.496-5.196-5.228
				c-0.437-3.71,2.583-5.11,3.72-5.638c0.175-0.081,0.349-0.159,0.51-0.247c8.058-4.433,16.816-8.968,26.138-12.041
				c4.066-1.346,8.067-3.211,11.887-5.541c0.745-0.453,1.688-1.058,2.415-1.742c0.259-0.244,0.376-0.354,0.074-0.927
				c-0.071-0.134-0.125-0.174-0.126-0.174c0,0-0.067-0.034-0.26-0.034c-0.114,0-0.244,0.013-0.386,0.036
				c-2.758,0.478-5.268,1.425-7.442,2.811c-3.551,2.247-7.24,3.884-11.024,5.5c-0.773,0.33-1.813,0.709-3.003,0.71
				c-1.63,0-3.049-0.704-4.105-2.034c-1.825-2.281-2.037-4.978-0.576-7.39c2.425-4.021,5.546-6.755,9.273-8.122
				c17.653-6.467,37.304-12.451,61.355-12.451c2.333,0,4.709,0.058,7.062,0.172l0.174,0.008l0.172,0.028
				c4.492,0.744,9.454,1.207,14.707,1.697c10.226,0.953,21.816,2.034,33.02,5.582c1.029,0.327,1.994,0.719,2.892,1.175
				c-0.703-2.104-0.289-4.407,1.263-6.743c1.866-2.806,4.398-5.227,7.741-7.404c9.522-6.21,22.401-13.339,37.585-13.339
				c2.247,0,4.521,0.158,6.759,0.472c13.47,1.869,27.85,5.311,45.252,10.831c16.464,5.217,32.912,11.936,50.284,20.541
				c4.154,2.058,6.957,4.553,8.82,7.854c0.521,0.92,1.416,1.7,2.453,2.604c0.258,0.225,0.516,0.45,0.771,0.68l0.723,0.65
				c9.59,8.627,19.505,17.548,27.569,28.144c5.041,6.63,9.302,13.596,12.664,20.703c6.288,13.229,9.76,27.514,10.316,42.452
				c0.324,8.898-2.683,16.971-5.526,23.839c-6.651,16.102-12.226,29.301-17.54,41.538c-3.935,9.07-10.151,17.328-18.477,24.542
				c-2.565,2.222-5.221,4.393-7.789,6.492c-4.262,3.483-8.668,7.086-12.645,10.92C903.48,656.414,895.735,659.465,886.298,659.465z
				 M890.161,557.759c0.075,0.018,0.2,0.037,0.39,0.042c0.001,0,0.002,0,0.003,0c0.32,0,0.387-0.074,0.416-0.106
				c0.143-0.161,0.354-0.688,0.241-1.642c-0.14-1.132-0.531-2.313-1.194-3.587c0.185,1.285,0.217,2.616,0.091,3.987
				C890.041,557.213,890.114,557.6,890.161,557.759z M887.685,546.242c0.44,0.684,0.823,1.391,1.148,2.119
				c0.083-0.702,0.336-1.371,0.761-2.005c-0.158,0.008-0.314,0.013-0.469,0.013C888.63,546.369,888.149,546.326,887.685,546.242z
				 M805.127,485.755c1.101,0.346,2.161,0.751,3.182,1.218c-0.371-0.804-0.645-1.705-0.784-2.715
				C806.792,485.083,805.922,485.524,805.127,485.755z"/>
			<path fill="#FFFFFF" d="M806.337,410.878c2.081-0.001,4.193,0.142,6.343,0.442c15.2,2.109,30.101,6.069,44.761,10.72
				c17.17,5.44,33.729,12.38,49.859,20.37c3.11,1.54,5.79,3.54,7.54,6.64c0.94,1.66,2.44,2.79,3.83,4.04
				c9.88,8.891,19.82,17.75,27.91,28.38c4.89,6.431,9.02,13.15,12.34,20.17c6.07,12.771,9.48,26.521,10.03,41.28
				c0.29,7.96-2.311,15.36-5.3,22.58c-5.73,13.87-11.54,27.72-17.521,41.49c-3.99,9.2-10.13,16.92-17.689,23.47
				c-6.811,5.9-14.08,11.28-20.551,17.521c-6.423,6.208-13.661,8.484-21.592,8.484c-2.391,0-4.845-0.207-7.357-0.575
				c-7.471-1.1-14.57-3.26-21.271-6.51c-1-0.479-1.979-0.979-2.96-1.51c-23.729-12.82-47.44-25.68-70-40.54
				c-17.17-11.311-31.95-25.38-46.31-39.93c-3.5-3.551-5.761-7.971-7.49-12.66c-3.378-9.128-8.065-12.917-16.562-12.918
				c-1.214,0-2.503,0.077-3.879,0.228c-0.577,0.063-1.144,0.093-1.698,0.093c-4.41,0-8.158-1.901-11.701-4.513
				c-10.261-7.55-20.78-14.7-31.92-20.91c-7.487-4.175-15.326-6.798-23.723-6.798c-1.742,0-3.506,0.112-5.298,0.348
				c-4.77,0.631-8.68,3.591-13.06,5.28c-3.69,1.431-7.39,2.75-11.25,3.62c-0.47,0.106-0.901,0.162-1.299,0.162
				c-1.362,0-2.348-0.656-3.261-2.212c-1.48-2.53-3.58-4.69-5.4-7.03c-3.24-4.16-3.39-7.31-0.51-11.75
				c4.09-6.3,9.78-10.649,16.79-13.17c8.46-3.04,17-5.85,25.49-8.8c1.44-0.5,2.9-1.08,4.16-1.91c1.979-1.31,3.83-2.85,2.24-5.65
				c-0.971-1.69-2.246-2.424-3.723-2.424c-0.775,0-1.606,0.202-2.478,0.574c-3.13,1.33-6.22,2.74-9.33,4.12
				c-3.61,1.61-7.2,3.24-10.83,4.8c-0.886,0.38-1.823,0.793-2.797,0.793c-0.333,0-0.671-0.048-1.013-0.163
				c-1.53-0.51-3.36-0.859-3.61-2.89c-0.22-1.87,1.48-2.23,2.68-2.88c8.27-4.55,16.64-8.86,25.65-11.83
				c4.38-1.45,8.56-3.42,12.51-5.83c1.021-0.62,2.04-1.3,2.91-2.12c1.35-1.27,1.53-2.88,0.67-4.51
				c-0.68-1.27-1.755-1.808-3.039-1.808c-0.284,0-0.578,0.026-0.881,0.077c-3.06,0.53-5.94,1.57-8.56,3.24
				c-3.351,2.12-6.96,3.72-10.59,5.271c-0.625,0.268-1.242,0.469-1.824,0.469c-0.637,0-1.233-0.241-1.756-0.899
				c-0.96-1.2-1.22-2.55-0.36-3.97c1.87-3.1,4.36-5.62,7.74-6.86c18.727-6.86,37.754-12.268,60.322-12.268
				c2.27,0,4.572,0.055,6.917,0.168c13.521,2.24,30.801,1.95,47.311,7.18c4.63,1.47,7.51,4.311,8.87,8.86
				c1.14,3.82,1.43,7.729,1.34,11.72c-0.12,5.7-0.83,11.39-0.26,17.12c0.399,4.11,1.63,7.92,3.649,11.5
				c1.597,2.826,2.981,4.018,5.328,4.018c0.8,0,1.712-0.139,2.782-0.397c5.55-1.351,11.1-2.61,16.87-2.61
				c5.96,0.01,11.67,1.25,16.5,4.76c11.02,8.011,22.79,14.851,34.12,22.381c13.31,8.85,24.869,19.859,37.029,30.119
				c3.5,2.961,5.38,6.851,4.94,11.66c-0.21,2.38,0.37,4.54,3.35,4.62c0.041,0.001,0.082,0.002,0.123,0.002
				c2.495,0,3.951-2.11,3.598-5.102c-0.23-1.87-0.921-3.601-1.851-5.24c-0.45-0.78-0.82-1.62-0.229-2.47
				c0.3-0.421,0.638-0.553,0.995-0.553c0.441,0,0.915,0.202,1.385,0.313c5.649,1.27,11.479,1.96,16.52,5.23
				c0.496,0.318,1.052,0.554,1.602,0.554c0.569,0,1.13-0.252,1.608-0.924c0.82-1.16,0.24-2.12-0.529-2.92
				c-0.75-0.79-1.551-1.75-2.521-2.07c-5.815-1.907-11.485-4.604-17.695-4.604c-1.084,0-2.184,0.082-3.305,0.265
				c-0.361,0.059-0.71,0.089-1.045,0.089c-1.324,0-2.45-0.468-3.455-1.489c-20.22-20.52-44.49-35.6-68.479-51.06
				c-0.83-0.53-1.62-1.141-2.5-1.59c-3.83-1.95-4.86-5.051-3.971-9.091c1.061-4.819,1.971-9.67,4.08-14.189
				c0.66-1.4,1.58-3.03-0.359-4c-0.44-0.222-0.821-0.317-1.155-0.317c-1.297,0-1.879,1.444-2.436,2.598
				c-2.409,4.97-4.02,10.21-4.71,15.689c-0.234,1.902-0.924,3.073-2.712,3.073c-0.196,0-0.405-0.015-0.628-0.043
				c-1.941-0.247-3.874-0.351-5.8-0.351c-5.961,0-11.857,0.997-17.76,1.851c-1.001,0.144-1.847,0.226-2.57,0.226
				c-2.866,0-3.841-1.286-5.07-5.166c-1.29-4.04-1.71-8.16-1.27-12.359c0.61-5.811,0.64-11.61,0-17.41
				c-0.55-5.061-2.23-9.63-6.13-13.09c-2.24-1.99-2.271-3.99-0.69-6.37c1.811-2.721,4.21-4.811,6.88-6.55
				C781.477,416.5,793.256,410.878,806.337,410.878 M806.338,404.878L806.338,404.878c-15.977,0-29.355,7.39-39.226,13.827
				c-3.689,2.402-6.502,5.103-8.598,8.251c-0.888,1.337-1.492,2.696-1.816,4.044c-11.171-3.384-22.527-4.442-32.583-5.38
				c-5.198-0.484-10.108-0.942-14.495-1.669l-0.343-0.058l-0.348-0.017c-2.402-0.116-4.826-0.175-7.207-0.175
				c-24.519,0-44.475,6.072-62.386,12.634c-4.387,1.609-8.024,4.771-10.814,9.396c-2.113,3.487-1.813,7.535,0.812,10.816
				c0.424,0.534,0.896,1.006,1.408,1.411c-5.123,2.347-10.028,4.951-14.705,7.524c-0.072,0.038-0.19,0.089-0.308,0.144
				c-5.065,2.349-5.753,6.024-5.439,8.694c0.375,3.046,1.974,4.907,3.626,6.058c-7.369,3.108-13.281,8.042-17.6,14.694
				c-4.265,6.576-4.008,12.519,0.809,18.703c0.639,0.82,1.286,1.596,1.913,2.345c1.174,1.404,2.284,2.731,3.042,4.028
				c2.517,4.285,5.978,5.183,8.44,5.183c0.841,0,1.699-0.102,2.622-0.31c4.407-0.993,8.588-2.518,12.097-3.878
				c1.821-0.703,3.472-1.54,5.068-2.35c2.436-1.236,4.539-2.304,6.61-2.577c1.495-0.196,3.014-0.296,4.511-0.296
				c6.709,0,13.513,1.976,20.801,6.038c9.632,5.37,19.573,11.885,31.286,20.503c3.306,2.437,8.488,5.68,15.257,5.68
				c0.775,0,1.564-0.043,2.347-0.128c1.17-0.128,2.256-0.192,3.229-0.192c5.152,0.001,8.104,1.348,10.936,9.001
				c2.338,6.339,5.149,11.04,8.844,14.789c14.039,14.225,29.481,29.002,47.282,40.729c23.192,15.277,48.299,28.841,70.449,40.808
				c1.076,0.583,2.13,1.12,3.218,1.642c7.163,3.475,14.906,5.846,22.99,7.036c2.936,0.43,5.627,0.639,8.231,0.639
				c10.254,0,18.681-3.326,25.762-10.17c3.883-3.745,8.047-7.149,12.456-10.753c2.584-2.112,5.257-4.297,7.854-6.547
				c8.669-7.511,15.15-16.13,19.266-25.617c5.32-12.251,10.9-25.467,17.561-41.587c2.963-7.155,6.097-15.59,5.751-25.09
				c-0.572-15.353-4.141-30.033-10.607-43.638c-3.446-7.285-7.815-14.431-12.982-21.226c-8.236-10.822-18.259-19.839-27.952-28.56
				l-0.721-0.648c-0.268-0.24-0.537-0.476-0.807-0.711c-0.795-0.693-1.546-1.349-1.816-1.826c-2.14-3.789-5.444-6.755-10.099-9.06
				c-17.51-8.674-34.097-15.449-50.709-20.713c-17.565-5.572-32.104-9.05-45.749-10.943
				C811.136,405.046,808.723,404.878,806.338,404.878L806.338,404.878z"/>
		</g>
		<path fill-rule="evenodd" clip-rule="evenodd" fill="#CDB294" d="M926.248,404.773c-1.189,4.099-2.735,8.134-3.489,12.311
			c-1.447,7.993-6.794,13.918-10.385,20.765c-0.905,1.726-2.254,0.769-3.37,0.117c-13.428-7.834-27.754-13.6-42.581-18.088
			c-14.472-4.381-28.775-9.403-43.683-12.245c-2.155-0.411-4.317-0.798-6.491-1.094c-2.715-0.372-4.957-1.566-6.96-3.414
			c-5.11-4.726-11.219-7.141-18.136-7.619c-10.957-0.754-21.909-1.471-32.905-0.768c-5.966,0.381-11.338,2.336-16.322,5.53
			c-9.234,5.92-18.131,12.383-27.906,17.446c-1.804,0.931-3.201,2.342-3.467,4.518c-0.282,2.313-1.597,3.18-3.857,2.971
			c-20.709-1.918-40.099,4.821-59.813,9.29c-5.146,1.164-9.744,3.952-13.754,7.498c-3.189,2.82-5.359,6.172-4.815,10.635
			c0.31,2.563-0.62,4.305-2.501,6.003c-4.501,4.063-9.339,7.668-14.342,11.05c-3.411,2.303-5.343,5.334-5.944,9.4
			c-0.688,4.644-2.786,8.745-5.411,12.585c-0.928,1.358-1.966,2.645-2.869,4.018c-3.96,6.021-3.753,11.176,0.51,17.042
			c1.642,2.261,4.057,3.983,5.102,7.004c-71.09-10.112-142.08-14.005-213.439-6.145c0.067-1.253,0.594-1.779,1.557-2.063
			c6.858-2.013,11.605-6.875,16.122-12.034c1.084-1.239,2.205-2.455,3.193-3.77c2.416-3.205,5.293-4.948,9.574-5.367
			c11.146-1.088,20.201-9.883,22.974-22.318c1.259-5.654,3.038-10.865,6.107-15.79c4.575-7.342,4.707-15.095,0.08-22.387
			c-2.99-4.712-2.091-8.429,0.805-12.612c6.039-8.72,14.642-13.308,24.537-16.017c13.645-3.738,27.548-5.205,41.677-4.994
			c7.779,0.116,15.511-0.134,23.265-1.493c15.634-2.742,28.885,2.847,40.588,12.905c0.082,0.072,0.177,0.135,0.243,0.222
			c7.427,9.81,26.855,17.052,36.868,13.71c19.423-6.479,39.519-8.936,59.708-11.104c11.344-1.218,22.655-2.825,34.126-1.818
			c2.227,0.195,4.178-0.483,4.385-3.303c0.235-3.202-1.848-4.328-4.411-4.669c-6.233-0.831-12.475-0.512-18.729,0.097
			c-12.267,1.188-24.046,5.472-36.24,6.386c-11.336,0.852-22.424,2.32-33.372,5.234c-2.323,0.619-4.719,1.024-7.106,1.34
			c-7.57,0.992-23.832-8.405-29.515-13.856c-6.582-6.311-14.611-10.003-23.324-12.29c-2.788-0.731-5.348-1.946-7.938-3.121
			c-2.097-0.952-2.174-2.307-0.576-3.799c2.212-2.068,4.783-3.426,7.829-3.878c12.088-1.791,24.215-2.392,36.44-1.935
			c18.003,0.673,35.982,1.204,53.611,5.569c19.233,4.766,38.784,7.421,58.593,8.186c6.659,0.257,13.128-0.698,19.475-2.64
			c2.976-0.907,5.801-2.174,7.918-4.508c2.074-2.284,4.235-2.412,6.737-0.891c2.647,1.608,5.467,2.71,8.556,3.241
			c8.083,1.381,10.188-0.351,10.041-8.501c1.367-2.124,3.529-1.486,5.397-1.372c12.022,0.731,24.01,1.709,36.003,2.986
			c24.315,2.587,48.187,7.394,72.063,12.302c12.591,2.587,25.08,5.66,37.215,9.998c2.796,0.999,5.688,1.678,8.54,2.491
			C924.083,402.193,925.958,402.535,926.248,404.773z"/>
		<path fill-rule="evenodd" clip-rule="evenodd" fill="#F0B18E" d="M492.038,265.482c14.53-0.043,28.776,2.992,43.227,3.904
			c11.156,0.706,21.865,3.254,32.423,6.746c9.37,3.099,16.08,8.967,20.221,18.001c6.868,14.981,11.704,30.47,12.499,47.034
			c0.359,7.479-1.435,14.6-4.427,21.382c-1.987,4.505-5.925,6.749-10.626,7.311c-6.749,0.808-13.542,1.247-20.313,1.879
			c-1.852,0.173-3.91,0.03-5.496,0.803c-6.394,3.125-12.905,2.543-19.638,1.61c-12.01-1.663-23.811-3.809-34.444-10.102
			c-2.932-1.736-5.697-3.69-8.429-5.714c-3.894-2.886-6.7-2.945-10.403,0.17c-7.243,6.091-15.744,9.893-24.233,13.742
			c-1.746,0.791-3.573,1.051-5.436,0.298c-7.54-3.046-15.571-3.489-23.508-4.443c-2.395-0.29-4.791-0.592-7.17-0.988
			c-7.175-1.195-11.829-5.214-13.946-12.26c-4.15-13.816-1.991-27.114,3.049-40.213c9.422-24.49,28.051-39.09,51.814-48.123
			c3.31-1.258,6.878-1.511,10.375-1.534C482.396,264.955,487.217,265.299,492.038,265.482z"/>
		<path fill-rule="evenodd" clip-rule="evenodd" fill="#CDB294" d="M443.45,451.14c-1.14,2.4-3.52,2.261-5.27,0.521
			c-8.56-8.47-19.28-14.67-26.15-24.92c-0.78-1.17-1.87-2.181-2.95-3.101c-1.87-1.609-3.91-2.02-5.89-0.149
			c-2.05,1.939-1.99,4.13-0.24,6.149c2.47,2.841,5.65,4.86,8.74,6.95c6.01,4.05,11.92,8.24,17.28,13.15
			c5.05,4.64,8.54,10.12,8.07,17.279c-0.49,7.351-4.21,12.851-10.63,16.351c-5.36,2.91-11.61,2.17-16.14-2.33
			c-7.87-7.8-15.54-15.85-20.98-25.68c-2.12-3.841-4.01-4.67-6.66-3.101c-2.83,1.681-3.49,5.23-1.6,8.36
			c1.18,1.939,2.91,3.28,4.76,4.47c6.92,4.46,12.86,9.87,17.23,16.95c1.08,1.74,2.8,3.07,4.18,4.62c1,1.12,1.87,2.439,0.51,3.76
			c-6.27,6.09-12.02,12.96-21.61,14.04c-4.8,0.54-8.61,0.01-12.21-4.15c-9.81-11.31-22.71-14.75-37.22-12.479
			c-2.93,0.46-5.67,1.4-8.12,2.84c-3.31-10.47-6.12-21.2-8.35-31.99c-0.63-2.989-1.23-6.109-1.78-9.29
			c2.52-3.199,5.22-6.279,8.07-9.25c8.98-9.319,17.63-18.96,27.24-27.689c8.76-7.96,18.9-12.19,30.57-12.96
			c12.04-0.79,23.87,0.38,34.26,7.02c11.2,7.15,20.1,16.73,25.98,28.73C447.11,440.49,445.85,446.06,443.45,451.14z"/>
		<path fill-rule="evenodd" clip-rule="evenodd" fill="#F0B18E" d="M869.656,266.58c0.537-13.156,6.453-23.46,16.378-31.765
			c14.761-12.352,31.393-21.598,48.705-29.767c11.703-5.523,23.776-10.146,35.755-14.998c3.636-1.473,4.208-1.122,3.52,2.687
			c-2.014,11.147-0.451,22.337-0.651,33.503c-0.29,16.234-3.302,32.09-7.96,47.56c-3.061,10.16-10.544,17.567-17.968,24.792
			c-9.962,9.7-21.27,17.63-33,25.011c-2.409,1.516-4.104,1.361-5.889-0.913c-9.633-12.271-20.052-23.844-31.025-34.936
			C871.768,281.938,868.993,274.824,869.656,266.58z"/>
		<path fill-rule="evenodd" clip-rule="evenodd" fill="#E12A2B" d="M641.91,516.425c9.405,0.991,18.321,3.566,26.131,9.046
			c7.274,5.102,15.057,9.469,21.965,15.105c1.186,0.967,2.166,1.6,0.816,3.365c-9.261,12.124-18.254,24.444-28.404,35.882
			c-10.178,11.464-23.384,16.222-37.92,19.295c-12.512,2.645-21.97-2.634-31.327-9.278c-2.664-1.895-3.958-4.874-3.999-8.005
			c-0.224-17.101,2.477-33.46,12.761-47.788c1.577-2.199,3.864-3.963,4.39-6.854c0.205-1.121,1.195-0.75,1.87-0.819
			c8.64-0.899,16.698-3.49,24.174-7.971C635.256,516.672,638.53,516.172,641.91,516.425z"/>
		<path fill-rule="evenodd" clip-rule="evenodd" fill="#E12A2B" d="M367.24,514.3c-7.54,6.47-14.04,13.95-20.72,21.25
			c-5.44-11.09-10.26-22.58-14.4-34.24c-0.5-1.409-1.02-2.88-1.55-4.46c4.74-2.909,10.39-3.649,16.57-3.31
			c7.94-0.06,14.44,3.72,20.34,8.64C371.35,505.4,371.02,511.07,367.24,514.3z"/>
		<path fill-rule="evenodd" clip-rule="evenodd" fill="#CDB294" d="M545.26,197.554c-5.637-0.19-10.246-3.961-11.826-9.424
			c-2.223-7.684-1.291-14.958,3.258-21.687c4.083-6.039,9.234-11.142,14.161-16.449c5.589-6.023,11.556-11.736,15.859-18.842
			c0.311-0.515,0.667-0.862,1.281-0.821c0.784,0.054,1.095,0.54,1.228,1.282c1.091,6.126,5.32,9.873,10.051,13.261
			c8.971,6.427,18.753,11.314,28.974,15.378c3.068,1.219,5.997,2.668,8.633,4.699c2.146,1.653,2.454,3.412,0.828,5.627
			c-2.786,3.795-6.049,7.156-10.571,8.59c-18.061,5.727-35.716,12.76-54.256,16.947C550.106,196.741,547.352,197.53,545.26,197.554z
			"/>
		<path fill-rule="evenodd" clip-rule="evenodd" fill="#F0B18E" d="M476.097,395.951c-2.983-0.069-4.854-1.077-5.875-3.273
			c-1.89-4.067-3.668-8.187-5.52-12.271c-1.09-2.406,0.59-3.103,2.287-3.8c6.394-2.627,12.604-5.599,18.267-9.625
			c6.743-4.798,6.573-4.491,13.454-0.172c11.895,7.466,24.565,12.967,38.96,13.246c2.189,0.042,4.373,0.282,6.561,0.403
			c3.729,0.207,4.879,2.433,2.917,5.684c-1.156,1.915-2.934,2.799-5.067,3.283c-10.127,2.301-20.452,2.226-30.734,2.578
			c-11.286,0.388-22.562,0.755-33.565,3.693C477.053,395.89,476.28,395.926,476.097,395.951z"/>
		<path fill-rule="evenodd" clip-rule="evenodd" fill="#E12A2B" d="M775.578,399.802c5.487,0.209,10.971,0.431,16.459,0.62
			c2.78,0.097,5.412,0.76,7.942,1.899c1.21,0.546,2.568,0.938,2.313,2.703c-0.231,1.619-1.655,1.634-2.77,1.843
			c-8.25,1.559-16.047,4.396-23.488,8.237c-3.898,2.012-7.794,4.051-11.229,6.824c-2.613,2.11-4.388,4.859-5.894,7.829
			c-1.144,2.26-2.899,3.928-5.54,2.586c-7.06-3.589-14.85-3.53-22.376-4.802c-4.431-0.749-8.865-1.484-13.29-2.263
			c-1.057-0.187-2.277-0.297-2.445-1.744c-0.155-1.35,0.829-1.979,1.81-2.477c10.309-5.232,19.556-12.164,29.308-18.285
			c4.241-2.663,8.717-3.918,13.732-3.592C765.26,399.517,770.423,399.606,775.578,399.802z"/>
		<path fill-rule="evenodd" clip-rule="evenodd" fill="#E12A2B" d="M467.445,397.016c0.085,1.723-1.04,2.546-2.391,3.178
			c-1.982,0.928-4.012,1.758-5.953,2.762c-5.992,3.103-10.732,7.479-13.864,13.553c-1.865,3.619-3.753,3.938-6.578,1.155
			c-5.158-5.082-10.394-10.065-16.337-14.23c-1.216-0.853-1.292-1.416-0.169-2.459c3.172-2.948,6.683-5.337,10.758-6.805
			c8.592-3.094,17.47-4.939,26.583-5.375C463.096,388.621,467.505,393.503,467.445,397.016z"/>
		<path fill-rule="evenodd" clip-rule="evenodd" fill="#DCDC34" d="M1084.465,480.597c-0.565-0.444-1.565-0.976-0.683-1.677
			c0.851-0.678,1.856-0.396,2.087,0.954C1085.34,479.997,1084.719,479.941,1084.465,480.597z"/>
		<g>
			<path fill-rule="evenodd" clip-rule="evenodd" fill="#F1F238" d="M1112.233,526.139c-1.137-0.021-2.115-0.808-2.383-1.912
				l-2.75-11.411c-0.41-0.992-0.815-1.988-1.22-2.983c-2.099-5.161-4.08-10.035-6.863-14.606c-2.437-3.997-5.55-7.347-9.439-10.14
				c2.955,5.525,5.703,12.372,5.958,20.293c0.006,0.186,0.033,0.391,0.058,0.603c0.128,1.102,0.321,2.767-0.792,4.116
				c-0.462,0.562-1.322,1.254-2.797,1.367c-0.146,0.011-0.285,0.016-0.416,0.016c-1.459,0-2.353-0.626-2.844-1.15
				c-1.184-1.263-1.076-2.911-1.005-4.002c0.013-0.199,0.027-0.393,0.026-0.569c-0.045-6.123-2.199-11.815-4.072-16.09
				c-0.527-1.206-1.075-2.404-1.623-3.603l-0.755-1.658c-2.002-3.705-4.8-6.985-8.815-10.277c2.73,5.919,4.679,12.009,5.805,18.151
				c0.636,3.479-0.19,6.202-2.681,8.83c-0.48,0.507-1.141,0.78-1.814,0.78c-0.289,0-0.58-0.05-0.86-0.153
				c-0.938-0.343-1.58-1.211-1.636-2.208c-0.631-11.352-5.362-21.408-9.577-30.291c-2.432-3.154-5.802-5.24-9.365-7.446
				c-0.046-0.028-0.092-0.057-0.137-0.085c2.567,5.15,4.231,10.605,5.854,15.922l0.165,0.542c1.421,4.659,1.222,6.867-1.069,11.811
				c-0.415,0.896-1.309,1.449-2.268,1.449c-0.155,0-0.313-0.015-0.47-0.044c-1.127-0.216-1.963-1.17-2.027-2.315
				c-0.638-11.32-5.373-20.337-10.386-29.884l-0.369-0.702c-1.797-3.018-4.484-5.341-8.703-7.528
				c-32.009-16.597-64.143-30.448-95.511-41.171c-0.845-0.288-1.689-0.616-2.538-0.947c-2.31-0.899-4.491-1.75-6.697-1.75
				c-0.51,0-1.017,0.047-1.506,0.14c-0.154,0.028-0.31,0.043-0.463,0.043c-0.712,0-1.399-0.305-1.879-0.851
				c-0.537-0.612-1.314-1.046-2.443-1.364c-4.386-1.233-8.815-2.562-13.099-3.846c-9.994-2.997-20.328-6.096-30.698-8.155
				c-4.846-0.962-9.697-1.897-14.548-2.832c-8.222-1.584-16.722-3.222-25.064-4.973c-9.149-1.92-18.631-2.989-27.8-4.022
				c-7.269-0.819-14.785-1.666-22.155-2.934c-2.22-0.382-4.255-0.568-6.221-0.568c-1.639,0-3.227,0.136-4.72,0.404
				c-0.582,0.104-1.173,0.155-1.808,0.155c-1.372,0-2.653-0.241-3.892-0.473l0.282-2.491l-0.461,2.458
				c-1.662-0.312-3.232-0.606-4.743-0.606c-1.088,0-2.042,0.158-2.917,0.482c-0.282,0.104-0.576,0.156-0.869,0.156
				c-0.533,0-1.061-0.17-1.499-0.5c-1.299-0.973-2.779-1.168-4.748-1.168c-0.437,0-0.875,0.009-1.313,0.018
				c-0.472,0.01-0.944,0.02-1.415,0.02c-0.689,0-1.729-0.018-2.796-0.173c-0.195-0.029-0.396-0.037-0.593-0.048
				c-2.976-0.167-4.521-1.616-4.593-4.305c-0.1-3.809,3.038-4.485,4.22-4.74c0.169-0.037,0.341-0.073,0.511-0.117
				c0.496-0.127,1.013-0.189,1.58-0.189c0.632,0,1.221,0.079,1.74,0.147c0.398,0.053,0.774,0.104,1.069,0.103
				c0.356,0,0.431-0.066,0.525-0.151c0.461-0.415,1.058-0.641,1.671-0.641c0.113,0,0.227,0.008,0.341,0.023
				c11.974,1.647,21.158,2.538,29.779,2.889c13.217,0.537,26.428,2.393,39.203,4.188c2.109,0.296,4.218,0.592,6.328,0.883
				c24.24,3.341,48.222,9.307,68.483,14.702c5.583,1.489,11.148,3.292,16.53,5.035c1.942,0.629,3.884,1.258,5.829,1.874
				c0.765,0.242,1.577,0.465,2.337,0.465c0.15,0,0.303-0.009,0.457-0.028c0.104-0.013,0.207-0.02,0.311-0.02
				c0.286,0,0.571,0.049,0.843,0.146c0,0,20.578,7.365,27.276,9.765c29.941,10.733,56.805,22.707,82.124,36.606
				c3.308,1.814,6.758,3.203,10.411,4.674c0.898,0.362,1.798,0.724,2.694,1.093c2.449,0.03,4.901,0.171,7.278,0.307
				c2.618,0.15,5.326,0.305,7.958,0.305c2.063,0,3.901-0.094,5.618-0.288c3.655-0.412,7.029-1.31,10.315-2.745
				c0.076-0.033,0.152-0.073,0.23-0.113c0.492-0.249,1.236-0.626,2.175-0.626c1.317,0,2.444,0.732,3.092,2.011
				c0.689,1.355,0.932,3.373-1.854,5.266c-3.811,2.592-7.889,2.981-11.832,3.358c-0.691,0.066-1.384,0.132-2.072,0.211
				c-1.846,0.45-3.793,0.651-6.281,0.651c-0.759,0-1.528-0.019-2.291-0.044c2.973,1.655,6.198,2.924,9.817,3.879
				c4.058,1.069,8.37,1.589,13.182,1.589c3.27,0,6.86-0.244,10.966-0.747c1.533-0.693,3.107-0.945,4.511-1.17
				c1.513-0.241,2.819-0.45,3.851-1.117c0.587-0.378,1.265-0.576,1.963-0.576c1.249,0,2.372,0.621,3.003,1.661
				c0.444,0.73,1.243,2.664-0.962,4.804c-1.359,1.312-2.996,1.641-4.19,1.882c-0.259,0.052-0.518,0.103-0.771,0.166
				c-5.074,1.715-10.688,2.548-17.157,2.548c-1.351,0-2.755-0.034-4.245-0.105c6.25,4.464,13.288,6.64,21.429,6.64
				c0.921,0,1.869-0.029,2.816-0.086c0.607-0.036,1.214-0.052,1.822-0.052c1.659,0,3.309,0.116,4.903,0.228
				c0.601,0.043,1.199,0.085,1.798,0.121l0.481-0.003c0.52,0,1.899,0,2.919,1.088c0.451,0.48,0.97,1.333,0.885,2.665
				c-0.1,1.511-0.936,3.35-4.354,3.553c-2.182,0.134-4.325,0.253-6.521,0.253c-1.674,0-3.223-0.073-4.68-0.222
				c3.258,2.337,6.54,4.387,10.291,5.63c2.291,0.759,3.685,3.069,4.311,4.379c1.191,2.49,1.485,5.088,0.788,6.948
				c-0.952,2.534-2.806,2.809-3.56,2.809l0,0c-1.272,0-2.329-0.683-3.108-1.277c-1.175-0.896-2.353-1.791-3.557-2.703
				c0.191,0.404,0.385,0.811,0.581,1.221c0.492,1.031,1.001,2.096,1.469,3.179c0.857,1.094,1.378,2.414,1.583,4.013
				c2.586,5.45,3.112,10.986,1.565,16.465c-0.305,1.078-1.289,1.82-2.406,1.82C1112.266,526.14,1112.249,526.14,1112.233,526.139z"
				/>
			<path fill="#FFFFFF" d="M757.573,368.571c9.968,1.371,19.974,2.501,30.019,2.911c15.229,0.618,30.238,2.976,45.291,5.05
				c23.096,3.183,45.698,8.654,68.182,14.641c7.494,1.999,14.848,4.534,22.249,6.876c1.028,0.325,2.039,0.582,3.091,0.582
				c0.253,0,0.509-0.015,0.768-0.047c9.092,3.254,18.187,6.507,27.275,9.765c28.169,10.098,55.52,22.037,81.765,36.444
				c4.429,2.43,9.158,4.147,13.802,6.07c5.25,0.033,10.489,0.616,15.742,0.616c1.964,0,3.93-0.081,5.899-0.304
				c3.847-0.434,7.503-1.396,11.036-2.938c0.433-0.188,0.939-0.53,1.404-0.53c0.318,0,0.618,0.16,0.861,0.641
				c0.529,1.039-0.355,1.61-1.073,2.099c-3.903,2.655-8.47,2.621-12.9,3.142c-1.918,0.484-3.851,0.616-5.835,0.616
				c-2.371,0-4.813-0.188-7.386-0.188c-0.948,0-1.915,0.025-2.901,0.096c5.43,4.638,11.049,7.229,17.176,8.845
				c4.583,1.208,9.193,1.672,13.819,1.672c3.884,0,7.779-0.327,11.679-0.816c2.831-1.448,6.26-0.843,9.006-2.618
				c0.183-0.117,0.396-0.176,0.605-0.176c0.345,0,0.683,0.156,0.866,0.459c0.41,0.674-0.101,1.26-0.566,1.712
				c-1.089,1.051-2.575,1.088-3.933,1.443c-5.387,1.834-10.887,2.446-16.444,2.446c-2.313,0-4.638-0.105-6.966-0.274
				c-0.514-0.037-1.09-0.175-1.605-0.175c-0.571,0-1.067,0.169-1.32,0.83c-0.535,1.404,1.09,1.62,1.88,2.271
				c7.417,6.115,15.854,8.883,25.195,8.883c0.979,0,1.968-0.03,2.967-0.091c0.556-0.033,1.113-0.047,1.672-0.047
				c2.178,0,4.372,0.213,6.552,0.344c0.072,0.004,0.148,0.006,0.227,0.006c0.13,0,0.267-0.004,0.404-0.004
				c0.677,0,1.373,0.085,1.309,1.093c-0.07,1.067-1.072,1.162-2.007,1.218c-2.126,0.13-4.25,0.248-6.372,0.248
				c-2.253,0-4.503-0.134-6.75-0.53c-0.862-0.153-1.736-0.288-2.61-0.334c-0.373-0.021-0.811-0.143-1.202-0.143
				c-0.368,0-0.696,0.107-0.894,0.505c-0.468,0.938,0.559,1.275,1.128,1.702c4.732,3.552,9.413,7.179,15.153,9.081
				c2.374,0.786,4.444,5.675,3.544,8.076c-0.325,0.867-0.745,1.187-1.219,1.187c-0.487,0-1.031-0.338-1.591-0.765
				c-3.223-2.457-6.458-4.898-10.203-7.736c0.964,4.939,3.324,8.714,5.022,12.736c0.854,0.961,1.188,2.122,1.298,3.371
				c-0.006-0.003-0.01-0.007-0.015-0.01c2.363,4.77,3.131,9.755,1.615,15.12c-0.934-3.867-1.863-7.733-2.796-11.6
				c-2.547-6.145-4.851-12.396-8.332-18.114c-3.751-6.153-8.952-10.713-15.284-14.052c-0.382-0.245-0.728-0.42-0.984-0.42
				c-0.336,0-0.517,0.302-0.42,1.143c0.242,0.618,0.49,1.235,0.732,1.854c4.273,7.104,7.568,14.549,7.84,23.009
				c0.042,1.31,0.748,3.361-1.224,3.513c-0.079,0.006-0.153,0.009-0.225,0.009c-1.854,0-1.313-1.966-1.322-3.24
				c-0.044-6.043-1.896-11.626-4.282-17.074c-0.787-1.798-1.618-3.581-2.428-5.37c-3.264-6.079-8.248-10.502-13.818-14.36
				c-0.396-0.067-0.726-0.098-0.996-0.098c-1.85,0-0.96,1.448-0.325,2.658c3.523,6.716,6.061,13.769,7.43,21.237
				c0.414,2.265,0.164,4.337-2.036,6.659c-0.648-11.673-5.239-21.583-9.926-31.458c-3.85-5.144-9.716-7.636-14.75-11.222
				c-0.354-0.051-0.686-0.084-0.975-0.084c-1.049,0-1.542,0.435-0.525,2.016c4.006,6.242,6.093,13.263,8.229,20.259
				c1.239,4.063,1.103,5.605-0.947,10.029c-0.687-12.178-5.942-21.897-11.067-31.665c-2.311-3.911-5.743-6.458-9.736-8.528
				c-30.969-16.058-62.837-30.031-95.853-41.316c-3.245-1.109-6.476-2.832-10.044-2.832c-0.645,0-1.301,0.057-1.969,0.183
				c-0.978-1.113-2.258-1.73-3.645-2.121c-14.635-4.115-29.042-9.079-43.987-12.046c-13.192-2.619-26.425-5.037-39.586-7.799
				c-16.529-3.469-33.436-4.114-50.045-6.973c-2.176-0.375-4.403-0.604-6.645-0.604c-1.719,0-3.444,0.135-5.161,0.443
				c-0.456,0.082-0.911,0.116-1.366,0.116c-1.169,0-2.339-0.226-3.519-0.447c-1.752-0.328-3.521-0.666-5.295-0.666
				c-1.263,0-2.526,0.171-3.786,0.638c-1.939-1.454-4.076-1.668-6.247-1.668c-0.908,0-1.821,0.038-2.729,0.038
				c-0.82,0-1.636-0.031-2.437-0.147c-1.382-0.202-2.987,0.227-3.046-1.946c-0.053-2.024,1.448-2.007,2.853-2.367
				c0.315-0.081,0.636-0.111,0.959-0.111c0.932,0,1.886,0.25,2.811,0.25C756.14,369.363,756.882,369.192,757.573,368.571
				 M757.573,363.571c-0.933,0-1.845,0.261-2.635,0.75c-0.103-0.013-0.208-0.027-0.301-0.04c-0.567-0.075-1.272-0.169-2.07-0.169
				c-0.779,0-1.5,0.088-2.203,0.269c-0.136,0.035-0.276,0.064-0.415,0.094c-5.521,1.19-6.249,5.051-6.191,7.247
				c0.04,1.495,0.66,6.385,6.951,6.738c0.125,0.007,0.252,0.01,0.375,0.026c1.227,0.178,2.388,0.199,3.154,0.199
				c0.488,0,0.978-0.01,1.467-0.02c0.421-0.008,0.842-0.018,1.262-0.018c1.739,0,2.59,0.175,3.249,0.669
				c0.878,0.658,1.933,0.999,2.999,0.999c0.585,0,1.173-0.103,1.737-0.312c0.601-0.223,1.251-0.326,2.048-0.326
				c1.278,0,2.737,0.273,4.283,0.563l0.091,0.017l0.087,0.016c1.288,0.242,2.748,0.516,4.353,0.516c0.773,0,1.531-0.065,2.25-0.194
				c1.347-0.242,2.786-0.364,4.277-0.364c1.797,0,3.747,0.179,5.796,0.532c7.443,1.281,14.996,2.132,22.301,2.955
				c9.11,1.027,18.532,2.088,27.565,3.984c8.362,1.755,16.873,3.395,25.104,4.981c4.769,0.919,9.699,1.869,14.536,2.829
				c10.252,2.036,20.528,5.117,30.466,8.097c4.294,1.287,8.733,2.619,13.142,3.858c0.623,0.176,1.042,0.38,1.241,0.606
				c0.958,1.092,2.333,1.701,3.757,1.701c0.308,0,0.617-0.028,0.927-0.087c0.341-0.064,0.682-0.096,1.042-0.096
				c1.736,0,3.705,0.768,5.79,1.58c0.848,0.33,1.725,0.672,2.637,0.983c31.251,10.682,63.27,24.484,95.168,41.023
				c3.755,1.947,6.128,3.966,7.674,6.534l0.336,0.64c4.884,9.3,9.496,18.083,10.104,28.862c0.129,2.291,1.801,4.199,4.054,4.63
				c0.314,0.061,0.629,0.089,0.94,0.089c1.918,0,3.705-1.106,4.534-2.897c2.558-5.52,2.803-8.313,1.193-13.59l-0.166-0.545
				c-0.827-2.711-1.666-5.457-2.629-8.191c0.633,0.581,1.219,1.195,1.747,1.855c4.273,9.008,8.621,18.338,9.22,29.105
				c0.11,1.993,1.396,3.729,3.271,4.417c0.562,0.206,1.144,0.306,1.721,0.306c1.349,0,2.669-0.546,3.631-1.562
				c3.009-3.176,4.097-6.773,3.325-10.997c-0.308-1.677-0.674-3.349-1.099-5.015c0.044,0.096,0.087,0.192,0.132,0.288
				c0.541,1.186,1.083,2.371,1.605,3.563c2.675,6.106,3.83,10.624,3.862,15.105c-0.001,0.12-0.013,0.253-0.021,0.39
				c-0.08,1.24-0.248,3.821,1.676,5.874c1.173,1.251,2.831,1.94,4.668,1.94c0.19,0,0.392-0.007,0.602-0.023
				c1.841-0.141,3.451-0.947,4.541-2.27c1.789-2.171,1.489-4.754,1.346-5.994c-0.017-0.142-0.036-0.279-0.043-0.406
				c-0.102-3.175-0.577-6.178-1.297-8.997c0.049,0.079,0.098,0.158,0.146,0.238c2.677,4.396,4.622,9.18,6.681,14.244
				c0.382,0.94,0.765,1.88,1.151,2.818l1.161,4.816l1.544,6.405c0.533,2.211,2.491,3.782,4.765,3.826
				c0.032,0.001,0.064,0.001,0.097,0.001c2.233,0,4.201-1.483,4.811-3.641c1.685-5.961,1.163-11.967-1.548-17.865
				c-0.07-0.44-0.16-0.865-0.271-1.274c0.283,0.041,0.577,0.063,0.881,0.063c0.994,0,4.356-0.319,5.899-4.429
				c1.344-3.583-0.162-7.422-0.872-8.906c-1.378-2.881-3.432-4.896-5.781-5.674c-0.604-0.201-1.199-0.426-1.784-0.673
				c0.687-0.036,1.373-0.077,2.064-0.12c5.872-0.35,6.606-4.589,6.691-5.879c0.112-1.745-0.44-3.355-1.555-4.544
				c-1.169-1.246-2.765-1.878-4.743-1.878l-0.272,0.002l-0.12,0.001c-0.563-0.034-1.137-0.074-1.71-0.114
				c-1.639-0.115-3.333-0.234-5.08-0.234c-0.691,0-1.336,0.018-1.969,0.056c-0.901,0.055-1.799,0.082-2.67,0.082
				c-4.079,0-7.86-0.584-11.389-1.768c4.356-0.366,8.339-1.164,12.059-2.411c0.187-0.044,0.377-0.081,0.566-0.119
				c1.413-0.284,3.549-0.713,5.429-2.528c3.698-3.589,1.786-7.218,1.365-7.909c-1.085-1.788-3.006-2.858-5.136-2.859
				c-1.181,0-2.326,0.336-3.313,0.972c-0.597,0.386-1.662,0.557-2.896,0.754c-1.388,0.222-3.064,0.489-4.775,1.199
				c-3.855,0.461-7.234,0.686-10.307,0.686c-4.311,0-8.188-0.434-11.829-1.325c3.988-0.382,8.474-0.868,12.669-3.723l0.043-0.028
				c4.817-3.273,3.264-7.313,2.673-8.474c-1.067-2.107-3.057-3.371-5.316-3.371c-1.536,0-2.687,0.583-3.306,0.896l-0.13,0.065
				c-3.023,1.32-6.162,2.154-9.564,2.538c-1.625,0.184-3.37,0.272-5.34,0.272c-2.56,0-5.111-0.146-7.814-0.301
				c-2.251-0.129-4.568-0.262-6.91-0.304c-0.757-0.309-1.514-0.613-2.271-0.919c-3.582-1.441-6.965-2.804-10.143-4.547
				c-25.436-13.963-52.416-25.989-82.482-36.768c-6.73-2.412-13.463-4.821-20.195-7.231l-7.083-2.535
				c-0.542-0.194-1.111-0.292-1.685-0.292c-0.207,0-0.414,0.013-0.62,0.039c-0.047,0.006-0.095,0.009-0.147,0.009
				c-0.425,0-1.069-0.187-1.583-0.349c-1.939-0.614-3.876-1.241-5.813-1.868c-5.413-1.753-11.01-3.566-16.656-5.072
				c-20.337-5.416-44.411-11.404-68.787-14.763c-2.107-0.291-4.214-0.586-6.32-0.882c-12.837-1.804-26.11-3.669-39.45-4.211
				c-8.537-0.348-17.647-1.232-29.54-2.868C758.027,363.586,757.8,363.571,757.573,363.571L757.573,363.571z"/>
		</g>
		<path fill-rule="evenodd" clip-rule="evenodd" fill="#FFFFFF" d="M535.1,599.79c-2.33,2.62-4.63,5.3-7.2,7.69
			c-9.04,8.39-14.17,18.949-18.04,30.5c-5.18,15.449-11.4,30.46-18.62,45.02c-1.48,2.99-3,5.95-4.57,8.9
			c-0.86-0.431-1.72-0.881-2.58-1.33c1.57-2.95,3.1-5.91,4.57-8.9c-49.04-25.71-90.95-63.66-121.48-109.95
			c-3.72,0.38-7.45,0.74-11.17,1.15c-0.55-0.86-1.09-1.72-1.63-2.58c3.64-0.48,7.29-0.98,10.93-1.47
			c12.76-1.71,25.54-3.28,38.42-3.73c8.54-0.3,17.11,0.54,25.67,0.87c11.41,0.49,22.83,0.25,34.24,0.55
			c11.84,0.311,23.68,1.12,35.51,1.931c6.14,0.43,11.74,2.689,16.63,6.479c1.92,1.48,3.96,2.271,6.36,2.29
			c3.37,0.021,6.49,1.12,9.41,2.67C539.55,584.12,541.11,593.03,535.1,599.79z"/>
		<path fill-rule="evenodd" clip-rule="evenodd" fill="#748293" d="M652.191,655.448c-0.059,0.608-0.302,0.961-0.775,0.938
			c-0.178-0.009-0.46-0.375-0.48-0.602c-0.041-0.424,0.131-0.873,0.678-0.794C651.846,655.023,652.04,655.321,652.191,655.448z"/>
		<path fill-rule="evenodd" clip-rule="evenodd" fill="#FFFFFF" d="M723.734,229.256c0.482-1.952-0.735-2.784-1.508-3.763
			c-8.151-10.343-13.17-22.503-19.606-33.837c-0.743-1.307-0.966-2.83,0.673-3.728c1.836-1.007,2.801,0.201,3.627,1.661
			c4.811,8.494,9.633,16.981,14.461,25.465c8.911,15.661,20.445,29.319,32.492,42.585c2.73,3.006,5.485,5.992,8.287,8.934
			c1.433,1.504,1.902,2.992,0.202,4.524c-1.8,1.621-3.095,0.622-4.396-0.89c-8.872-10.314-18.354-20.097-26.575-30.966
			c-2.858,2.294-3.219,3.971-1.24,7.644c4.675,8.67,7.765,17.863,9.531,27.533c2.088,11.441,1.857,22.944,0.943,34.458
			c-0.278,3.517-2.879,4.97-5.926,5.756c-6.529,1.688-13.025,1.285-19.545-0.211c-13.388-3.068-26.19-8.024-39.312-11.954
			c-4.816-1.444-9.886-1.922-14.487-4.224c-7.321-3.66-9.873-8.652-8.21-16.617c1.754-8.399,6.271-15.621,9.864-23.233
			c3.227-6.834,6.652-13.578,9.844-20.428c3.312-7.109,8.99-11.758,15.573-15.547c1.484-0.852,2.77-0.662,3.696,0.792
			c0.89,1.397,0.394,2.696-0.95,3.324c-10.133,4.734-14.097,14.252-18.461,23.501c-4.02,8.517-8.144,16.985-12.203,25.483
			c-0.566,1.185-1.08,2.401-1.532,3.635c-2.862,7.803-1.247,11.577,6.401,14.851c1.809,0.775,3.694,1.376,5.557,2.022
			c0.885,0.308,2.017,1.124,2.616-0.067c0.448-0.891-0.764-1.397-1.355-1.965c-0.789-0.757-1.737-1.356-2.462-2.163
			c-2.346-2.607-2.019-4.642,1.046-6.367c2.834-1.597,5.993-2.341,9.179-2.216c17.231,0.675,34.066,3.233,49.646,11.254
			c6.622,3.409,6.873,3.402,6.758-4.166c-0.252-16.472-5.321-31.679-12.881-46.134c-1.674-3.202-3.62-6.27-5.581-9.309
			c-1.1-1.704-2.469-3.297-0.995-5.343c1.456-2.022,3.465-1.415,5.396-0.819C722.706,228.854,723.096,229.019,723.734,229.256z"/>
		<path fill-rule="evenodd" clip-rule="evenodd" fill="#FFFFFF" d="M454.781,302.11c1.899-0.018,3.355,0.816,4.505,2.291
			c4.563,5.861,10.216,10.547,16.141,14.939c0.528,0.393,1.069,0.765,1.583,1.178c3.785,3.051,4.708,5.593,3.166,8.686
			c-1.641,3.289-6.04,5.475-9.802,4.277c-11.212-3.564-18.78-11.084-22.368-22.254C446.344,306.052,449.692,301.966,454.781,302.11z
			"/>
		<path fill-rule="evenodd" clip-rule="evenodd" fill="#FFFFFF" d="M522.203,334.477c-2.736-0.615-6.935-0.677-8.486-4.406
			c-1.492-3.592,1.822-6.024,3.997-8.341c4.339-4.624,9.922-7.516,15.591-10.107c3.738-1.709,7.655,0.915,8.353,5.289
			c0.258,1.621,0.147,3.267-0.369,4.864C539.101,328.537,530.136,334.779,522.203,334.477z"/>
		<path fill-rule="evenodd" clip-rule="evenodd" fill="#6E0D0C" d="M643.871,565.139c-0.23,9.293-9.064,17.666-18.405,17.449
			c-11.597-0.271-19.449-8.444-19.051-19.84c0.376-10.83,8.32-18.013,19.557-17.688C637.035,545.38,644.162,553.375,643.871,565.139
			z"/>
		<path fill-rule="evenodd" clip-rule="evenodd" fill="#6E0D0C" d="M532.85,598c-3.47,3.8-6.94,7.61-10.58,11.26
			c-7.77,7.8-11.59,17.681-15.07,27.79c-5.25,15.3-11.38,30.19-18.54,44.62c-49.04-25.71-90.95-63.66-121.48-109.95
			c4.76-0.489,9.51-1.02,14.24-1.75c16.77-2.59,33.63-2.58,50.51-1.42c14.24,1.25,28.57-0.189,42.77,1.17
			c9.27,0.891,18.64,0.34,27.83,2.15c4.08,0.81,7.73,2.58,10.99,5c2.67,1.99,5.43,3.13,8.78,3.12c3.28-0.01,6.25,1.319,8.9,3.08
			C536.92,586.87,537.53,592.88,532.85,598z"/>
	</g>
</g>
</svg>
